STARTFONT 2.1
COMMENT
COMMENT Converted from OpenType font "yasahsi.ttf" by "otf2bdf 3.0".
COMMENT
FONT -FreeType-07YasashisaGothic-Medium-R-Normal--33-240-100-100-P-177-ISO10646-1
SIZE 24 100 100
FONTBOUNDINGBOX 45 43 -2 -8
STARTPROPERTIES 19
FOUNDRY "FreeType"
FAMILY_NAME "07YasashisaGothic"
WEIGHT_NAME "Medium"
SLANT "R"
SETWIDTH_NAME "Normal"
ADD_STYLE_NAME ""
PIXEL_SIZE 33
POINT_SIZE 240
RESOLUTION_X 100
RESOLUTION_Y 100
SPACING "P"
AVERAGE_WIDTH 177
CHARSET_REGISTRY "ISO10646"
CHARSET_ENCODING "1"
FONT_ASCENT 29
FONT_DESCENT 3
COPYRIGHT "Fontna.com,M + FONTS PROJECT,Information-technology Promotion Agency, Japan"
_OTF_FONTFILE "yasahsi.ttf"
_OTF_PSNAME "07YasashisaGothic"
ENDPROPERTIES
CHARS 964
STARTCHAR 0020
ENCODING 32
SWIDTH 510 0
DWIDTH 17 0
BBX 0 0 0 0
BITMAP
ENDCHAR
STARTCHAR 0021
ENCODING 33
SWIDTH 330 0
DWIDTH 11 0
BBX 3 25 4 0
BITMAP
E0
E0
E0
E0
E0
E0
E0
E0
E0
E0
E0
E0
E0
E0
E0
E0
E0
E0
00
00
00
E0
E0
E0
E0
ENDCHAR
STARTCHAR 0022
ENCODING 34
SWIDTH 420 0
DWIDTH 14 0
BBX 9 8 2 18
BITMAP
E180
E180
6180
6180
6180
6180
6180
6180
ENDCHAR
STARTCHAR 0023
ENCODING 35
SWIDTH 690 0
DWIDTH 23 0
BBX 19 25 2 0
BITMAP
018380
038380
038300
038300
030700
030700
7FFFE0
7FFFE0
070600
070600
060E00
060E00
0E0E00
0E0C00
0E0C00
0C1C00
FFFFC0
FFFFC0
1C1800
1C1800
1C1800
183800
183800
183800
383000
ENDCHAR
STARTCHAR 0024
ENCODING 36
SWIDTH 570 0
DWIDTH 19 0
BBX 15 31 2 -3
BITMAP
0380
0380
0380
0380
1FFC
7FFE
7386
E380
E380
C380
E380
E380
7380
7F80
1FC0
07F0
03F8
039C
038E
038E
0386
0386
0386
038E
C39E
FFFC
7FF0
0380
0380
0380
0380
ENDCHAR
STARTCHAR 0025
ENCODING 37
SWIDTH 840 0
DWIDTH 28 0
BBX 26 25 1 0
BITMAP
1F803800
3FC03000
70E07000
70606000
6070E000
E071C000
E071C000
E0738000
60738000
70670000
70E70000
3FCE0000
1F8C7C00
001CFF00
0019C380
00398380
00738180
007381C0
00E381C0
00E381C0
01C38180
01818380
0381C380
0300FF00
07007E00
ENDCHAR
STARTCHAR 0026
ENCODING 38
SWIDTH 720 0
DWIDTH 24 0
BBX 22 25 2 0
BITMAP
03F000
0FFC00
1C1E00
380E00
380600
380600
380E00
1C0E00
0E3C00
0F7800
07F000
03C0C0
0FE0C0
1EE0C0
3870C0
7038C0
601CC0
E00EC0
E007C0
E003C0
E001C0
E003E0
781F70
3FFE38
0FF01C
ENDCHAR
STARTCHAR 0027
ENCODING 39
SWIDTH 240 0
DWIDTH 8 0
BBX 3 8 3 18
BITMAP
E0
C0
C0
C0
C0
C0
C0
C0
ENDCHAR
STARTCHAR 0028
ENCODING 40
SWIDTH 390 0
DWIDTH 13 0
BBX 9 31 2 -5
BITMAP
0380
0700
0E00
0C00
1C00
1800
3800
3000
7000
7000
7000
6000
6000
E000
E000
E000
E000
E000
6000
6000
7000
7000
3000
3800
3800
1800
1C00
0E00
0600
0300
0180
ENDCHAR
STARTCHAR 0029
ENCODING 41
SWIDTH 390 0
DWIDTH 13 0
BBX 9 31 2 -5
BITMAP
E000
7000
3800
1800
1C00
0C00
0E00
0600
0700
0700
0300
0300
0380
0380
0380
0380
0380
0380
0380
0300
0300
0700
0700
0600
0E00
0C00
1C00
3800
3000
6000
C000
ENDCHAR
STARTCHAR 002A
ENCODING 42
SWIDTH 540 0
DWIDTH 18 0
BBX 14 14 2 12
BITMAP
0300
0300
0300
0300
0300
F33C
FFFC
1FE0
0780
0FC0
0CC0
1CE0
3870
1020
ENDCHAR
STARTCHAR 002B
ENCODING 43
SWIDTH 750 0
DWIDTH 25 0
BBX 19 20 3 0
BITMAP
00E000
00E000
00E000
00E000
00E000
00E000
00E000
00E000
00E000
FFFFE0
FFFFE0
00E000
00E000
00E000
00E000
00E000
00E000
00E000
00E000
00E000
ENDCHAR
STARTCHAR 002C
ENCODING 44
SWIDTH 300 0
DWIDTH 10 0
BBX 6 9 2 -4
BITMAP
1C
3C
38
38
70
70
60
E0
E0
ENDCHAR
STARTCHAR 002D
ENCODING 45
SWIDTH 480 0
DWIDTH 16 0
BBX 10 2 3 9
BITMAP
FFC0
FFC0
ENDCHAR
STARTCHAR 002E
ENCODING 46
SWIDTH 300 0
DWIDTH 10 0
BBX 3 5 3 0
BITMAP
E0
E0
E0
E0
E0
ENDCHAR
STARTCHAR 002F
ENCODING 47
SWIDTH 510 0
DWIDTH 17 0
BBX 13 26 2 -1
BITMAP
0018
0038
0038
0070
0070
00E0
00E0
00C0
01C0
0180
0380
0300
0700
0700
0E00
0E00
0C00
1C00
1800
3800
3000
7000
7000
E000
E000
C000
ENDCHAR
STARTCHAR 0030
ENCODING 48
SWIDTH 630 0
DWIDTH 21 0
BBX 18 25 2 0
BITMAP
07F000
1FFC00
3C1E00
380F00
700700
600380
E00380
E00380
E00180
C00180
C00180
C001C0
C001C0
C001C0
C001C0
C00180
E00180
E00380
E00380
600380
700700
780F00
3C1E00
1FFC00
07F000
ENDCHAR
STARTCHAR 0031
ENCODING 49
SWIDTH 630 0
DWIDTH 21 0
BBX 10 25 4 0
BITMAP
03C0
07C0
0FC0
3DC0
79C0
F1C0
C1C0
81C0
01C0
01C0
01C0
01C0
01C0
01C0
01C0
01C0
01C0
01C0
01C0
01C0
01C0
01C0
01C0
01C0
01C0
ENDCHAR
STARTCHAR 0032
ENCODING 50
SWIDTH 630 0
DWIDTH 21 0
BBX 15 25 3 0
BITMAP
1FE0
FFF8
F03C
801C
000E
000E
000E
000E
000E
000E
001C
001C
003C
0038
0070
00E0
01C0
03C0
0780
0E00
3C00
7800
F000
FFFE
FFFE
ENDCHAR
STARTCHAR 0033
ENCODING 51
SWIDTH 630 0
DWIDTH 21 0
BBX 15 25 3 0
BITMAP
FFFE
FFFE
001E
003C
0070
00E0
01C0
0380
0700
0E00
1FE0
1FF8
007C
001E
000E
000E
000E
000E
000E
000E
000E
001C
E078
FFF0
3FC0
ENDCHAR
STARTCHAR 0034
ENCODING 52
SWIDTH 630 0
DWIDTH 21 0
BBX 19 25 0 0
BITMAP
000E00
001E00
001E00
003E00
007E00
006E00
00EE00
01CE00
038E00
038E00
070E00
0E0E00
0C0E00
1C0E00
380E00
700E00
700E00
FFFFE0
FFFFE0
000E00
000E00
000E00
000E00
000E00
000E00
ENDCHAR
STARTCHAR 0035
ENCODING 53
SWIDTH 630 0
DWIDTH 21 0
BBX 15 25 3 0
BITMAP
7FFC
7FFC
7000
7000
7000
6000
6000
6000
6000
67E0
7FF8
783C
601E
000E
000E
0006
0006
0006
0006
000E
000E
001C
E07C
FFF0
3FC0
ENDCHAR
STARTCHAR 0036
ENCODING 54
SWIDTH 630 0
DWIDTH 21 0
BBX 18 25 2 0
BITMAP
01FC00
07FE00
1E0200
1C0000
380000
700000
700000
600000
E3F800
EFFC00
FC1F00
F80700
F00380
E00380
E00180
E001C0
E001C0
E001C0
E00180
600380
700380
380700
3C0E00
1FFC00
07F000
ENDCHAR
STARTCHAR 0037
ENCODING 55
SWIDTH 630 0
DWIDTH 21 0
BBX 16 25 3 0
BITMAP
FFFF
FFFF
0006
000E
000C
001C
0018
0038
0070
0070
0060
00E0
00C0
01C0
0180
0380
0380
0700
0700
0700
0E00
0E00
0C00
1C00
1C00
ENDCHAR
STARTCHAR 0038
ENCODING 56
SWIDTH 630 0
DWIDTH 21 0
BBX 18 25 2 0
BITMAP
07F000
1FFC00
3C0E00
700700
600300
E00380
600380
600300
700700
380E00
1F3C00
07F000
0FFC00
3C1F00
700700
E00380
C00180
C001C0
C001C0
C00180
E00380
F00780
780F00
3FFE00
07F000
ENDCHAR
STARTCHAR 0039
ENCODING 57
SWIDTH 630 0
DWIDTH 21 0
BBX 17 25 2 0
BITMAP
07F000
1FFC00
3C1E00
700F00
E00700
E00380
E00380
C00380
C00380
C00380
E00380
E00380
E00780
700F80
3C1F80
1FFB80
07E380
000380
000300
000700
000600
000E00
203C00
3FF800
1FE000
ENDCHAR
STARTCHAR 003A
ENCODING 58
SWIDTH 360 0
DWIDTH 12 0
BBX 3 18 5 0
BITMAP
E0
E0
E0
E0
E0
00
00
00
00
00
00
00
00
E0
E0
E0
E0
E0
ENDCHAR
STARTCHAR 003B
ENCODING 59
SWIDTH 390 0
DWIDTH 13 0
BBX 5 22 3 -4
BITMAP
38
38
38
38
38
00
00
00
00
00
00
00
00
38
38
38
70
70
70
E0
E0
C0
ENDCHAR
STARTCHAR 003C
ENCODING 60
SWIDTH 690 0
DWIDTH 23 0
BBX 18 18 2 1
BITMAP
0000C0
0003C0
000F80
007E00
01F000
07C000
1F0000
780000
E00000
E00000
F80000
3E0000
07C000
01F000
007C00
001F00
0007C0
0000C0
ENDCHAR
STARTCHAR 003D
ENCODING 61
SWIDTH 780 0
DWIDTH 26 0
BBX 20 10 3 5
BITMAP
FFFFF0
FFFFF0
000000
000000
000000
000000
000000
000000
FFFFF0
FFFFF0
ENDCHAR
STARTCHAR 003E
ENCODING 62
SWIDTH 690 0
DWIDTH 23 0
BBX 18 18 3 1
BITMAP
C00000
F00000
7C0000
1F0000
07E000
00F800
003E00
000F80
0001C0
0001C0
000780
003E00
00F800
03E000
0F8000
7E0000
F00000
C00000
ENDCHAR
STARTCHAR 003F
ENCODING 63
SWIDTH 630 0
DWIDTH 21 0
BBX 16 25 3 0
BITMAP
3FF0
FFFC
E01E
000F
0007
0007
0007
0007
000E
001C
0078
00F0
01C0
0380
0700
0700
0700
0700
0000
0000
0000
0700
0700
0700
0700
ENDCHAR
STARTCHAR 0040
ENCODING 64
SWIDTH 840 0
DWIDTH 28 0
BBX 26 26 1 -4
BITMAP
007F8000
01FFE000
07C07800
0E001C00
1C000E00
38000700
307CE300
70FFE380
61E3E180
61C1E180
6380E1C0
C380E0C0
C380E0C0
C380E0C0
C380E0C0
6380E1C0
61C1E180
61E3E180
70FFFF80
307CFF00
38000000
1C000000
0E001000
07C07000
01FFE000
007F8000
ENDCHAR
STARTCHAR 0041
ENCODING 65
SWIDTH 690 0
DWIDTH 23 0
BBX 20 24 1 1
BITMAP
007000
00F000
00F800
01D800
01DC00
019C00
038C00
038E00
030E00
070600
070700
060700
0E0300
0E0380
0C0380
1FFF80
1FFFC0
1801C0
3800C0
3800E0
7000E0
700060
700070
E00070
ENDCHAR
STARTCHAR 0042
ENCODING 66
SWIDTH 600 0
DWIDTH 20 0
BBX 16 25 3 0
BITMAP
FFC0
FFF8
E03C
E01C
E00E
E00E
E00E
E00E
E00C
E01C
E070
FFC0
FFF8
E07C
E00E
E007
E007
E007
E007
E007
E007
E00E
E03C
FFF8
FFE0
ENDCHAR
STARTCHAR 0043
ENCODING 67
SWIDTH 630 0
DWIDTH 21 0
BBX 17 25 1 0
BITMAP
00FF00
07FF80
0F0180
1E0000
3C0000
380000
700000
700000
700000
600000
E00000
E00000
E00000
E00000
E00000
600000
700000
700000
700000
380000
3C0000
1E0000
0F8180
07FF80
00FF00
ENDCHAR
STARTCHAR 0044
ENCODING 68
SWIDTH 660 0
DWIDTH 22 0
BBX 18 25 3 0
BITMAP
FFC000
FFF800
E03C00
E00E00
E00700
E00380
E00380
E001C0
E001C0
E001C0
E001C0
E001C0
E001C0
E001C0
E001C0
E001C0
E001C0
E00180
E00380
E00380
E00700
E00E00
E03C00
FFF800
FFC000
ENDCHAR
STARTCHAR 0045
ENCODING 69
SWIDTH 600 0
DWIDTH 20 0
BBX 14 24 3 0
BITMAP
FFFC
FFFC
E000
E000
E000
E000
E000
E000
E000
E000
FFFC
FFFC
E000
E000
E000
E000
E000
E000
E000
E000
E000
E000
FFFC
FFFC
ENDCHAR
STARTCHAR 0046
ENCODING 70
SWIDTH 600 0
DWIDTH 20 0
BBX 14 25 3 0
BITMAP
FFFC
FFFC
FFFC
E000
E000
E000
E000
E000
E000
E000
E000
FFF8
FFF8
E000
E000
E000
E000
E000
E000
E000
E000
E000
E000
E000
E000
ENDCHAR
STARTCHAR 0047
ENCODING 71
SWIDTH 690 0
DWIDTH 23 0
BBX 20 25 1 0
BITMAP
007F80
03FFE0
078060
1E0000
1C0000
380000
700000
700000
700000
600000
E00000
E07FF0
E07FF0
E00070
E00070
600070
700070
700070
700070
380070
1C0070
1E0070
0F80F0
03FFF0
00FF80
ENDCHAR
STARTCHAR 0048
ENCODING 72
SWIDTH 690 0
DWIDTH 23 0
BBX 17 24 3 0
BITMAP
E00380
E00380
E00380
E00380
E00380
E00380
E00380
E00380
E00380
E00380
FFFF80
FFFF80
E00380
E00380
E00380
E00380
E00380
E00380
E00380
E00380
E00380
E00380
E00380
E00380
ENDCHAR
STARTCHAR 0049
ENCODING 73
SWIDTH 330 0
DWIDTH 11 0
BBX 3 25 4 0
BITMAP
E0
E0
E0
E0
E0
E0
E0
E0
E0
E0
E0
E0
E0
E0
E0
E0
E0
E0
E0
E0
E0
E0
E0
E0
E0
ENDCHAR
STARTCHAR 004A
ENCODING 74
SWIDTH 540 0
DWIDTH 18 0
BBX 14 25 1 0
BITMAP
000C
000C
000C
000C
000C
000C
000C
000C
000C
000C
000C
000C
000C
000C
000C
000C
000C
000C
001C
001C
001C
003C
E078
FFF0
3FC0
ENDCHAR
STARTCHAR 004B
ENCODING 75
SWIDTH 630 0
DWIDTH 21 0
BBX 16 25 3 0
BITMAP
E007
E00E
E01C
E038
E070
E0E0
E1C0
E380
E700
EE00
FE00
FC00
FC00
FC00
EE00
E700
E380
E1C0
E0E0
E0F0
E078
E038
E01C
E00E
E007
ENDCHAR
STARTCHAR 004C
ENCODING 76
SWIDTH 600 0
DWIDTH 20 0
BBX 15 25 3 0
BITMAP
E000
E000
E000
E000
E000
E000
E000
E000
E000
E000
E000
E000
E000
E000
E000
E000
E000
E000
E000
E000
E000
E000
E000
FFFE
FFFE
ENDCHAR
STARTCHAR 004D
ENCODING 77
SWIDTH 840 0
DWIDTH 28 0
BBX 22 25 3 0
BITMAP
E0001C
F0003C
F0003C
F8007C
F8007C
FC00FC
EC00DC
EE01DC
E6039C
E7039C
E3071C
E3871C
E1CE1C
E1CE1C
E0FC1C
E0F81C
E0781C
E0701C
E0001C
E0001C
E0001C
E0001C
E0001C
E0001C
E0001C
ENDCHAR
STARTCHAR 004E
ENCODING 78
SWIDTH 690 0
DWIDTH 23 0
BBX 18 25 3 0
BITMAP
E001C0
F001C0
F001C0
F801C0
F801C0
FC01C0
EE01C0
EE01C0
E701C0
E301C0
E381C0
E181C0
E1C1C0
E0E1C0
E061C0
E071C0
E031C0
E039C0
E01DC0
E01DC0
E00FC0
E007C0
E007C0
E003C0
E003C0
ENDCHAR
STARTCHAR 004F
ENCODING 79
SWIDTH 720 0
DWIDTH 24 0
BBX 22 25 1 0
BITMAP
00FE00
07FF80
0F03C0
1C00E0
380070
380038
700038
700018
70001C
60001C
E0001C
E0001C
E0001C
E0001C
E0001C
60001C
60001C
700018
700038
380038
380070
1C00E0
0F03C0
07FF80
00FE00
ENDCHAR
STARTCHAR 0050
ENCODING 80
SWIDTH 600 0
DWIDTH 20 0
BBX 16 25 3 0
BITMAP
FFE0
FFF8
E03E
E00E
E007
E007
E003
E003
E007
E007
E007
E00E
E03C
FFF8
FFE0
E000
E000
E000
E000
E000
E000
E000
E000
E000
C000
ENDCHAR
STARTCHAR 0051
ENCODING 81
SWIDTH 750 0
DWIDTH 25 0
BBX 24 30 1 -5
BITMAP
00FE00
07FF80
0F03C0
1C00E0
380070
380038
700038
700018
70001C
60001C
E0001C
E0001C
E0001C
E0001C
E0001C
60001C
60001C
700018
700038
380038
380070
1C00E0
0F03C0
07FF80
01FFC0
0000F0
00003C
00001E
00000F
000007
ENDCHAR
STARTCHAR 0052
ENCODING 82
SWIDTH 630 0
DWIDTH 21 0
BBX 16 25 3 0
BITMAP
FFE0
FFF8
E03C
E00E
E007
E007
E007
E007
E007
E00E
E00E
E07C
FFF0
FFE0
E070
E038
E038
E01C
E01C
E00C
E00E
E00E
E007
E007
E003
ENDCHAR
STARTCHAR 0053
ENCODING 83
SWIDTH 570 0
DWIDTH 19 0
BBX 15 25 2 0
BITMAP
0FE0
3FFC
781C
E004
E000
E000
E000
E000
7000
7800
3E00
1FC0
07E0
01F8
003C
001C
000E
000E
000E
000E
000E
001C
E03C
7FF8
1FE0
ENDCHAR
STARTCHAR 0054
ENCODING 84
SWIDTH 660 0
DWIDTH 22 0
BBX 18 25 2 0
BITMAP
FFFFC0
FFFFC0
01C000
01C000
01C000
01C000
01C000
01C000
01C000
01C000
01C000
01C000
01C000
01C000
01C000
01C000
01C000
01C000
01C000
01C000
01C000
01C000
01C000
01C000
00C000
ENDCHAR
STARTCHAR 0055
ENCODING 85
SWIDTH 660 0
DWIDTH 22 0
BBX 17 25 3 0
BITMAP
C00380
C00380
C00380
C00380
C00380
C00380
C00380
C00380
C00380
C00380
C00380
C00380
C00380
C00380
C00380
C00380
C00380
C00380
C00380
E00380
E00700
700700
781E00
3FFC00
07F000
ENDCHAR
STARTCHAR 0056
ENCODING 86
SWIDTH 690 0
DWIDTH 23 0
BBX 20 25 1 0
BITMAP
E00030
700070
700070
700060
3800E0
3800E0
3800C0
1C01C0
1C01C0
1C0180
0E0380
0E0380
0E0300
070700
070700
030600
038E00
038C00
018C00
019C00
01D800
00D800
00F800
00F000
007000
ENDCHAR
STARTCHAR 0057
ENCODING 87
SWIDTH 900 0
DWIDTH 30 0
BBX 26 25 2 0
BITMAP
C01E00C0
E01E01C0
E01E01C0
E01F01C0
603F01C0
603B0180
70330380
70330380
70338380
30738300
30618300
38618300
38618700
38E1C700
18E1C600
18C0C600
1CC0C600
1CC0CE00
0DC0EC00
0DC0EC00
0D806C00
0F806C00
0F807C00
07807800
07803800
ENDCHAR
STARTCHAR 0058
ENCODING 88
SWIDTH 660 0
DWIDTH 22 0
BBX 18 25 2 0
BITMAP
7003C0
700380
380700
380700
1C0E00
0E0E00
0E1C00
071800
073800
03F000
03F000
01E000
01E000
03F000
03F000
073800
073800
0E1C00
0E0E00
1C0E00
380700
380700
700380
7003C0
E001C0
ENDCHAR
STARTCHAR 0059
ENCODING 89
SWIDTH 660 0
DWIDTH 22 0
BBX 20 25 1 0
BITMAP
F00070
7000E0
7800E0
3801C0
1C01C0
1C0380
0E0700
0E0700
070E00
038E00
039C00
01D800
01F800
00F000
007000
007000
007000
007000
007000
007000
007000
007000
007000
007000
007000
ENDCHAR
STARTCHAR 005A
ENCODING 90
SWIDTH 630 0
DWIDTH 21 0
BBX 15 25 3 0
BITMAP
FFFE
FFFE
000E
001E
001C
003C
0038
0070
00F0
00E0
01C0
03C0
0380
0780
0700
0E00
1E00
1C00
3C00
7800
7000
F000
E000
FFFE
FFFE
ENDCHAR
STARTCHAR 005B
ENCODING 91
SWIDTH 480 0
DWIDTH 16 0
BBX 9 31 4 -5
BITMAP
FF80
FF80
C000
C000
C000
C000
C000
C000
C000
C000
C000
C000
C000
C000
C000
C000
C000
C000
C000
C000
C000
C000
C000
C000
C000
C000
C000
C000
C000
FF80
FF80
ENDCHAR
STARTCHAR 005C
ENCODING 92
SWIDTH 510 0
DWIDTH 17 0
BBX 14 26 2 -1
BITMAP
E000
E000
6000
7000
3000
3800
1800
1C00
1C00
0E00
0E00
0600
0700
0300
0380
0180
01C0
01C0
00E0
00E0
0060
0070
0030
0038
0018
001C
ENDCHAR
STARTCHAR 005D
ENCODING 93
SWIDTH 480 0
DWIDTH 16 0
BBX 9 31 3 -5
BITMAP
FF80
FF80
0180
0180
0180
0180
0180
0180
0180
0180
0180
0180
0180
0180
0180
0180
0180
0180
0180
0180
0180
0180
0180
0180
0180
0180
0180
0180
0180
FF80
FF80
ENDCHAR
STARTCHAR 005E
ENCODING 94
SWIDTH 660 0
DWIDTH 22 0
BBX 18 15 2 10
BITMAP
01E000
03E000
037000
073000
073800
0E1800
0E1C00
1C0C00
1C0E00
380600
380700
700300
700380
E00180
E001C0
ENDCHAR
STARTCHAR 005F
ENCODING 95
SWIDTH 570 0
DWIDTH 19 0
BBX 19 2 0 -5
BITMAP
FFFFE0
FFFFE0
ENDCHAR
STARTCHAR 0060
ENCODING 96
SWIDTH 270 0
DWIDTH 9 0
BBX 7 9 1 19
BITMAP
E0
E0
70
70
38
18
1C
0C
0E
ENDCHAR
STARTCHAR 0061
ENCODING 97
SWIDTH 540 0
DWIDTH 18 0
BBX 14 18 2 0
BITMAP
3FE0
7FF0
6038
0018
001C
001C
001C
07FC
3FFC
781C
E01C
E01C
C01C
C03C
E03C
F0FC
7FDC
3F1C
ENDCHAR
STARTCHAR 0062
ENCODING 98
SWIDTH 600 0
DWIDTH 20 0
BBX 15 25 3 0
BITMAP
C000
C000
C000
C000
C000
C000
C000
C7E0
CFF0
D838
F01C
E00C
E00E
C00E
C006
C006
C006
C00E
C00E
C00E
E00C
F01C
F838
CFF0
C7E0
ENDCHAR
STARTCHAR 0063
ENCODING 99
SWIDTH 510 0
DWIDTH 17 0
BBX 13 18 1 0
BITMAP
07F8
1FF8
3C08
3800
7000
7000
6000
E000
E000
E000
E000
6000
7000
7000
3800
3C08
1FF8
07F8
ENDCHAR
STARTCHAR 0064
ENCODING 100
SWIDTH 600 0
DWIDTH 20 0
BBX 15 25 2 0
BITMAP
000E
000E
000E
000E
000E
000E
000E
0F8E
3FEE
787E
701E
E00E
E00E
C00E
C00E
C00E
C00E
C00E
C00E
E00E
E00E
701E
783E
3FEE
0F86
ENDCHAR
STARTCHAR 0065
ENCODING 101
SWIDTH 540 0
DWIDTH 18 0
BBX 15 18 1 0
BITMAP
07E0
1FF8
3C3C
780C
700E
6006
6006
E006
FFFE
FFFE
E000
6000
6000
7000
3800
3C0C
1FFC
07F8
ENDCHAR
STARTCHAR 0066
ENCODING 102
SWIDTH 510 0
DWIDTH 17 0
BBX 13 25 2 0
BITMAP
01F8
07F8
0700
0E00
0E00
0E00
0E00
0E00
FFF8
FFF8
0E00
0E00
0E00
0E00
0E00
0E00
0E00
0E00
0E00
0E00
0E00
0E00
0E00
0E00
0E00
ENDCHAR
STARTCHAR 0067
ENCODING 103
SWIDTH 570 0
DWIDTH 19 0
BBX 15 26 2 -8
BITMAP
0F8C
3FEE
787E
701E
E01E
E00E
C00E
C00E
C00E
C00E
C00E
C00E
E00E
E01E
701E
787E
3FEE
0F8E
000E
000E
000C
001C
001C
6078
7FF0
3FC0
ENDCHAR
STARTCHAR 0068
ENCODING 104
SWIDTH 570 0
DWIDTH 19 0
BBX 14 25 3 0
BITMAP
C000
C000
C000
C000
C000
C000
C000
C3E0
CFF0
DC38
F01C
E01C
E01C
C01C
C01C
C01C
C01C
C01C
C01C
C01C
C01C
C01C
C01C
C01C
C01C
ENDCHAR
STARTCHAR 0069
ENCODING 105
SWIDTH 330 0
DWIDTH 11 0
BBX 3 26 4 0
BITMAP
E0
E0
E0
E0
00
00
00
00
E0
E0
E0
E0
E0
E0
E0
E0
E0
E0
E0
E0
E0
E0
E0
E0
E0
E0
ENDCHAR
STARTCHAR 006A
ENCODING 106
SWIDTH 360 0
DWIDTH 12 0
BBX 8 33 0 -7
BITMAP
07
07
07
07
00
00
00
00
07
07
07
07
07
07
07
07
07
07
07
07
07
07
07
07
07
07
07
07
07
07
1E
FE
F8
ENDCHAR
STARTCHAR 006B
ENCODING 107
SWIDTH 570 0
DWIDTH 19 0
BBX 13 26 3 0
BITMAP
C000
C000
C000
C000
C000
C000
C000
C000
C018
C078
C0F0
C1E0
C380
C700
CE00
DC00
F800
DC00
CE00
C700
C380
C1C0
C0E0
C070
C038
C018
ENDCHAR
STARTCHAR 006C
ENCODING 108
SWIDTH 330 0
DWIDTH 11 0
BBX 3 26 4 0
BITMAP
C0
E0
E0
E0
E0
E0
E0
E0
E0
E0
E0
E0
E0
E0
E0
E0
E0
E0
E0
E0
E0
E0
E0
E0
E0
E0
ENDCHAR
STARTCHAR 006D
ENCODING 109
SWIDTH 810 0
DWIDTH 27 0
BBX 21 18 3 0
BITMAP
C783E0
DFC7F0
F0EC78
E07838
E07018
C07018
C07018
C07018
C07018
C07018
C07018
C07018
C07018
C07018
C07018
C07018
C07018
C07018
ENDCHAR
STARTCHAR 006E
ENCODING 110
SWIDTH 570 0
DWIDTH 19 0
BBX 14 18 3 0
BITMAP
C7E0
CFF0
D838
F018
E01C
E01C
C01C
C01C
C01C
C01C
C01C
C01C
C01C
C01C
C01C
C01C
C01C
C01C
ENDCHAR
STARTCHAR 006F
ENCODING 111
SWIDTH 570 0
DWIDTH 19 0
BBX 17 18 1 0
BITMAP
07E000
1FF800
3C1E00
380E00
700700
700700
600300
E00380
E00380
E00380
E00380
600300
600700
700700
380E00
3C1E00
1FFC00
07F000
ENDCHAR
STARTCHAR 0070
ENCODING 112
SWIDTH 600 0
DWIDTH 20 0
BBX 15 25 3 -7
BITMAP
C7E0
DFF0
F838
F01C
E00C
C00E
C00E
C00E
C00E
C00E
C00E
C00E
C00E
E01C
F01C
F838
DFF0
C7C0
C000
C000
C000
C000
C000
C000
C000
ENDCHAR
STARTCHAR 0071
ENCODING 113
SWIDTH 600 0
DWIDTH 20 0
BBX 15 25 2 -7
BITMAP
0F86
3FEE
787E
701E
E00E
E00E
C00E
C00E
C00E
C00E
C00E
C00E
E00E
E00E
701E
783E
3FEE
0F8E
000E
000E
000E
000E
000E
000E
000E
ENDCHAR
STARTCHAR 0072
ENCODING 114
SWIDTH 450 0
DWIDTH 15 0
BBX 10 18 3 0
BITMAP
C0C0
C7C0
CFC0
DC00
F000
E000
E000
E000
C000
C000
C000
C000
C000
C000
C000
C000
C000
C000
ENDCHAR
STARTCHAR 0073
ENCODING 115
SWIDTH 510 0
DWIDTH 17 0
BBX 13 18 2 0
BITMAP
1FE0
7FF0
7030
E000
E000
E000
E000
7C00
3F80
07E0
00F0
0038
0038
0038
0038
C070
FFF0
3FC0
ENDCHAR
STARTCHAR 0074
ENCODING 116
SWIDTH 510 0
DWIDTH 17 0
BBX 13 24 2 0
BITMAP
0C00
0C00
0C00
0C00
0C00
0C00
0C00
FFF8
FFF8
0C00
0C00
0C00
0C00
0C00
0C00
0C00
0C00
0C00
0C00
0C00
0C00
0E00
0FF0
03F0
ENDCHAR
STARTCHAR 0075
ENCODING 117
SWIDTH 570 0
DWIDTH 19 0
BBX 15 18 2 0
BITMAP
E00E
E00E
E00E
E00E
E00E
E00E
E00E
E00E
E00E
E00E
E00E
E00E
E00E
601E
703E
787E
3FEE
1F8C
ENDCHAR
STARTCHAR 0076
ENCODING 118
SWIDTH 570 0
DWIDTH 19 0
BBX 16 18 1 0
BITMAP
E007
7007
7007
300E
380E
380C
180C
1C1C
1C18
0C18
0E38
0E30
0630
0770
0760
0360
03E0
03C0
ENDCHAR
STARTCHAR 0077
ENCODING 119
SWIDTH 810 0
DWIDTH 27 0
BBX 23 17 2 0
BITMAP
E07C0E
E07C0E
E06C0E
606C0C
706C1C
70EE1C
70C618
30C618
38C618
39C738
198330
198330
198330
1F83F0
0F01E0
0F01E0
0F01E0
ENDCHAR
STARTCHAR 0078
ENCODING 120
SWIDTH 570 0
DWIDTH 19 0
BBX 14 18 2 0
BITMAP
E00C
701C
7038
3838
1C70
1CE0
0EE0
07C0
0780
0780
07C0
0EC0
1CE0
1870
3830
7038
701C
E00C
ENDCHAR
STARTCHAR 0079
ENCODING 121
SWIDTH 570 0
DWIDTH 19 0
BBX 16 25 1 -7
BITMAP
E003
6007
7007
7006
300E
380C
181C
1818
1C18
0C38
0E30
0E70
0660
0760
07E0
03C0
03C0
0180
0380
0380
0300
0700
0600
0E00
0C00
ENDCHAR
STARTCHAR 007A
ENCODING 122
SWIDTH 540 0
DWIDTH 18 0
BBX 13 18 3 0
BITMAP
FFF8
FFF8
0070
0070
00E0
01C0
03C0
0380
0700
0E00
1E00
1C00
3800
7000
7000
E000
FFF8
FFF8
ENDCHAR
STARTCHAR 007B
ENCODING 123
SWIDTH 540 0
DWIDTH 18 0
BBX 12 31 2 -5
BITMAP
03F0
07F0
0700
0E00
0E00
0E00
0E00
0E00
0E00
0E00
0E00
0E00
0E00
1C00
F800
F000
1800
0C00
0E00
0E00
0E00
0E00
0E00
0E00
0E00
0E00
0E00
0E00
0700
07F0
03F0
ENDCHAR
STARTCHAR 007C
ENCODING 124
SWIDTH 360 0
DWIDTH 12 0
BBX 2 35 5 -7
BITMAP
C0
C0
C0
C0
C0
C0
C0
C0
C0
C0
C0
C0
C0
C0
C0
C0
C0
C0
C0
C0
C0
C0
C0
C0
C0
C0
C0
C0
C0
C0
C0
C0
C0
C0
C0
ENDCHAR
STARTCHAR 007D
ENCODING 125
SWIDTH 540 0
DWIDTH 18 0
BBX 12 31 3 -5
BITMAP
FC00
FE00
0700
0700
0300
0300
0300
0300
0300
0300
0300
0300
0380
0380
01F0
00F0
0180
0380
0300
0300
0300
0300
0300
0300
0300
0300
0300
0700
0700
FE00
FC00
ENDCHAR
STARTCHAR 007E
ENCODING 126
SWIDTH 720 0
DWIDTH 24 0
BBX 20 6 2 7
BITMAP
1F0000
7FC000
F0E070
C070E0
003FC0
000F80
ENDCHAR
STARTCHAR 00A1
ENCODING 161
SWIDTH 330 0
DWIDTH 11 0
BBX 3 25 4 -7
BITMAP
E0
E0
E0
E0
00
00
00
E0
E0
E0
E0
E0
E0
E0
E0
E0
E0
E0
E0
E0
E0
E0
E0
E0
E0
ENDCHAR
STARTCHAR 00A2
ENCODING 162
SWIDTH 510 0
DWIDTH 17 0
BBX 14 30 1 -6
BITMAP
00C0
00C0
00C0
00C0
00C0
00C0
07FC
1FFC
3CC4
38C0
70C0
70C0
60C0
E0C0
E0C0
E0C0
E0C0
60C0
60C0
70C0
78C0
3CC0
1FFC
07FC
00C0
00C0
00C0
00C0
00C0
00C0
ENDCHAR
STARTCHAR 00A3
ENCODING 163
SWIDTH 630 0
DWIDTH 21 0
BBX 15 25 3 0
BITMAP
01FC
07FE
0F02
0E00
1C00
1C00
1C00
1C00
1C00
1C00
1C00
FFF8
FFF8
1C00
1C00
1C00
1C00
1C00
1C00
1C00
3800
3800
F000
FFFE
FFFE
ENDCHAR
STARTCHAR 00A4
ENCODING 164
SWIDTH 690 0
DWIDTH 23 0
BBX 19 17 2 4
BITMAP
E000E0
71F1C0
3FFF80
1E0F00
1C0700
380380
300180
300180
300180
300180
300180
380380
1C0700
1E0F00
3FFF80
71F1C0
E000E0
ENDCHAR
STARTCHAR 00A5
ENCODING 165
SWIDTH 690 0
DWIDTH 23 0
BBX 19 25 2 0
BITMAP
E000E0
E001E0
7001C0
700380
380380
380700
1C0700
0E0E00
0E1C00
071C00
073800
03B800
01F000
7FFFC0
7FFFC0
00E000
00E000
00E000
7FFFC0
7FFFC0
00E000
00E000
00E000
00E000
00E000
ENDCHAR
STARTCHAR 00A6
ENCODING 166
SWIDTH 360 0
DWIDTH 12 0
BBX 2 30 5 -5
BITMAP
C0
C0
C0
C0
C0
C0
C0
C0
C0
C0
C0
C0
00
00
00
00
00
00
C0
C0
C0
C0
C0
C0
C0
C0
C0
C0
C0
C0
ENDCHAR
STARTCHAR 00A7
ENCODING 167
SWIDTH 1020 0
DWIDTH 34 0
BBX 14 30 2 -5
BITMAP
0FE0
3FF8
7838
6000
E000
E000
E000
6000
7800
3F80
3FE0
71F0
6038
C018
C01C
C01C
E01C
7018
7E38
1FE0
07F0
0078
0038
0018
001C
0018
0038
6078
7FF0
1FC0
ENDCHAR
STARTCHAR 00A8
ENCODING 168
SWIDTH 1020 0
DWIDTH 34 0
BBX 9 4 3 21
BITMAP
C180
C180
C180
C180
ENDCHAR
STARTCHAR 00A9
ENCODING 169
SWIDTH 840 0
DWIDTH 28 0
BBX 26 25 1 0
BITMAP
007F0000
01FFE000
07C0F000
0E003C00
1C000E00
381F8600
307F8300
60F00300
61C00180
61C00180
C1800180
C1800080
C18000C0
C1800080
C1800180
61C00180
61C00180
60F00380
307F8300
381F8600
1C000E00
0E001C00
07C0F000
01FFE000
007F8000
ENDCHAR
STARTCHAR 00AA
ENCODING 170
SWIDTH 630 0
DWIDTH 21 0
BBX 15 18 3 7
BITMAP
0FE0
1FF0
1038
0018
0018
03F8
0FF8
1C18
3818
3018
3018
3038
3878
1FD8
0F98
0000
FFFE
FFFE
ENDCHAR
STARTCHAR 00AB
ENCODING 171
SWIDTH 750 0
DWIDTH 25 0
BBX 19 15 2 3
BITMAP
018060
0380E0
0701C0
1E0780
380E00
701C00
E03800
C03000
701C00
380E00
1C0700
0F03C0
0380E0
018060
008020
ENDCHAR
STARTCHAR 00AC
ENCODING 172
SWIDTH 660 0
DWIDTH 22 0
BBX 17 9 2 6
BITMAP
FFFF80
FFFF80
000180
000180
000180
000180
000180
000180
000180
ENDCHAR
STARTCHAR 00AD
ENCODING 173
SWIDTH 480 0
DWIDTH 16 0
BBX 10 2 3 9
BITMAP
FFC0
FFC0
ENDCHAR
STARTCHAR 00AE
ENCODING 174
SWIDTH 840 0
DWIDTH 28 0
BBX 26 25 1 0
BITMAP
007F0000
01FFE000
07C0F000
0E003C00
1C000E00
38FF0600
30FFC300
60C1C300
60C0E180
60C0E180
C0C0C180
C0C1C080
C0FF80C0
C0FF0080
C0C30180
60C18180
60C18180
60C1C380
30C0C300
38C0E600
1C000E00
0E001C00
07C0F000
01FFE000
007F8000
ENDCHAR
STARTCHAR 00AF
ENCODING 175
SWIDTH 480 0
DWIDTH 16 0
BBX 12 2 2 22
BITMAP
FFF0
FFF0
ENDCHAR
STARTCHAR 00B0
ENCODING 176
SWIDTH 1020 0
DWIDTH 34 0
BBX 10 10 2 15
BITMAP
3F00
7F80
E1C0
C0C0
C0C0
C0C0
C1C0
E180
7F00
1E00
ENDCHAR
STARTCHAR 00B1
ENCODING 177
SWIDTH 1020 0
DWIDTH 34 0
BBX 20 23 3 -1
BITMAP
006000
006000
006000
006000
006000
006000
006000
006000
FFFFF0
FFFFF0
006000
006000
006000
006000
006000
006000
006000
006000
000000
000000
000000
FFFFF0
FFFFF0
ENDCHAR
STARTCHAR 00B2
ENCODING 178
SWIDTH 390 0
DWIDTH 13 0
BBX 9 15 2 10
BITMAP
7E00
FF00
C380
0180
0180
0180
0380
0300
0600
0C00
1800
3000
6000
FF80
FF80
ENDCHAR
STARTCHAR 00B3
ENCODING 179
SWIDTH 390 0
DWIDTH 13 0
BBX 9 16 2 9
BITMAP
FF80
FF80
0300
0600
0C00
1800
3E00
3F00
0380
0180
0180
0180
0180
8380
FF00
7E00
ENDCHAR
STARTCHAR 00B4
ENCODING 180
SWIDTH 1020 0
DWIDTH 34 0
BBX 6 6 2 20
BITMAP
1C
3C
38
70
E0
C0
ENDCHAR
STARTCHAR 00B6
ENCODING 182
SWIDTH 1020 0
DWIDTH 34 0
BBX 18 30 1 -5
BITMAP
03FFC0
0FFFC0
3FC1C0
3FC1C0
7FC1C0
7FC1C0
FFC1C0
FFC1C0
FFC1C0
FFC1C0
7FC1C0
7FC1C0
3FC1C0
3FC1C0
0FC1C0
03C1C0
00C1C0
00C1C0
00C1C0
00C1C0
00C1C0
00C1C0
00C1C0
00C1C0
00C1C0
00C1C0
00C1C0
00C1C0
00C1C0
00C1C0
ENDCHAR
STARTCHAR 00B7
ENCODING 183
SWIDTH 300 0
DWIDTH 10 0
BBX 3 5 3 7
BITMAP
E0
E0
E0
E0
60
ENDCHAR
STARTCHAR 00B8
ENCODING 184
SWIDTH 420 0
DWIDTH 14 0
BBX 9 7 2 -7
BITMAP
0380
0180
0180
0180
8380
FF00
FE00
ENDCHAR
STARTCHAR 00B9
ENCODING 185
SWIDTH 390 0
DWIDTH 13 0
BBX 6 15 2 10
BITMAP
1C
3C
EC
CC
8C
0C
0C
0C
0C
0C
0C
0C
0C
0C
0C
ENDCHAR
STARTCHAR 00BA
ENCODING 186
SWIDTH 630 0
DWIDTH 21 0
BBX 15 18 3 7
BITMAP
07C0
1FF0
1C38
3018
300C
700C
600C
600C
600C
700C
300C
3018
3C38
1FF0
07E0
0000
FFFE
FFFE
ENDCHAR
STARTCHAR 00BB
ENCODING 187
SWIDTH 750 0
DWIDTH 25 0
BBX 19 16 3 2
BITMAP
802000
C03000
F03C00
380E00
1C0700
0E0380
0380E0
018060
018060
0380E0
0701C0
1C0700
380E00
701C00
E03800
802000
ENDCHAR
STARTCHAR 00BC
ENCODING 188
SWIDTH 840 0
DWIDTH 28 0
BBX 26 25 1 0
BITMAP
0E000E00
3E000C00
7E001C00
CE003800
8E003000
0E007000
0E00E000
0E00C000
0E01C000
0E038000
0E030600
0E070E00
0E0E0E00
0E0C1E00
04183600
00386600
00306600
0060C600
00E18600
00C10600
0183FFC0
0383FFC0
03000600
06000600
0E000600
ENDCHAR
STARTCHAR 00BD
ENCODING 189
SWIDTH 840 0
DWIDTH 28 0
BBX 26 25 1 0
BITMAP
0E001C00
3E001800
7E003000
CE007000
8E00E000
0E00C000
0E01C000
0E038000
0E030000
0E070000
0E0E3E00
0E0CFF80
0E1CC380
0E380180
04300180
00700180
00E00180
00C00300
01C00700
03800E00
03001C00
06003800
0E006000
0C00FFC0
1800FFC0
ENDCHAR
STARTCHAR 00BE
ENCODING 190
SWIDTH 840 0
DWIDTH 28 0
BBX 25 25 2 0
BITMAP
FF800C00
FF801C00
03003800
06003000
0C007000
1800E000
3E00C000
3F018000
03838000
01830000
01860C00
018E1C00
018C1C00
83983C00
FF386C00
7C30CC00
0060CC00
00E18C00
00C30C00
01820C00
0387FF80
0307FF80
06000C00
0E000C00
0C000C00
ENDCHAR
STARTCHAR 00BF
ENCODING 191
SWIDTH 630 0
DWIDTH 21 0
BBX 16 26 2 -8
BITMAP
0070
0070
0070
0070
0000
0000
0000
0000
0060
0060
00E0
00E0
01C0
0380
0F00
1E00
3800
7000
7000
E000
E000
E000
7000
7803
3FFF
0FFC
ENDCHAR
STARTCHAR 00C0
ENCODING 192
SWIDTH 690 0
DWIDTH 23 0
BBX 20 33 1 0
BITMAP
038000
038000
01C000
00E000
006000
007000
000000
000000
007000
00F000
00F800
00F800
01D800
019C00
019C00
038C00
030E00
030E00
070600
060700
060700
0E0300
0C0380
1C0380
1FFFC0
1FFFC0
3801C0
3800E0
3000E0
7000E0
700070
600070
E00070
ENDCHAR
STARTCHAR 00C1
ENCODING 193
SWIDTH 690 0
DWIDTH 23 0
BBX 20 33 1 0
BITMAP
000E00
001E00
001C00
003800
007000
006000
000000
000000
007000
00F000
00F800
00F800
01D800
019C00
019C00
038C00
030E00
030E00
070600
060700
060700
0E0300
0C0380
1C0380
1FFFC0
1FFFC0
3801C0
3800E0
3000E0
7000E0
700070
600070
E00070
ENDCHAR
STARTCHAR 00C2
ENCODING 194
SWIDTH 690 0
DWIDTH 23 0
BBX 20 33 1 0
BITMAP
00F000
00F800
01DC00
038E00
070700
0E0700
000000
000000
007000
00F000
00F800
00F800
01D800
019C00
019C00
038C00
030E00
030E00
070600
060700
060700
0E0300
0C0380
1C0380
1FFFC0
1FFFC0
3801C0
3800E0
3000E0
7000E0
700070
600070
E00070
ENDCHAR
STARTCHAR 00C3
ENCODING 195
SWIDTH 690 0
DWIDTH 23 0
BBX 20 32 1 0
BITMAP
078000
07C380
0E7300
0C3F00
0C0E00
000000
000000
007000
00F000
00F800
00F800
01D800
019C00
019C00
038C00
030E00
030E00
070600
060700
060700
0E0300
0C0380
1C0380
1FFFC0
1FFFC0
3801C0
3800E0
3000E0
7000E0
700070
600070
E00070
ENDCHAR
STARTCHAR 00C4
ENCODING 196
SWIDTH 690 0
DWIDTH 23 0
BBX 20 32 1 0
BITMAP
030E00
030E00
030E00
030E00
000000
000000
000000
007000
00F000
00F800
00F800
01D800
019C00
019C00
038C00
030E00
030E00
070600
060700
060700
0E0300
0C0380
1C0380
1FFFC0
1FFFC0
3801C0
3800E0
3000E0
7000E0
700070
600070
E00070
ENDCHAR
STARTCHAR 00C5
ENCODING 197
SWIDTH 690 0
DWIDTH 23 0
BBX 20 35 1 0
BITMAP
00F000
01F800
018C00
030400
030600
030400
018C00
01F800
00F000
000000
007000
00F000
00F800
00F800
01D800
019C00
019C00
038C00
030E00
030E00
070600
060700
060700
0E0300
0C0380
1C0380
1FFFC0
1FFFC0
3801C0
3800E0
3000E0
7000E0
700070
600070
E00070
ENDCHAR
STARTCHAR 00C6
ENCODING 198
SWIDTH 840 0
DWIDTH 28 0
BBX 24 24 1 0
BITMAP
007FFF
00FFFF
00CC00
00CC00
01CC00
018C00
018C00
038C00
030C00
070C00
070FFE
060FFE
0E0C00
0E0C00
0C0C00
1FFC00
1FFC00
380C00
380C00
300C00
700C00
700C00
600FFF
E00FFF
ENDCHAR
STARTCHAR 00C7
ENCODING 199
SWIDTH 630 0
DWIDTH 21 0
BBX 17 32 1 -7
BITMAP
00FF00
07FF80
0F0180
1E0000
380000
380000
700000
700000
700000
600000
E00000
E00000
E00000
E00000
E00000
600000
700000
700000
700000
380000
3C0000
1E0000
0F8380
07FF80
00FF00
001800
001C00
000C00
001C00
003C00
0FF800
07F000
ENDCHAR
STARTCHAR 00C8
ENCODING 200
SWIDTH 600 0
DWIDTH 20 0
BBX 14 33 3 0
BITMAP
0E00
0E00
0700
0380
0380
01C0
0000
0000
0000
FFFC
FFFC
E000
E000
E000
E000
E000
E000
E000
E000
FFFC
FFFC
E000
E000
E000
E000
E000
E000
E000
E000
E000
E000
FFFC
FFFC
ENDCHAR
STARTCHAR 00C9
ENCODING 201
SWIDTH 600 0
DWIDTH 20 0
BBX 14 33 3 0
BITMAP
00E0
01E0
01C0
0380
0700
0600
0000
0000
0000
FFFC
FFFC
E000
E000
E000
E000
E000
E000
E000
E000
FFFC
FFFC
E000
E000
E000
E000
E000
E000
E000
E000
E000
E000
FFFC
FFFC
ENDCHAR
STARTCHAR 00CA
ENCODING 202
SWIDTH 600 0
DWIDTH 20 0
BBX 14 33 3 0
BITMAP
0780
0FC0
0CE0
1C70
3838
7038
0000
0000
0000
FFFC
FFFC
E000
E000
E000
E000
E000
E000
E000
E000
FFFC
FFFC
E000
E000
E000
E000
E000
E000
E000
E000
E000
E000
FFFC
FFFC
ENDCHAR
STARTCHAR 00CB
ENCODING 203
SWIDTH 600 0
DWIDTH 20 0
BBX 14 32 3 0
BITMAP
1870
1870
1870
1870
0000
0000
0000
0000
FFFC
FFFC
E000
E000
E000
E000
E000
E000
E000
E000
FFFC
FFFC
E000
E000
E000
E000
E000
E000
E000
E000
E000
E000
FFFC
FFFC
ENDCHAR
STARTCHAR 00CC
ENCODING 204
SWIDTH 330 0
DWIDTH 11 0
BBX 7 33 0 0
BITMAP
E0
70
70
38
1C
0C
00
00
0E
0E
0E
0E
0E
0E
0E
0E
0E
0E
0E
0E
0E
0E
0E
0E
0E
0E
0E
0E
0E
0E
0E
0E
0E
ENDCHAR
STARTCHAR 00CD
ENCODING 205
SWIDTH 330 0
DWIDTH 11 0
BBX 7 33 4 0
BITMAP
0C
1E
38
38
70
E0
00
00
E0
E0
E0
E0
E0
E0
E0
E0
E0
E0
E0
E0
E0
E0
E0
E0
E0
E0
E0
E0
E0
E0
E0
E0
E0
ENDCHAR
STARTCHAR 00CE
ENCODING 206
SWIDTH 330 0
DWIDTH 11 0
BBX 12 33 -1 0
BITMAP
0F00
0F80
1DC0
38E0
7070
E070
0000
0000
0700
0700
0700
0700
0700
0700
0700
0700
0700
0700
0700
0700
0700
0700
0700
0700
0700
0700
0700
0700
0700
0700
0700
0700
0700
ENDCHAR
STARTCHAR 00CF
ENCODING 207
SWIDTH 330 0
DWIDTH 11 0
BBX 9 32 1 0
BITMAP
C180
C180
C180
C180
0000
0000
0000
1C00
1C00
1C00
1C00
1C00
1C00
1C00
1C00
1C00
1C00
1C00
1C00
1C00
1C00
1C00
1C00
1C00
1C00
1C00
1C00
1C00
1C00
1C00
1C00
1C00
ENDCHAR
STARTCHAR 00D0
ENCODING 208
SWIDTH 750 0
DWIDTH 25 0
BBX 22 25 1 0
BITMAP
07FE00
0FFF80
0E03E0
0E00F0
0E0070
0E0038
0E0018
0E001C
0E001C
0E000C
0E000C
FFF80C
FFF80C
0E000C
0E000C
0E001C
0E001C
0E001C
0E0018
0E0038
0E0070
0E00F0
0E03E0
0FFF80
0FFC00
ENDCHAR
STARTCHAR 00D1
ENCODING 209
SWIDTH 690 0
DWIDTH 23 0
BBX 18 32 3 0
BITMAP
0E0000
1F8600
19C600
387E00
383C00
000000
000000
E001C0
F001C0
F001C0
F801C0
F801C0
FC01C0
EE01C0
EE01C0
E701C0
E301C0
E381C0
E181C0
E1C1C0
E0E1C0
E061C0
E071C0
E031C0
E039C0
E01DC0
E01DC0
E00FC0
E007C0
E007C0
E003C0
E003C0
ENDCHAR
STARTCHAR 00D2
ENCODING 210
SWIDTH 720 0
DWIDTH 24 0
BBX 22 33 1 0
BITMAP
018000
01C000
00E000
007000
007000
003800
000000
000000
00FE00
07FF80
0F03C0
1C00E0
380070
380038
700038
700018
70001C
60001C
E0001C
E0001C
E0001C
E0001C
E0001C
60001C
60001C
700018
700038
380038
380070
1C00E0
0F03C0
07FF80
00FE00
ENDCHAR
STARTCHAR 00D3
ENCODING 211
SWIDTH 720 0
DWIDTH 24 0
BBX 22 33 1 0
BITMAP
000700
000F00
000E00
001C00
003800
003000
000000
000000
00FE00
07FF80
0F03C0
1C00E0
380070
380038
700038
700018
70001C
60001C
E0001C
E0001C
E0001C
E0001C
E0001C
60001C
60001C
700018
700038
380038
380070
1C00E0
0F03C0
07FF80
00FE00
ENDCHAR
STARTCHAR 00D4
ENCODING 212
SWIDTH 720 0
DWIDTH 24 0
BBX 22 33 1 0
BITMAP
007800
00FC00
00CE00
01C700
038700
070380
000000
000000
00FE00
07FF80
0F03C0
1C00E0
380070
380038
700038
700018
70001C
60001C
E0001C
E0001C
E0001C
E0001C
E0001C
60001C
60001C
700018
700038
380038
380070
1C00E0
0F03C0
07FF80
00FE00
ENDCHAR
STARTCHAR 00D5
ENCODING 213
SWIDTH 720 0
DWIDTH 24 0
BBX 22 32 1 0
BITMAP
03C000
07E180
067980
061F80
060700
000000
000000
00FE00
07FF80
0F03C0
1C00E0
380070
380038
700038
700018
70001C
60001C
E0001C
E0001C
E0001C
E0001C
E0001C
60001C
60001C
700018
700038
380038
380070
1C00E0
0F03C0
07FF80
00FE00
ENDCHAR
STARTCHAR 00D6
ENCODING 214
SWIDTH 720 0
DWIDTH 24 0
BBX 22 32 1 0
BITMAP
038700
038700
038700
038700
000000
000000
000000
00FE00
07FF80
0F03C0
1C00E0
380070
380038
700038
700018
70001C
60001C
E0001C
E0001C
E0001C
E0001C
E0001C
60001C
60001C
700018
700038
380038
380070
1C00E0
0F03C0
07FF80
00FE00
ENDCHAR
STARTCHAR 00D7
ENCODING 215
SWIDTH 1020 0
DWIDTH 34 0
BBX 17 18 2 1
BITMAP
000100
C00380
E00780
700F00
381E00
1C3C00
0E7800
07F000
03E000
03C000
07E000
0F7000
1E3800
3C1C00
780E00
F00700
E00380
400100
ENDCHAR
STARTCHAR 00D8
ENCODING 216
SWIDTH 750 0
DWIDTH 25 0
BBX 21 25 2 0
BITMAP
01FC60
07FFE0
1E07C0
3C01C0
7003E0
700770
E00770
E00E30
E00C38
E01C38
C03838
C03038
C07038
C0E038
C0E038
C1C038
E38038
E38030
670070
7E0070
7E00E0
3C01C0
3E07C0
3FFF00
71FC00
ENDCHAR
STARTCHAR 00D9
ENCODING 217
SWIDTH 660 0
DWIDTH 22 0
BBX 17 33 3 0
BITMAP
070000
070000
038000
01C000
01C000
00E000
000000
000000
C00380
C00380
C00380
C00380
C00380
C00380
C00380
C00380
C00380
C00380
C00380
C00380
C00380
C00380
C00380
C00380
C00380
C00380
C00380
E00380
E00700
700700
781E00
3FFC00
07F000
ENDCHAR
STARTCHAR 00DA
ENCODING 218
SWIDTH 660 0
DWIDTH 22 0
BBX 17 33 3 0
BITMAP
007000
00F000
00E000
01C000
038000
030000
000000
000000
C00380
C00380
C00380
C00380
C00380
C00380
C00380
C00380
C00380
C00380
C00380
C00380
C00380
C00380
C00380
C00380
C00380
C00380
C00380
E00380
E00700
700700
781E00
3FFC00
07F000
ENDCHAR
STARTCHAR 00DB
ENCODING 219
SWIDTH 660 0
DWIDTH 22 0
BBX 17 33 3 0
BITMAP
03C000
07E000
067000
0E3800
1C3800
381C00
000000
000000
C00380
C00380
C00380
C00380
C00380
C00380
C00380
C00380
C00380
C00380
C00380
C00380
C00380
C00380
C00380
C00380
C00380
C00380
C00380
E00380
E00700
700700
781E00
3FFC00
07F000
ENDCHAR
STARTCHAR 00DC
ENCODING 220
SWIDTH 660 0
DWIDTH 22 0
BBX 17 32 3 0
BITMAP
0C3800
0C3800
0C3800
0C3800
000000
000000
000000
C00380
C00380
C00380
C00380
C00380
C00380
C00380
C00380
C00380
C00380
C00380
C00380
C00380
C00380
C00380
C00380
C00380
C00380
C00380
E00380
E00700
700700
781E00
3FFC00
07F000
ENDCHAR
STARTCHAR 00DD
ENCODING 221
SWIDTH 660 0
DWIDTH 22 0
BBX 20 33 1 0
BITMAP
001C00
003800
007800
007000
00E000
01C000
000000
000000
F00070
7000E0
7800E0
3801C0
1C01C0
1C0380
0E0700
0E0700
070E00
038E00
039C00
01D800
01F800
00F000
007000
007000
007000
007000
007000
007000
007000
007000
007000
007000
007000
ENDCHAR
STARTCHAR 00DE
ENCODING 222
SWIDTH 630 0
DWIDTH 21 0
BBX 16 25 3 0
BITMAP
E000
E000
E000
E000
FFE0
FFF8
E03E
E00E
E007
E007
E003
E003
E007
E007
E007
E00E
E03C
FFF8
FFE0
E000
E000
E000
E000
E000
C000
ENDCHAR
STARTCHAR 00DF
ENCODING 223
SWIDTH 600 0
DWIDTH 20 0
BBX 16 26 3 0
BITMAP
1FE0
3FF8
703C
E00C
E00E
E00C
C01C
C01C
C038
C070
C070
C0E0
C0E0
C070
C078
C03C
C01C
C00E
C006
C007
C007
C007
C007
C41E
C7FC
C7F8
ENDCHAR
STARTCHAR 00E0
ENCODING 224
SWIDTH 540 0
DWIDTH 18 0
BBX 14 26 2 0
BITMAP
3C00
1C00
0E00
0700
0700
0380
0000
0000
3FE0
7FF0
6038
0018
001C
001C
001C
07FC
3FFC
781C
E01C
E01C
C01C
C03C
E03C
F0FC
7FDC
3F1C
ENDCHAR
STARTCHAR 00E1
ENCODING 225
SWIDTH 540 0
DWIDTH 18 0
BBX 14 26 2 0
BITMAP
0070
00E0
01C0
01C0
0380
0700
0000
0000
3FE0
7FF0
6038
0018
001C
001C
001C
07FC
3FFC
781C
E01C
E01C
C01C
C03C
E03C
F0FC
7FDC
3F1C
ENDCHAR
STARTCHAR 00E2
ENCODING 226
SWIDTH 540 0
DWIDTH 18 0
BBX 14 26 2 0
BITMAP
0780
0FC0
1CE0
3870
3838
7038
0000
0000
3FE0
7FF0
6038
0018
001C
001C
001C
07FC
3FFC
781C
E01C
E01C
C01C
C03C
E03C
F0FC
7FDC
3F1C
ENDCHAR
STARTCHAR 00E3
ENCODING 227
SWIDTH 540 0
DWIDTH 18 0
BBX 14 25 2 0
BITMAP
3800
7E18
6798
61F8
6070
0000
0000
3FE0
7FF0
6038
0018
001C
001C
001C
07FC
3FFC
781C
E01C
E01C
C01C
C03C
E03C
F0FC
7FDC
3F1C
ENDCHAR
STARTCHAR 00E4
ENCODING 228
SWIDTH 540 0
DWIDTH 18 0
BBX 14 25 2 0
BITMAP
3870
3870
3870
3870
0000
0000
0000
3FE0
7FF0
6038
0018
001C
001C
001C
07FC
3FFC
781C
E01C
E01C
C01C
C03C
E03C
F0FC
7FDC
3F1C
ENDCHAR
STARTCHAR 00E5
ENCODING 229
SWIDTH 540 0
DWIDTH 18 0
BBX 14 27 2 0
BITMAP
0780
0FC0
1C60
1860
1020
1820
0860
0FC0
0000
3FE0
7FF0
6038
0018
001C
001C
001C
07FC
3FFC
781C
E01C
E01C
C01C
C03C
E03C
F0FC
7FDC
3F1C
ENDCHAR
STARTCHAR 00E6
ENCODING 230
SWIDTH 900 0
DWIDTH 30 0
BBX 26 18 2 0
BITMAP
1FE0FC00
7FF3FE00
603F8700
001E0380
001E0180
001C01C0
001C01C0
07FC01C0
3FFFFFC0
781FFFC0
E01C0000
E01C0000
C01C0000
C03E0000
E03E0000
F0F78180
7FE3FF80
1F80FF00
ENDCHAR
STARTCHAR 00E7
ENCODING 231
SWIDTH 510 0
DWIDTH 17 0
BBX 13 25 1 -7
BITMAP
07F8
1FF8
3C08
3800
7000
7000
6000
E000
E000
E000
E000
6000
7000
7000
3800
3C08
1FF8
03F8
0060
0060
0070
0070
20E0
3FE0
1F80
ENDCHAR
STARTCHAR 00E8
ENCODING 232
SWIDTH 540 0
DWIDTH 18 0
BBX 15 26 1 0
BITMAP
0F00
0700
0380
01C0
00C0
00E0
0000
0000
07E0
1FF8
3C3C
780C
700E
6006
6006
E006
FFFE
FFFE
E000
6000
6000
7000
3800
3C0C
1FFC
07F8
ENDCHAR
STARTCHAR 00E9
ENCODING 233
SWIDTH 540 0
DWIDTH 18 0
BBX 15 26 1 0
BITMAP
0070
00E0
01C0
01C0
0380
0700
0000
0000
07E0
1FF8
3C3C
780C
700E
6006
6006
E006
FFFE
FFFE
E000
6000
6000
7000
3800
3C0C
1FFC
07F8
ENDCHAR
STARTCHAR 00EA
ENCODING 234
SWIDTH 540 0
DWIDTH 18 0
BBX 15 26 1 0
BITMAP
03C0
07E0
0E70
0E38
1C1C
381C
0000
0000
07E0
1FF8
3C3C
780C
700E
6006
6006
E006
FFFE
FFFE
E000
6000
6000
7000
3800
3C0C
1FFC
07F8
ENDCHAR
STARTCHAR 00EB
ENCODING 235
SWIDTH 540 0
DWIDTH 18 0
BBX 15 25 1 0
BITMAP
1C38
1C38
1C38
1C38
0000
0000
0000
07E0
1FF8
3C3C
780C
700E
6006
6006
E006
FFFE
FFFE
E000
6000
6000
7000
3800
3C0C
1FFC
07F8
ENDCHAR
STARTCHAR 00EC
ENCODING 236
SWIDTH 330 0
DWIDTH 11 0
BBX 7 26 0 0
BITMAP
E0
70
38
38
1C
0E
00
00
0E
0E
0E
0E
0E
0E
0E
0E
0E
0E
0E
0E
0E
0E
0E
0E
0E
0E
ENDCHAR
STARTCHAR 00ED
ENCODING 237
SWIDTH 330 0
DWIDTH 11 0
BBX 7 26 4 0
BITMAP
0E
1C
38
38
70
E0
00
00
E0
E0
E0
E0
E0
E0
E0
E0
E0
E0
E0
E0
E0
E0
E0
E0
E0
E0
ENDCHAR
STARTCHAR 00EE
ENCODING 238
SWIDTH 300 0
DWIDTH 10 0
BBX 12 26 -1 0
BITMAP
0F00
1F80
39C0
38E0
7070
E070
0000
0000
0700
0700
0700
0700
0700
0700
0700
0700
0700
0700
0700
0700
0700
0700
0700
0700
0700
0700
ENDCHAR
STARTCHAR 00EF
ENCODING 239
SWIDTH 300 0
DWIDTH 10 0
BBX 9 25 1 0
BITMAP
C380
C380
C380
C380
0000
0000
0000
1C00
1C00
1C00
1C00
1C00
1C00
1C00
1C00
1C00
1C00
1C00
1C00
1C00
1C00
1C00
1C00
1C00
1C00
ENDCHAR
STARTCHAR 00F0
ENCODING 240
SWIDTH 570 0
DWIDTH 19 0
BBX 16 25 2 0
BITMAP
3E06
3FBE
03F8
03E0
1F70
3C38
2018
07DC
1FFC
383E
701E
E00E
E00E
C006
C007
C007
C007
C006
C006
E00E
E00E
701C
3838
1FF0
07C0
ENDCHAR
STARTCHAR 00F1
ENCODING 241
SWIDTH 570 0
DWIDTH 19 0
BBX 14 25 3 0
BITMAP
3800
7E18
E738
E3F0
C0F0
0000
0000
C7E0
CFF0
D838
F018
E01C
E01C
C01C
C01C
C01C
C01C
C01C
C01C
C01C
C01C
C01C
C01C
C01C
C01C
ENDCHAR
STARTCHAR 00F2
ENCODING 242
SWIDTH 570 0
DWIDTH 19 0
BBX 17 26 1 0
BITMAP
0E0000
0F0000
070000
038000
01C000
00C000
000000
000000
07E000
1FF800
3C1E00
380E00
700700
700700
600300
E00380
E00380
E00380
E00380
600300
600700
700700
380E00
3C1E00
1FFC00
07F000
ENDCHAR
STARTCHAR 00F3
ENCODING 243
SWIDTH 570 0
DWIDTH 19 0
BBX 17 26 1 0
BITMAP
003800
007800
007000
00E000
01C000
018000
000000
000000
07E000
1FF800
3C1E00
380E00
700700
700700
600300
E00380
E00380
E00380
E00380
600300
600700
700700
380E00
3C1E00
1FFC00
07F000
ENDCHAR
STARTCHAR 00F4
ENCODING 244
SWIDTH 570 0
DWIDTH 19 0
BBX 17 26 1 0
BITMAP
03E000
076000
077000
0E3800
1C1C00
380E00
000000
000000
07E000
1FF800
3C1E00
380E00
700700
700700
600300
E00380
E00380
E00380
E00380
600300
600700
700700
380E00
3C1E00
1FFC00
07F000
ENDCHAR
STARTCHAR 00F5
ENCODING 245
SWIDTH 570 0
DWIDTH 19 0
BBX 17 25 1 0
BITMAP
1E0000
1F8600
39CE00
30FC00
303C00
000000
000000
07E000
1FF800
3C1E00
380E00
700700
700700
600300
E00380
E00380
E00380
E00380
600300
600700
700700
380E00
3C1E00
1FFC00
07F000
ENDCHAR
STARTCHAR 00F6
ENCODING 246
SWIDTH 570 0
DWIDTH 19 0
BBX 17 25 1 0
BITMAP
0C1800
0C1800
0C1800
0C1800
000000
000000
000000
07E000
1FF800
3C1E00
380E00
700700
700700
600300
E00380
E00380
E00380
E00380
600300
600700
700700
380E00
3C1E00
1FFC00
07F000
ENDCHAR
STARTCHAR 00F7
ENCODING 247
SWIDTH 1020 0
DWIDTH 34 0
BBX 19 20 3 0
BITMAP
00E000
00E000
00E000
00E000
00E000
000000
000000
000000
000000
FFFFE0
FFFFE0
000000
000000
000000
000000
00E000
00E000
00E000
00E000
00E000
ENDCHAR
STARTCHAR 00F8
ENCODING 248
SWIDTH 570 0
DWIDTH 19 0
BBX 16 18 2 1
BITMAP
07E6
1FFC
383C
701C
E03E
E066
C0C7
C0C7
C187
C307
C307
C607
EC06
F80E
780E
383C
7FF8
EFE0
ENDCHAR
STARTCHAR 00F9
ENCODING 249
SWIDTH 570 0
DWIDTH 19 0
BBX 15 26 2 0
BITMAP
0E00
0700
0780
0380
01C0
00C0
0000
0000
E00E
E00E
E00E
E00E
E00E
E00E
E00E
E00E
E00E
E00E
E00E
E00E
E00E
601E
703E
787E
3FEE
1F8C
ENDCHAR
STARTCHAR 00FA
ENCODING 250
SWIDTH 570 0
DWIDTH 19 0
BBX 15 26 2 0
BITMAP
00E0
00E0
01C0
0380
0300
0700
0000
0000
E00E
E00E
E00E
E00E
E00E
E00E
E00E
E00E
E00E
E00E
E00E
E00E
E00E
601E
703E
787E
3FEE
1F8C
ENDCHAR
STARTCHAR 00FB
ENCODING 251
SWIDTH 570 0
DWIDTH 19 0
BBX 15 26 2 0
BITMAP
03C0
07E0
0E70
1C70
3838
381C
0000
0000
E00E
E00E
E00E
E00E
E00E
E00E
E00E
E00E
E00E
E00E
E00E
E00E
E00E
601E
703E
787E
3FEE
1F8C
ENDCHAR
STARTCHAR 00FC
ENCODING 252
SWIDTH 570 0
DWIDTH 19 0
BBX 15 25 2 0
BITMAP
1C30
1C30
1C30
1C30
0000
0000
0000
E00E
E00E
E00E
E00E
E00E
E00E
E00E
E00E
E00E
E00E
E00E
E00E
E00E
601E
703E
787E
3FEE
1F8C
ENDCHAR
STARTCHAR 00FD
ENCODING 253
SWIDTH 570 0
DWIDTH 19 0
BBX 16 33 1 -7
BITMAP
0070
00E0
01E0
01C0
0380
0300
0000
0000
E003
6007
7007
7006
300E
380C
181C
1818
1C18
0C38
0E30
0E70
0660
0760
07E0
03C0
03C0
0180
0380
0380
0300
0700
0600
0E00
0C00
ENDCHAR
STARTCHAR 00FE
ENCODING 254
SWIDTH 600 0
DWIDTH 20 0
BBX 15 32 3 -7
BITMAP
C000
C000
C000
C000
C000
C000
C000
C7E0
DFF0
F838
F01C
E00C
C00E
C00E
C00E
C00E
C00E
C00E
C00E
C00E
E00C
F01C
F838
DFF0
C7C0
C000
C000
C000
C000
C000
C000
C000
ENDCHAR
STARTCHAR 00FF
ENCODING 255
SWIDTH 570 0
DWIDTH 19 0
BBX 16 32 1 -7
BITMAP
0C38
0C38
0C38
0C38
0000
0000
0000
E003
6007
7007
7006
300E
380C
181C
1818
1C18
0C38
0E30
0E70
0660
0760
07E0
03C0
03C0
0180
0380
0380
0300
0700
0600
0E00
0C00
ENDCHAR
STARTCHAR 0100
ENCODING 256
SWIDTH 690 0
DWIDTH 23 0
BBX 20 31 1 0
BITMAP
0FFF00
0FFF00
000000
000000
000000
000000
007000
00F000
00F800
00F800
01D800
019C00
019C00
038C00
030E00
030E00
070600
060700
060700
0E0300
0C0380
1C0380
1FFFC0
1FFFC0
3801C0
3800E0
3000E0
7000E0
700070
600070
E00070
ENDCHAR
STARTCHAR 0101
ENCODING 257
SWIDTH 540 0
DWIDTH 18 0
BBX 14 24 2 0
BITMAP
7FF8
7FF8
0000
0000
0000
0000
3FE0
7FF0
6038
0018
001C
001C
001C
07FC
3FFC
781C
E01C
E01C
C01C
C03C
E03C
F0FC
7FDC
3F1C
ENDCHAR
STARTCHAR 0102
ENCODING 258
SWIDTH 510 0
DWIDTH 17 0
BBX 15 27 1 2
BITMAP
1870
07C0
0000
0380
0780
07C0
07C0
06C0
0EC0
0EE0
0CE0
0C60
1C60
1C70
1870
1870
3830
3FF8
3FF8
7038
7018
701C
701C
E01C
E00C
E00E
E00E
ENDCHAR
STARTCHAR 0103
ENCODING 259
SWIDTH 510 0
DWIDTH 17 0
BBX 13 22 2 1
BITMAP
3060
18C0
0F80
0000
0000
1F80
3FC0
70E0
6060
E070
0070
00F0
0FF0
3FF0
7870
E070
E070
C070
C0F0
E1F0
7F38
3E38
ENDCHAR
STARTCHAR 0104
ENCODING 260
SWIDTH 510 0
DWIDTH 17 0
BBX 15 29 1 -3
BITMAP
0380
0780
07C0
07C0
06C0
0EC0
0EE0
0CE0
0C60
1C60
1C70
1870
1870
3830
3FF8
3FF8
3038
7018
701C
701C
E01C
E00C
E00E
E00E
0018
0030
0030
0030
003E
ENDCHAR
STARTCHAR 0105
ENCODING 261
SWIDTH 510 0
DWIDTH 17 0
BBX 14 21 2 -3
BITMAP
1F80
3FC0
70E0
6060
E070
0070
00F0
0FF0
3FF0
7870
E070
E070
C070
C0F0
E1F0
7F78
3E38
0060
00C0
00C4
0078
ENDCHAR
STARTCHAR 0106
ENCODING 262
SWIDTH 510 0
DWIDTH 17 0
BBX 13 28 2 1
BITMAP
0380
0700
0C00
0000
0F80
1FE0
38E0
7070
6030
E038
E038
E000
E000
C000
C000
C000
C000
C000
C000
E000
E038
E038
E038
6030
7070
38E0
1FE0
0F80
ENDCHAR
STARTCHAR 0107
ENCODING 263
SWIDTH 510 0
DWIDTH 17 0
BBX 13 22 2 1
BITMAP
0180
0300
0600
0000
0000
0F80
3FC0
38E0
7070
6030
E000
E000
E000
E000
E000
E000
E038
6030
7070
38E0
3FE0
0F80
ENDCHAR
STARTCHAR 0108
ENCODING 264
SWIDTH 510 0
DWIDTH 17 0
BBX 13 28 2 1
BITMAP
0F00
1980
3060
0F80
1FC0
3FE0
78F0
7070
E030
E038
E038
E000
E000
C000
C000
C000
C000
C000
E000
E038
E038
E038
E030
7070
78F0
3FE0
1FC0
0F80
ENDCHAR
STARTCHAR 0109
ENCODING 265
SWIDTH 510 0
DWIDTH 17 0
BBX 13 22 2 1
BITMAP
0700
0D80
30C0
0000
0000
0F80
3FC0
38E0
7070
6030
E000
E000
E000
E000
E000
E000
E038
6030
7070
38E0
3FE0
0F80
ENDCHAR
STARTCHAR 010A
ENCODING 266
SWIDTH 510 0
DWIDTH 17 0
BBX 13 28 2 1
BITMAP
0600
0700
0600
0000
0F80
1FE0
38E0
7070
6030
E038
E038
E000
E000
C000
C000
C000
C000
C000
C000
E000
E038
E038
E038
6030
7070
38E0
1FE0
0F80
ENDCHAR
STARTCHAR 010B
ENCODING 267
SWIDTH 510 0
DWIDTH 17 0
BBX 13 22 2 1
BITMAP
0600
0700
0600
0000
0000
0F80
3FC0
38E0
7070
6030
E000
E000
E000
E000
E000
E000
E038
6030
7070
38E0
3FE0
0F80
ENDCHAR
STARTCHAR 010C
ENCODING 268
SWIDTH 510 0
DWIDTH 17 0
BBX 13 28 2 1
BITMAP
30C0
0D80
0700
0000
0F80
1FE0
38E0
7070
6030
E038
E038
E000
E000
C000
C000
C000
C000
C000
C000
E000
E038
E038
E038
6030
7070
38E0
1FE0
0F80
ENDCHAR
STARTCHAR 010D
ENCODING 269
SWIDTH 510 0
DWIDTH 17 0
BBX 13 22 2 1
BITMAP
3060
1D80
0F00
0000
0000
0F80
3FC0
38E0
7070
6030
E000
E000
E000
E000
E000
E000
E038
6030
7070
38E0
3FE0
0F80
ENDCHAR
STARTCHAR 010E
ENCODING 270
SWIDTH 510 0
DWIDTH 17 0
BBX 13 27 2 2
BITMAP
31C0
1B00
0E00
0000
FF00
FF80
E1C0
E0E0
E070
E030
E038
E038
E038
E038
E038
E038
E038
E038
E038
E038
E030
E070
E070
E0E0
E1C0
FF80
FF00
ENDCHAR
STARTCHAR 010F
ENCODING 271
SWIDTH 510 0
DWIDTH 17 0
BBX 15 26 1 1
BITMAP
001E
001E
00DE
00DE
00C6
00C4
00CC
00D8
00C0
1CC0
3FC0
73C0
61C0
E0C0
E0C0
E0C0
C0C0
C0C0
C0C0
E0C0
E0C0
E0C0
61C0
73C0
3FC0
1E00
ENDCHAR
STARTCHAR 0111
ENCODING 273
SWIDTH 510 0
DWIDTH 17 0
BBX 14 24 2 1
BITMAP
0030
0030
0030
03FC
0030
0030
0030
1E30
3FB0
71F0
E0F0
E070
C070
C070
C030
C030
C030
C070
C070
E070
E0F0
71B0
3FB0
1E00
ENDCHAR
STARTCHAR 0112
ENCODING 274
SWIDTH 600 0
DWIDTH 20 0
BBX 14 31 3 0
BITMAP
7FF8
7FF8
0000
0000
0000
0000
0000
FFFC
FFFC
E000
E000
E000
E000
E000
E000
E000
E000
FFFC
FFFC
E000
E000
E000
E000
E000
E000
E000
E000
E000
E000
FFFC
FFFC
ENDCHAR
STARTCHAR 0113
ENCODING 275
SWIDTH 540 0
DWIDTH 18 0
BBX 15 24 1 0
BITMAP
3FFC
3FFC
0000
0000
0000
0000
07E0
1FF8
3C3C
780C
700E
6006
6006
E006
FFFE
FFFE
E000
6000
6000
7000
3800
3C0C
1FFC
07F8
ENDCHAR
STARTCHAR 0118
ENCODING 280
SWIDTH 510 0
DWIDTH 17 0
BBX 13 28 2 -3
BITMAP
FFF0
FFF0
FFF0
E000
E000
E000
E000
E000
E000
E000
FFE0
FFE0
E000
E000
E000
E000
E000
E000
E000
E000
E000
FFF8
FFF8
FFF8
0600
0C00
0800
0F80
ENDCHAR
STARTCHAR 0119
ENCODING 281
SWIDTH 510 0
DWIDTH 17 0
BBX 13 21 2 -3
BITMAP
0F80
3FC0
38E0
7070
6030
E030
E030
FFF8
FFF8
C000
E000
E038
6030
7070
3DE0
1FC0
0700
0C00
1800
1880
0F00
ENDCHAR
STARTCHAR 011A
ENCODING 282
SWIDTH 600 0
DWIDTH 20 0
BBX 14 32 3 0
BITMAP
7838
3870
1CE0
0EC0
07C0
0000
0000
0000
FFFC
FFFC
E000
E000
E000
E000
E000
E000
E000
E000
FFFC
FFFC
E000
E000
E000
E000
E000
E000
E000
E000
E000
E000
FFFC
FFFC
ENDCHAR
STARTCHAR 011B
ENCODING 283
SWIDTH 540 0
DWIDTH 18 0
BBX 15 26 1 0
BITMAP
180C
3C1C
1C38
0E70
0760
03C0
0000
0000
07E0
1FF8
3C3C
780C
700E
6006
6006
E006
FFFE
FFFE
E000
6000
6000
7000
3800
3C0C
1FFC
07F8
ENDCHAR
STARTCHAR 011C
ENCODING 284
SWIDTH 510 0
DWIDTH 17 0
BBX 13 28 2 1
BITMAP
0F00
1980
3060
0F80
1FC0
3FE0
78F0
7070
E030
E038
E038
E000
E000
C000
C000
C000
C1F8
C1F8
C018
E038
E038
E038
E038
7078
78F8
3FD8
3F98
0F00
ENDCHAR
STARTCHAR 011D
ENCODING 285
SWIDTH 510 0
DWIDTH 17 0
BBX 12 26 2 -3
BITMAP
0F00
1F80
30C0
0000
0000
1F00
3FB0
70F0
E070
E070
C030
C030
C030
C030
E070
E070
70F0
3FB0
1F30
0030
0030
E030
E070
70E0
3FE0
1F80
ENDCHAR
STARTCHAR 0124
ENCODING 292
SWIDTH 510 0
DWIDTH 17 0
BBX 13 28 2 1
BITMAP
0F00
1980
3060
0000
E038
E038
E038
E038
E038
E038
E038
E038
E038
E038
FFF8
FFF8
FFF8
E038
E038
E038
E038
E038
E038
E038
E038
E038
E038
E038
ENDCHAR
STARTCHAR 0125
ENCODING 293
SWIDTH 510 0
DWIDTH 17 0
BBX 12 27 2 2
BITMAP
0F00
1980
3060
0000
E000
E000
E000
E000
E000
E000
E000
E7C0
EFE0
F870
F070
E030
E030
E030
E030
E030
E030
E030
E030
E030
E030
E030
E030
ENDCHAR
STARTCHAR 0127
ENCODING 295
SWIDTH 1020 0
DWIDTH 34 0
BBX 19 26 1 0
BITMAP
0E0000
0E0000
0E0000
0E0000
0E0000
FFF800
FFF800
0E0000
0E0000
0E0000
0E3E00
0EFF80
0FC3C0
0F81C0
0F00C0
0E00C0
0E00E0
0E00E0
0E00E0
0E00E0
0E00E0
0E00E0
0E00E0
0E00E0
0E00E0
0E00E0
ENDCHAR
STARTCHAR 0128
ENCODING 296
SWIDTH 330 0
DWIDTH 11 0
BBX 13 32 -1 0
BITMAP
7800
7C38
E738
C3F0
C0E0
0000
0000
0700
0700
0700
0700
0700
0700
0700
0700
0700
0700
0700
0700
0700
0700
0700
0700
0700
0700
0700
0700
0700
0700
0700
0700
0700
ENDCHAR
STARTCHAR 0129
ENCODING 297
SWIDTH 330 0
DWIDTH 11 0
BBX 13 25 -1 0
BITMAP
7800
FC38
E730
C3F0
C0E0
0000
0000
0700
0700
0700
0700
0700
0700
0700
0700
0700
0700
0700
0700
0700
0700
0700
0700
0700
0700
ENDCHAR
STARTCHAR 012A
ENCODING 298
SWIDTH 330 0
DWIDTH 11 0
BBX 11 31 0 0
BITMAP
FFE0
FFE0
0000
0000
0000
0000
0E00
0E00
0E00
0E00
0E00
0E00
0E00
0E00
0E00
0E00
0E00
0E00
0E00
0E00
0E00
0E00
0E00
0E00
0E00
0E00
0E00
0E00
0E00
0E00
0E00
ENDCHAR
STARTCHAR 012B
ENCODING 299
SWIDTH 300 0
DWIDTH 10 0
BBX 12 24 -1 0
BITMAP
FFF0
FFF0
0000
0000
0000
0000
0700
0700
0700
0700
0700
0700
0700
0700
0700
0700
0700
0700
0700
0700
0700
0700
0700
0700
ENDCHAR
STARTCHAR 0131
ENCODING 305
SWIDTH 330 0
DWIDTH 11 0
BBX 3 18 4 0
BITMAP
E0
E0
E0
E0
E0
E0
E0
E0
E0
E0
E0
E0
E0
E0
E0
E0
E0
E0
ENDCHAR
STARTCHAR 0134
ENCODING 308
SWIDTH 510 0
DWIDTH 17 0
BBX 15 28 1 1
BITMAP
0078
00CC
0106
0000
0030
0030
0030
0030
0030
0030
0030
0030
0030
0030
0030
0030
0030
0030
0030
0030
E030
6030
7070
7070
78F0
3FE0
3FE0
0F80
ENDCHAR
STARTCHAR 0135
ENCODING 309
SWIDTH 510 0
DWIDTH 17 0
BBX 10 26 3 -3
BITMAP
0F00
1F80
30C0
0000
0000
0000
0600
0600
0600
0600
0600
0600
0600
0600
0600
0600
0600
0600
0600
0600
0600
0600
0600
0600
FE00
FC00
ENDCHAR
STARTCHAR 0139
ENCODING 313
SWIDTH 510 0
DWIDTH 17 0
BBX 13 28 2 1
BITMAP
0380
0700
0C00
0000
E000
E000
E000
E000
E000
E000
E000
E000
E000
E000
E000
E000
E000
E000
E000
E000
E000
E000
E000
E000
E000
FFF8
FFF8
FFF8
ENDCHAR
STARTCHAR 013A
ENCODING 314
SWIDTH 510 0
DWIDTH 17 0
BBX 5 27 6 2
BITMAP
38
70
C0
00
70
70
70
70
70
70
70
70
70
70
70
70
70
70
70
70
70
70
70
70
70
70
70
ENDCHAR
STARTCHAR 013D
ENCODING 317
SWIDTH 510 0
DWIDTH 17 0
BBX 13 26 2 1
BITMAP
03C0
03C0
E3C0
E3C0
E0C0
E180
E180
E300
E000
E000
E000
E000
E000
E000
E000
E000
E000
E000
E000
E000
E000
E000
E000
FFF8
FFF8
FFF8
ENDCHAR
STARTCHAR 013E
ENCODING 318
SWIDTH 510 0
DWIDTH 17 0
BBX 8 25 7 2
BITMAP
0F
0F
EF
EF
E3
E6
E6
EC
E0
E0
E0
E0
E0
E0
E0
E0
E0
E0
E0
E0
E0
E0
E0
E0
E0
ENDCHAR
STARTCHAR 0141
ENCODING 321
SWIDTH 660 0
DWIDTH 22 0
BBX 19 25 1 0
BITMAP
0E0000
0E0000
0E0000
0E0000
0E0000
0E0000
0E0000
0E0000
0E1800
0E7800
0FE000
0F8000
3E0000
FE0000
CE0000
0E0000
0E0000
0E0000
0E0000
0E0000
0E0000
0E0000
0E0000
0FFFE0
0FFFE0
ENDCHAR
STARTCHAR 0142
ENCODING 322
SWIDTH 450 0
DWIDTH 15 0
BBX 13 26 1 0
BITMAP
0300
0700
0700
0700
0700
0700
0700
0700
0700
0738
07F8
07C0
1F00
7F00
E700
0700
0700
0700
0700
0700
0700
0700
0700
0700
0700
0700
ENDCHAR
STARTCHAR 0143
ENCODING 323
SWIDTH 510 0
DWIDTH 17 0
BBX 13 27 2 2
BITMAP
0380
0700
0C00
0000
F038
F038
F038
F838
F838
F838
FC38
EC38
EC38
E638
E638
E738
E338
E338
E3B8
E1B8
E1B8
E1F8
E0F8
E0F8
E0F8
E078
E078
ENDCHAR
STARTCHAR 0144
ENCODING 324
SWIDTH 510 0
DWIDTH 17 0
BBX 12 21 2 2
BITMAP
0180
0300
0600
0000
0000
07C0
EFE0
F870
F070
E030
E030
E030
E030
E030
E030
E030
E030
E030
E030
E030
E030
ENDCHAR
STARTCHAR 0147
ENCODING 327
SWIDTH 510 0
DWIDTH 17 0
BBX 13 27 2 2
BITMAP
30C0
0D80
0700
0000
F038
F038
F038
F838
F838
F838
FC38
EC38
EC38
E638
E638
E738
E338
E338
E3B8
E1B8
E1B8
E1F8
E0F8
E0F8
E0F8
E078
E078
ENDCHAR
STARTCHAR 0148
ENCODING 328
SWIDTH 510 0
DWIDTH 17 0
BBX 12 21 2 2
BITMAP
3060
1D80
0F00
0000
0000
07C0
EFE0
F870
F070
E030
E030
E030
E030
E030
E030
E030
E030
E030
E030
E030
E030
ENDCHAR
STARTCHAR 014B
ENCODING 331
SWIDTH 570 0
DWIDTH 19 0
BBX 14 26 3 -8
BITMAP
C7E0
CFF0
D878
F018
E01C
E01C
C01C
C01C
C01C
C01C
C01C
C01C
C01C
C01C
C01C
C01C
C01C
C01C
001C
001C
001C
001C
001C
0038
03F8
03E0
ENDCHAR
STARTCHAR 014C
ENCODING 332
SWIDTH 720 0
DWIDTH 24 0
BBX 22 31 1 0
BITMAP
07FF80
07FF80
000000
000000
000000
000000
00FE00
07FF80
0F03C0
1C00E0
380070
380038
700038
700018
70001C
60001C
E0001C
E0001C
E0001C
E0001C
E0001C
60001C
60001C
700018
700038
380038
380070
1C00E0
0F03C0
07FF80
00FE00
ENDCHAR
STARTCHAR 014D
ENCODING 333
SWIDTH 570 0
DWIDTH 19 0
BBX 17 24 1 0
BITMAP
1FFC00
1FFC00
000000
000000
000000
000000
07E000
1FF800
3C1E00
380E00
700700
700700
600300
E00380
E00380
E00380
E00380
600300
600700
700700
380E00
3C1E00
1FFC00
07F000
ENDCHAR
STARTCHAR 0150
ENCODING 336
SWIDTH 510 0
DWIDTH 17 0
BBX 13 28 2 1
BITMAP
0660
0CC0
1980
0000
0F80
1FC0
38E0
7070
6070
E030
E038
E038
C038
C038
C038
C038
C038
C038
C038
C038
E038
E038
E030
6070
7070
38E0
1FC0
0F80
ENDCHAR
STARTCHAR 0151
ENCODING 337
SWIDTH 510 0
DWIDTH 17 0
BBX 13 22 2 1
BITMAP
0770
0EE0
1980
0000
0000
0F80
3FC0
38E0
7070
6070
E030
E030
E038
E038
E038
E038
E030
6070
7070
38E0
3FC0
0F80
ENDCHAR
STARTCHAR 0152
ENCODING 338
SWIDTH 870 0
DWIDTH 29 0
BBX 25 25 1 0
BITMAP
00FFFF80
03FFFF80
0F860000
1E060000
1C060000
38060000
70060000
70060000
70060000
60060000
E0060000
E007FF00
E007FF00
E0060000
E0060000
60060000
70060000
70060000
70060000
38060000
1C060000
1E060000
0F860000
03FFFF80
00FFFF80
ENDCHAR
STARTCHAR 0153
ENCODING 339
SWIDTH 930 0
DWIDTH 31 0
BBX 29 18 1 0
BITMAP
07E03F00
0FF87FC0
1C3CE0E0
380F8070
70078030
60070030
60070038
E0030038
E003FFF8
E003FFF8
E0030000
60070000
60078000
70078000
380FC000
3C3CF030
1FF87FF0
07E01FC0
ENDCHAR
STARTCHAR 0154
ENCODING 340
SWIDTH 510 0
DWIDTH 17 0
BBX 13 27 2 2
BITMAP
0380
0700
0C00
0000
FF80
FFE0
E0F0
E038
E038
E038
E038
E038
E070
E0F0
FFE0
FF80
E380
E180
E1C0
E1C0
E0E0
E0E0
E070
E070
E038
E038
E038
ENDCHAR
STARTCHAR 0155
ENCODING 341
SWIDTH 510 0
DWIDTH 17 0
BBX 9 21 5 2
BITMAP
0C00
1800
3000
0000
0000
C180
C780
CF80
DC00
F800
F000
E000
C000
C000
C000
C000
C000
C000
C000
C000
C000
ENDCHAR
STARTCHAR 0158
ENCODING 344
SWIDTH 510 0
DWIDTH 17 0
BBX 13 27 2 2
BITMAP
31C0
1B00
0E00
0000
FF80
FFE0
E0F0
E038
E038
E038
E038
E038
E070
E0F0
FFE0
FF80
E380
E180
E1C0
E1C0
E0E0
E0E0
E070
E070
E038
E038
E038
ENDCHAR
STARTCHAR 0159
ENCODING 345
SWIDTH 510 0
DWIDTH 17 0
BBX 10 21 4 2
BITMAP
C180
7600
3C00
0000
0000
60C0
63C0
67C0
6E00
7C00
7800
7000
6000
6000
6000
6000
6000
6000
6000
6000
6000
ENDCHAR
STARTCHAR 015A
ENCODING 346
SWIDTH 510 0
DWIDTH 17 0
BBX 13 28 2 1
BITMAP
0380
0700
0C00
0000
0F80
3FE0
70E0
6070
E030
E030
E000
F000
7000
7C00
3E00
0F80
07C0
01E0
00F0
0078
0038
C038
C038
E038
E038
7070
3FE0
0F80
ENDCHAR
STARTCHAR 015B
ENCODING 347
SWIDTH 510 0
DWIDTH 17 0
BBX 13 22 2 1
BITMAP
0180
0300
0600
0000
0000
0F80
3FE0
70E0
6070
6000
7000
7C00
3F00
0FC0
01F0
0070
0030
E038
E030
7070
3FE0
1F80
ENDCHAR
STARTCHAR 015C
ENCODING 348
SWIDTH 510 0
DWIDTH 17 0
BBX 13 28 2 1
BITMAP
0F00
1980
3060
0F80
3FE0
70E0
6070
E030
E030
E000
E000
7000
7800
3E00
1F00
0FC0
03E0
01F0
0070
0038
0038
C038
C038
E038
E038
7070
3FE0
0F80
ENDCHAR
STARTCHAR 015D
ENCODING 349
SWIDTH 510 0
DWIDTH 17 0
BBX 13 22 2 1
BITMAP
0700
0D80
30C0
0000
0000
0F80
3FE0
70E0
6070
6000
7000
7C00
3F00
0FC0
01F0
0070
0030
E038
E030
7070
3FE0
1F80
ENDCHAR
STARTCHAR 015E
ENCODING 350
SWIDTH 510 0
DWIDTH 17 0
BBX 13 29 2 -3
BITMAP
0F80
3FE0
70E0
6070
E030
E038
E000
F000
7800
3C00
1F00
0FC0
03E0
00F0
0078
0038
C038
C038
E038
E038
7070
3FE0
0F80
0000
0700
0700
0700
0300
0600
ENDCHAR
STARTCHAR 015F
ENCODING 351
SWIDTH 510 0
DWIDTH 17 0
BBX 12 21 2 -3
BITMAP
1F80
3FE0
70E0
6070
6000
7800
3F00
0FC0
01E0
0070
E030
E030
7070
3FE0
1FC0
0000
0700
0700
0700
0300
0600
ENDCHAR
STARTCHAR 0160
ENCODING 352
SWIDTH 570 0
DWIDTH 19 0
BBX 15 32 2 0
BITMAP
3838
1C70
1C70
0EE0
07C0
0000
0000
0FE0
3FFC
781C
E004
E000
E000
E000
E000
7000
7800
3E00
1FC0
07E0
01F8
003C
001C
000E
000E
000E
000E
000E
001C
F03C
7FF8
1FE0
ENDCHAR
STARTCHAR 0161
ENCODING 353
SWIDTH 510 0
DWIDTH 17 0
BBX 13 26 2 0
BITMAP
6030
7070
38E0
38C0
1DC0
0F80
0000
0000
1FE0
7FF0
7030
E000
E000
E000
E000
7C00
3F80
07E0
00F0
0038
0038
0038
0038
E070
FFF0
3FC0
ENDCHAR
STARTCHAR 0162
ENCODING 354
SWIDTH 510 0
DWIDTH 17 0
BBX 14 28 1 -3
BITMAP
FFFC
FFFC
FFFC
0380
0380
0380
0380
0380
0380
0380
0380
0380
0380
0380
0380
0380
0380
0380
0380
0380
0380
0380
0000
0380
0380
0380
0180
0300
ENDCHAR
STARTCHAR 0163
ENCODING 355
SWIDTH 510 0
DWIDTH 17 0
BBX 10 25 3 -3
BITMAP
1C00
1C00
1C00
1C00
FFC0
FFC0
1C00
1C00
1C00
1C00
1C00
1C00
1C00
1C00
1C00
1C00
0C00
0FC0
07C0
0000
0F00
0F00
0F00
0600
0E00
ENDCHAR
STARTCHAR 0164
ENCODING 356
SWIDTH 510 0
DWIDTH 17 0
BBX 14 28 1 1
BITMAP
1860
06C0
0380
0000
FFFC
FFFC
FFFC
0380
0380
0380
0380
0380
0380
0380
0380
0380
0380
0380
0380
0380
0380
0380
0380
0380
0380
0380
0380
0380
ENDCHAR
STARTCHAR 0165
ENCODING 357
SWIDTH 510 0
DWIDTH 17 0
BBX 12 26 3 1
BITMAP
00F0
00F0
00F0
00E0
0060
1C60
1C40
1CC0
1C00
FFC0
FFC0
1C00
1C00
1C00
1C00
1C00
1C00
1C00
1C00
1C00
1C00
1C00
1C00
0FC0
0FC0
07C0
ENDCHAR
STARTCHAR 0168
ENCODING 360
SWIDTH 660 0
DWIDTH 22 0
BBX 17 32 3 0
BITMAP
1E0000
3F0C00
31CC00
30FC00
303800
000000
000000
C00380
C00380
C00380
C00380
C00380
C00380
C00380
C00380
C00380
C00380
C00380
C00380
C00380
C00380
C00380
C00380
C00380
C00380
C00380
E00380
E00700
700700
781E00
3FFC00
07F000
ENDCHAR
STARTCHAR 0169
ENCODING 361
SWIDTH 570 0
DWIDTH 19 0
BBX 15 25 2 0
BITMAP
1C00
3F0C
338C
70FC
7078
0000
0000
E00E
E00E
E00E
E00E
E00E
E00E
E00E
E00E
E00E
E00E
E00E
E00E
E00E
601E
703E
787E
3FEE
1F8C
ENDCHAR
STARTCHAR 016A
ENCODING 362
SWIDTH 660 0
DWIDTH 22 0
BBX 17 31 3 0
BITMAP
3FFC00
3FFC00
000000
000000
000000
000000
C00380
C00380
C00380
C00380
C00380
C00380
C00380
C00380
C00380
C00380
C00380
C00380
C00380
C00380
C00380
C00380
C00380
C00380
C00380
E00380
E00700
700700
781E00
3FFC00
07F000
ENDCHAR
STARTCHAR 016B
ENCODING 363
SWIDTH 570 0
DWIDTH 19 0
BBX 15 24 2 0
BITMAP
3FFC
3FFC
0000
0000
0000
0000
E00E
E00E
E00E
E00E
E00E
E00E
E00E
E00E
E00E
E00E
E00E
E00E
E00E
601E
703E
787E
3FEE
1F8C
ENDCHAR
STARTCHAR 016C
ENCODING 364
SWIDTH 510 0
DWIDTH 17 0
BBX 13 28 2 1
BITMAP
30E0
0F80
0000
E038
E038
E038
E038
E038
E038
E038
E038
E038
E038
E038
E038
E038
E038
E038
E038
E038
E038
E038
E030
E070
70F0
7FE0
3FC0
0F80
ENDCHAR
STARTCHAR 016D
ENCODING 365
SWIDTH 510 0
DWIDTH 17 0
BBX 12 22 2 1
BITMAP
3060
18C0
0F80
0000
0000
0000
E030
E030
E030
E030
E030
E030
E030
E030
E030
E030
E030
E030
6070
70F0
7FB0
1F00
ENDCHAR
STARTCHAR 016E
ENCODING 366
SWIDTH 660 0
DWIDTH 22 0
BBX 17 35 3 0
BITMAP
03C000
07E000
0E3000
0C1000
0C1000
0C1000
0E3000
07E000
03C000
000000
C00380
C00380
C00380
C00380
C00380
C00380
C00380
C00380
C00380
C00380
C00380
C00380
C00380
C00380
C00380
C00380
C00380
C00380
C00380
E00380
E00700
700700
781E00
3FFC00
07F000
ENDCHAR
STARTCHAR 016F
ENCODING 367
SWIDTH 570 0
DWIDTH 19 0
BBX 15 27 2 0
BITMAP
07C0
0C60
0830
0830
0830
0C30
07E0
03C0
0000
E00E
E00E
E00E
E00E
E00E
E00E
E00E
E00E
E00E
E00E
E00E
E00E
E00E
601E
703E
787E
3FEE
1F8C
ENDCHAR
STARTCHAR 0170
ENCODING 368
SWIDTH 510 0
DWIDTH 17 0
BBX 13 28 2 1
BITMAP
0660
0CC0
1980
E038
E038
E038
E038
E038
E038
E038
E038
E038
E038
E038
E038
E038
E038
E038
E038
E038
E038
E038
E030
E070
70F0
7FE0
3FC0
0F80
ENDCHAR
STARTCHAR 0171
ENCODING 369
SWIDTH 510 0
DWIDTH 17 0
BBX 12 22 2 1
BITMAP
0770
0CE0
1980
0000
0000
0000
E030
E030
E030
E030
E030
E030
E030
E030
E030
E030
E030
E030
6070
70F0
7FB0
1F00
ENDCHAR
STARTCHAR 0178
ENCODING 376
SWIDTH 660 0
DWIDTH 22 0
BBX 20 32 1 0
BITMAP
070E00
070E00
070E00
070E00
000000
000000
000000
F00070
7000E0
7800E0
3801C0
1C01C0
1C0380
0E0700
0E0700
070E00
038E00
039C00
01D800
01F800
00F000
007000
007000
007000
007000
007000
007000
007000
007000
007000
007000
007000
ENDCHAR
STARTCHAR 0179
ENCODING 377
SWIDTH 510 0
DWIDTH 17 0
BBX 13 28 2 1
BITMAP
0380
0700
0C00
0000
7FF0
7FF0
7FF0
0070
00E0
00E0
01C0
01C0
0380
0380
0700
0700
0E00
0E00
1C00
1C00
3800
3800
7000
7000
E000
FFF8
FFF8
FFF8
ENDCHAR
STARTCHAR 017A
ENCODING 378
SWIDTH 510 0
DWIDTH 17 0
BBX 12 21 2 2
BITMAP
0180
0300
0600
0000
0000
7FF0
7FF0
00F0
00E0
01C0
0380
0380
0700
0E00
1E00
1C00
3800
7000
7000
FFF0
FFF0
ENDCHAR
STARTCHAR 017B
ENCODING 379
SWIDTH 510 0
DWIDTH 17 0
BBX 13 28 2 1
BITMAP
0700
0700
0700
0000
7FF0
7FF0
7FF0
0070
00E0
00E0
01C0
01C0
0380
0380
0700
0700
0E00
0E00
1C00
1C00
3800
3800
7000
7000
E000
FFF8
FFF8
FFF8
ENDCHAR
STARTCHAR 017C
ENCODING 380
SWIDTH 510 0
DWIDTH 17 0
BBX 12 21 2 2
BITMAP
0700
0700
0700
0000
0000
7FF0
7FF0
00F0
00E0
01C0
0380
0380
0700
0E00
1E00
1C00
3800
7000
7000
FFF0
FFF0
ENDCHAR
STARTCHAR 017D
ENCODING 381
SWIDTH 630 0
DWIDTH 21 0
BBX 15 32 3 0
BITMAP
3838
1C70
1C70
0EE0
07C0
0000
0000
FFFE
FFFE
000E
001E
001C
003C
0038
0070
00F0
00E0
01C0
03C0
0380
0780
0700
0E00
1E00
1C00
3C00
7800
7000
F000
E000
FFFE
FFFE
ENDCHAR
STARTCHAR 017E
ENCODING 382
SWIDTH 540 0
DWIDTH 18 0
BBX 13 26 3 0
BITMAP
6030
F070
70E0
39C0
1D80
0F00
0000
0000
FFF8
FFF8
0070
0070
00E0
01C0
03C0
0380
0700
0E00
1E00
1C00
3800
7000
7000
E000
FFF8
FFF8
ENDCHAR
STARTCHAR 01CD
ENCODING 461
SWIDTH 690 0
DWIDTH 23 0
BBX 20 32 1 0
BITMAP
070700
070E00
039C00
01DC00
00F800
000000
000000
007000
00F000
00F800
00F800
01D800
019C00
019C00
038C00
030E00
030E00
070600
060700
060700
0E0300
0C0380
1C0380
1FFFC0
1FFFC0
3801C0
3800E0
3000E0
7000E0
700070
600070
E00070
ENDCHAR
STARTCHAR 01CE
ENCODING 462
SWIDTH 540 0
DWIDTH 18 0
BBX 14 26 2 0
BITMAP
7018
7038
3870
1CE0
0EC0
0780
0000
0000
3FE0
7FF0
6038
0018
001C
001C
001C
07FC
3FFC
781C
E01C
E01C
C01C
C03C
E03C
F0FC
7FDC
3F1C
ENDCHAR
STARTCHAR 01CF
ENCODING 463
SWIDTH 330 0
DWIDTH 11 0
BBX 11 32 0 0
BITMAP
E0E0
E1C0
7180
3B80
1F00
0000
0000
0E00
0E00
0E00
0E00
0E00
0E00
0E00
0E00
0E00
0E00
0E00
0E00
0E00
0E00
0E00
0E00
0E00
0E00
0E00
0E00
0E00
0E00
0E00
0E00
0E00
ENDCHAR
STARTCHAR 01D0
ENCODING 464
SWIDTH 300 0
DWIDTH 10 0
BBX 11 26 0 0
BITMAP
C060
E0E0
E1C0
7380
3B00
1F00
0000
0000
0E00
0E00
0E00
0E00
0E00
0E00
0E00
0E00
0E00
0E00
0E00
0E00
0E00
0E00
0E00
0E00
0E00
0E00
ENDCHAR
STARTCHAR 01D1
ENCODING 465
SWIDTH 720 0
DWIDTH 24 0
BBX 22 32 1 0
BITMAP
070380
038700
01CE00
00EC00
007C00
000000
000000
00FE00
07FF80
0F03C0
1C00E0
380070
380038
700038
700018
70001C
60001C
E0001C
E0001C
E0001C
E0001C
E0001C
60001C
60001C
700018
700038
380038
380070
1C00E0
0F03C0
07FF80
00FE00
ENDCHAR
STARTCHAR 01D2
ENCODING 466
SWIDTH 570 0
DWIDTH 19 0
BBX 17 26 1 0
BITMAP
180C00
1C1C00
0E3800
0E3800
077000
03E000
000000
000000
07E000
1FF800
3C1E00
380E00
700700
700700
600300
E00380
E00380
E00380
E00380
600300
600700
700700
380E00
3C1E00
1FFC00
07F000
ENDCHAR
STARTCHAR 01D3
ENCODING 467
SWIDTH 660 0
DWIDTH 22 0
BBX 17 32 3 0
BITMAP
3C1C00
1C3800
0E7000
076000
03E000
000000
000000
C00380
C00380
C00380
C00380
C00380
C00380
C00380
C00380
C00380
C00380
C00380
C00380
C00380
C00380
C00380
C00380
C00380
C00380
C00380
E00380
E00700
700700
781E00
3FFC00
07F000
ENDCHAR
STARTCHAR 01D4
ENCODING 468
SWIDTH 570 0
DWIDTH 19 0
BBX 15 26 2 0
BITMAP
3018
3838
1C38
0E70
06E0
07C0
0000
0000
E00E
E00E
E00E
E00E
E00E
E00E
E00E
E00E
E00E
E00E
E00E
E00E
E00E
601E
703E
787E
3FEE
1F8C
ENDCHAR
STARTCHAR 01D6
ENCODING 470
SWIDTH 990 0
DWIDTH 33 0
BBX 14 24 10 1
BITMAP
7FF0
0000
0000
7070
7070
7070
0000
0000
E01C
E01C
E01C
E01C
E01C
E01C
E01C
E01C
E01C
E01C
E01C
E03C
E07C
F0FC
7FDC
1F00
ENDCHAR
STARTCHAR 01D8
ENCODING 472
SWIDTH 990 0
DWIDTH 33 0
BBX 14 24 10 1
BITMAP
00E0
0380
0700
7070
7070
7070
0000
0000
E01C
E01C
E01C
E01C
E01C
E01C
E01C
E01C
E01C
E01C
E01C
E03C
E07C
F0FC
7FDC
1F00
ENDCHAR
STARTCHAR 01DA
ENCODING 474
SWIDTH 990 0
DWIDTH 33 0
BBX 14 24 10 1
BITMAP
1860
0DC0
0780
7070
7070
7070
0000
0000
E01C
E01C
E01C
E01C
E01C
E01C
E01C
E01C
E01C
E01C
E01C
E03C
E07C
F0FC
7FDC
1F00
ENDCHAR
STARTCHAR 01DC
ENCODING 476
SWIDTH 990 0
DWIDTH 33 0
BBX 14 24 10 1
BITMAP
3C00
0E00
0300
7070
7070
7070
0000
0000
E01C
E01C
E01C
E01C
E01C
E01C
E01C
E01C
E01C
E01C
E01C
E03C
E07C
F0FC
7FDC
1F00
ENDCHAR
STARTCHAR 01FD
ENCODING 509
SWIDTH 900 0
DWIDTH 30 0
BBX 26 26 2 0
BITMAP
0003C000
00038000
00070000
000E0000
000C0000
001C0000
00000000
00000000
1FE0FC00
7FF3FE00
707F8700
001E0380
001E0180
001C01C0
001C01C0
07FC01C0
3FFFFFC0
781FFFC0
E01C0000
E01C0000
C01C0000
C03E0000
E03E0000
F0F78180
7FE3FF80
1F80FF00
ENDCHAR
STARTCHAR 0251
ENCODING 593
SWIDTH 600 0
DWIDTH 20 0
BBX 15 18 2 0
BITMAP
0F86
3FEE
787E
701E
E00E
E00E
C00E
C00E
C00E
C00E
C00E
C00E
E00E
E00E
701E
783E
3FEE
0F86
ENDCHAR
STARTCHAR 0254
ENCODING 596
SWIDTH 510 0
DWIDTH 17 0
BBX 13 18 2 0
BITMAP
7F80
7FC0
40F0
0070
0038
0038
0038
0018
0018
0018
0018
0038
0038
0038
0070
C0F0
FFC0
7F00
ENDCHAR
STARTCHAR 0259
ENCODING 601
SWIDTH 540 0
DWIDTH 18 0
BBX 15 18 2 0
BITMAP
3F80
7FE0
4078
0038
001C
001C
000C
000C
FFFE
FFFE
C00C
C00C
C01C
E01C
E038
7078
3FF0
0FC0
ENDCHAR
STARTCHAR 025A
ENCODING 602
SWIDTH 750 0
DWIDTH 25 0
BBX 24 18 1 0
BITMAP
0FC000
7FF000
703830
001CF0
000FF0
000F30
001F30
007730
01E730
078730
0E073F
3C071F
F00700
600E00
700E00
383C00
1FF800
07E000
ENDCHAR
STARTCHAR 025B
ENCODING 603
SWIDTH 510 0
DWIDTH 17 0
BBX 14 18 2 0
BITMAP
0FF0
7FF8
F018
E000
C000
C000
6000
3800
0FE0
7FE0
F800
E000
C000
C000
E000
F00C
7FFC
0FF0
ENDCHAR
STARTCHAR 0275
ENCODING 629
SWIDTH 570 0
DWIDTH 19 0
BBX 17 18 1 0
BITMAP
07E000
1FF800
3C1E00
380E00
700700
700700
600300
E00380
FFFF80
FFFF80
E00380
600300
600700
700700
380E00
3C1E00
1FFC00
07F000
ENDCHAR
STARTCHAR 0283
ENCODING 643
SWIDTH 330 0
DWIDTH 11 0
BBX 15 33 -2 -8
BITMAP
007E
01FE
01C0
0380
0380
0380
0380
0380
0380
0380
0380
0380
0380
0380
0380
0380
0380
0380
0380
0380
0380
0380
0380
0380
0380
0380
0380
0380
0380
0300
0700
FE00
FC00
ENDCHAR
STARTCHAR 028C
ENCODING 652
SWIDTH 570 0
DWIDTH 19 0
BBX 16 18 1 0
BITMAP
03C0
03E0
0360
0760
0670
0630
0E30
0C38
0C18
1C18
181C
181C
380C
300E
700E
7007
6007
E007
ENDCHAR
STARTCHAR 0292
ENCODING 658
SWIDTH 570 0
DWIDTH 19 0
BBX 14 26 3 -8
BITMAP
FFF8
FFF8
0038
0070
00E0
01C0
0380
0700
0700
0E00
1C00
3FC0
3FF0
00F0
0038
0018
001C
001C
001C
001C
0018
0038
0038
C0F0
FFE0
3F80
ENDCHAR
STARTCHAR 0391
ENCODING 913
SWIDTH 1020 0
DWIDTH 34 0
BBX 20 25 1 0
BITMAP
007000
00F000
00F800
00F800
01D800
019C00
019C00
038C00
030E00
030E00
070600
060700
060700
0E0300
0C0380
1C0380
1FFFC0
1FFFC0
3801C0
3800E0
3000E0
7000E0
700070
600070
E00070
ENDCHAR
STARTCHAR 0392
ENCODING 914
SWIDTH 1020 0
DWIDTH 34 0
BBX 16 25 3 0
BITMAP
FFC0
FFF8
E03C
E01C
E00E
E00E
E00E
E00E
E00C
E01C
E070
FFC0
FFF8
E03C
E00E
E007
E007
E007
E007
E007
E007
E00E
E03C
FFF8
FFE0
ENDCHAR
STARTCHAR 0393
ENCODING 915
SWIDTH 1020 0
DWIDTH 34 0
BBX 14 25 3 0
BITMAP
FFFC
FFFC
E000
E000
E000
E000
E000
E000
E000
E000
E000
E000
E000
E000
E000
E000
E000
E000
E000
E000
E000
E000
E000
E000
E000
ENDCHAR
STARTCHAR 0394
ENCODING 916
SWIDTH 1020 0
DWIDTH 34 0
BBX 20 25 1 0
BITMAP
007000
00F000
00F800
00D800
01D800
019C00
018C00
038C00
030E00
070E00
070700
060700
0E0700
0E0380
0C0380
1C0380
1C01C0
1801C0
3801C0
3800E0
3000E0
7000E0
700070
7FFFF0
FFFFF0
ENDCHAR
STARTCHAR 0395
ENCODING 917
SWIDTH 1020 0
DWIDTH 34 0
BBX 14 24 3 0
BITMAP
FFFC
FFFC
E000
E000
E000
E000
E000
E000
E000
E000
FFFC
FFFC
E000
E000
E000
E000
E000
E000
E000
E000
E000
E000
FFFC
FFFC
ENDCHAR
STARTCHAR 0396
ENCODING 918
SWIDTH 1020 0
DWIDTH 34 0
BBX 15 25 3 0
BITMAP
FFFE
FFFE
000E
001E
001C
003C
0038
0070
00F0
00E0
01C0
03C0
0380
0780
0700
0E00
1E00
1C00
3C00
7800
7000
F000
E000
FFFE
FFFE
ENDCHAR
STARTCHAR 0397
ENCODING 919
SWIDTH 1020 0
DWIDTH 34 0
BBX 17 24 3 0
BITMAP
E00380
E00380
E00380
E00380
E00380
E00380
E00380
E00380
E00380
E00380
FFFF80
FFFF80
E00380
E00380
E00380
E00380
E00380
E00380
E00380
E00380
E00380
E00380
E00380
E00380
ENDCHAR
STARTCHAR 0398
ENCODING 920
SWIDTH 1020 0
DWIDTH 34 0
BBX 22 25 1 0
BITMAP
00FE00
07FF80
0F03C0
1C00E0
380070
380038
700038
700018
70001C
60001C
E0001C
E3FF1C
E3FF1C
E0001C
E0001C
60001C
60001C
700018
700038
380038
380070
1C00E0
0F03C0
07FF80
00FE00
ENDCHAR
STARTCHAR 0399
ENCODING 921
SWIDTH 1020 0
DWIDTH 34 0
BBX 3 25 4 0
BITMAP
E0
E0
E0
E0
E0
E0
E0
E0
E0
E0
E0
E0
E0
E0
E0
E0
E0
E0
E0
E0
E0
E0
E0
E0
E0
ENDCHAR
STARTCHAR 039A
ENCODING 922
SWIDTH 1020 0
DWIDTH 34 0
BBX 16 25 3 0
BITMAP
E007
E00E
E01C
E038
E070
E0E0
E1C0
E380
E700
EE00
FE00
FC00
FC00
FC00
EE00
E700
E380
E1C0
E0E0
E0F0
E078
E03C
E01C
E00E
E007
ENDCHAR
STARTCHAR 039B
ENCODING 923
SWIDTH 1020 0
DWIDTH 34 0
BBX 20 25 1 0
BITMAP
007000
00F000
00F800
00D800
01D800
019C00
018C00
038C00
030E00
070600
070700
060700
0E0300
0E0380
0C0380
1C0180
1C01C0
1801C0
3800C0
3800E0
3000E0
700060
700070
600070
E00070
ENDCHAR
STARTCHAR 039C
ENCODING 924
SWIDTH 1020 0
DWIDTH 34 0
BBX 22 25 3 0
BITMAP
E0001C
F0003C
F0003C
F8007C
F8007C
FC00FC
EC00DC
EE01DC
E6039C
E7039C
E3071C
E3871C
E1CE1C
E1CE1C
E0FC1C
E0F81C
E0781C
E0701C
E0001C
E0001C
E0001C
E0001C
E0001C
E0001C
E0001C
ENDCHAR
STARTCHAR 039D
ENCODING 925
SWIDTH 1020 0
DWIDTH 34 0
BBX 18 25 3 0
BITMAP
E001C0
F001C0
F001C0
F801C0
F801C0
FC01C0
EE01C0
EE01C0
E701C0
E301C0
E381C0
E181C0
E1C1C0
E0E1C0
E061C0
E071C0
E031C0
E039C0
E01DC0
E01DC0
E00FC0
E007C0
E007C0
E003C0
E003C0
ENDCHAR
STARTCHAR 039E
ENCODING 926
SWIDTH 1020 0
DWIDTH 34 0
BBX 15 25 3 0
BITMAP
FFFE
FFFE
0000
0000
0000
0000
0000
0000
0000
0000
0000
FFFC
FFFC
0000
0000
0000
0000
0000
0000
0000
0000
0000
0000
FFFE
FFFE
ENDCHAR
STARTCHAR 039F
ENCODING 927
SWIDTH 1020 0
DWIDTH 34 0
BBX 22 25 3 0
BITMAP
01FC00
07FF00
0F03C0
1C01E0
380060
700070
700030
600038
E00038
E00038
E00018
E00018
E0001C
E00018
E00018
E00018
E00038
E00038
700038
700070
380070
1C00E0
1F03C0
07FF80
01FC00
ENDCHAR
STARTCHAR 03A0
ENCODING 928
SWIDTH 1020 0
DWIDTH 34 0
BBX 18 25 3 0
BITMAP
FFFFC0
FFFFC0
E001C0
E001C0
E001C0
E001C0
E001C0
E001C0
E001C0
E001C0
E001C0
E001C0
E001C0
E001C0
E001C0
E001C0
E001C0
E001C0
E001C0
E001C0
E001C0
E001C0
E001C0
E001C0
E001C0
ENDCHAR
STARTCHAR 03A1
ENCODING 929
SWIDTH 1020 0
DWIDTH 34 0
BBX 16 25 3 0
BITMAP
FFE0
FFF8
E03E
E00E
E007
E007
E003
E003
E007
E007
E007
E00E
E03C
FFF8
FFE0
E000
E000
E000
E000
E000
E000
E000
E000
E000
C000
ENDCHAR
STARTCHAR 03A3
ENCODING 931
SWIDTH 1020 0
DWIDTH 34 0
BBX 15 25 2 0
BITMAP
7FFE
FFFE
FFFE
7000
3800
1C00
1C00
0E00
0700
0380
0380
01C0
00E0
01C0
0380
0700
0700
0E00
1C00
1C00
3800
7000
7000
FFFE
FFFE
ENDCHAR
STARTCHAR 03A4
ENCODING 932
SWIDTH 1020 0
DWIDTH 34 0
BBX 18 25 2 0
BITMAP
FFFFC0
FFFFC0
01C000
01C000
01C000
01C000
01C000
01C000
01C000
01C000
01C000
01C000
01C000
01C000
01C000
01C000
01C000
01C000
01C000
01C000
01C000
01C000
01C000
01C000
00C000
ENDCHAR
STARTCHAR 03A5
ENCODING 933
SWIDTH 1020 0
DWIDTH 34 0
BBX 20 25 1 0
BITMAP
F00070
7000E0
7800E0
3801C0
1C01C0
1C0380
0E0700
0E0700
070E00
038E00
039C00
01D800
01F800
00F000
007000
007000
007000
007000
007000
007000
007000
007000
007000
007000
007000
ENDCHAR
STARTCHAR 03A6
ENCODING 934
SWIDTH 1020 0
DWIDTH 34 0
BBX 22 25 1 0
BITMAP
003000
003000
003000
01FE00
07FF80
1FB7E0
3C30F0
383038
703038
60301C
E0301C
E0301C
E0301C
E0301C
E0301C
60301C
703038
383078
3C30F0
0FFFE0
07FF80
00FC00
003000
003000
003000
ENDCHAR
STARTCHAR 03A7
ENCODING 935
SWIDTH 1020 0
DWIDTH 34 0
BBX 18 25 2 0
BITMAP
7003C0
700380
380700
380700
1C0E00
0E0E00
0E1C00
071800
073800
03F000
03F000
01E000
01E000
03F000
03F000
073800
073800
0E1C00
0E0E00
1C0E00
380700
380700
700380
7003C0
E001C0
ENDCHAR
STARTCHAR 03A8
ENCODING 936
SWIDTH 1020 0
DWIDTH 34 0
BBX 22 25 2 0
BITMAP
E0381C
E0381C
E0381C
E0381C
E0381C
E0381C
E0381C
E0381C
E0381C
E0381C
E0381C
60381C
60381C
703818
703838
383878
3E38F0
1FFFE0
07FF80
007800
003800
003800
003800
003800
003800
ENDCHAR
STARTCHAR 03A9
ENCODING 937
SWIDTH 780 0
DWIDTH 26 0
BBX 22 25 2 0
BITMAP
00FE00
07FF80
0F03C0
1C00E0
380070
380038
700038
700018
60001C
E0001C
E0001C
E0001C
E0001C
E0001C
E0001C
60001C
700018
700038
700038
380070
1C0070
1E00E0
0783C0
FFC7FC
FFC7FC
ENDCHAR
STARTCHAR 03B1
ENCODING 945
SWIDTH 1020 0
DWIDTH 34 0
BBX 17 18 2 0
BITMAP
0F8180
3FC380
70E300
607300
E03300
C03F00
C01E00
C01E00
C00E00
C00C00
C00E00
C01E00
E01F00
E03300
707300
78E380
3FC380
0F8180
ENDCHAR
STARTCHAR 03B2
ENCODING 946
SWIDTH 1020 0
DWIDTH 34 0
BBX 15 32 3 -7
BITMAP
0FC0
3FF0
7038
E01C
E00C
C00C
C00C
C00C
C01C
C018
C070
CF80
CFF0
C07C
C00E
C00E
C006
C006
C006
C006
C00E
C01E
C03C
FFF8
FFC0
C000
C000
C000
C000
C000
C000
C000
ENDCHAR
STARTCHAR 03B3
ENCODING 947
SWIDTH 1020 0
DWIDTH 34 0
BBX 16 25 2 -7
BITMAP
C007
E006
E00E
700C
701C
3818
3838
1830
1C30
0C70
0E60
0660
06C0
07C0
03C0
0380
0380
0380
0380
0380
0380
0380
0380
0380
0380
ENDCHAR
STARTCHAR 03B4
ENCODING 948
SWIDTH 1020 0
DWIDTH 34 0
BBX 17 25 1 0
BITMAP
07F000
1FFC00
3C0C00
380000
300000
380000
1C0000
1FE000
0FF800
181C00
300600
700700
600300
600300
E00380
E00380
E00380
E00380
600300
700700
700700
380E00
1C1C00
0FF800
07E000
ENDCHAR
STARTCHAR 03B5
ENCODING 949
SWIDTH 1020 0
DWIDTH 34 0
BBX 14 18 2 0
BITMAP
0FF0
7FF8
F018
E000
C000
C000
6000
3800
0FE0
7FE0
F800
E000
C000
C000
E000
F00C
7FFC
0FF0
ENDCHAR
STARTCHAR 03B6
ENCODING 950
SWIDTH 1020 0
DWIDTH 34 0
BBX 16 34 2 -8
BITMAP
7FF0
7FF0
00E0
0380
0700
0E00
1C00
1C00
3800
3000
7000
7000
6000
E000
E000
E000
E000
E000
E000
E000
E000
E000
7000
3C00
1FF8
07FC
000E
0006
0007
0007
0006
000E
07FC
07F0
ENDCHAR
STARTCHAR 03B7
ENCODING 951
SWIDTH 1020 0
DWIDTH 34 0
BBX 14 26 3 -8
BITMAP
C7E0
CFF0
D838
F018
E01C
E01C
C01C
C01C
C01C
C01C
C01C
C01C
C01C
C01C
C01C
C01C
C01C
C01C
001C
001C
001C
001C
001C
001C
001C
000C
ENDCHAR
STARTCHAR 03B8
ENCODING 952
SWIDTH 1020 0
DWIDTH 34 0
BBX 16 27 2 -1
BITMAP
07C0
1FF0
3C78
3018
701C
600C
E00E
E006
C006
C006
C006
C006
FFFF
FFFF
C007
C007
C006
C006
C006
E00E
E00E
600C
701C
3818
3C78
1FF0
07C0
ENDCHAR
STARTCHAR 03B9
ENCODING 953
SWIDTH 1020 0
DWIDTH 34 0
BBX 8 18 4 0
BITMAP
C0
C0
C0
C0
C0
C0
C0
C0
C0
C0
C0
C0
C0
C0
E0
E0
7F
3F
ENDCHAR
STARTCHAR 03BA
ENCODING 954
SWIDTH 1020 0
DWIDTH 34 0
BBX 13 18 3 0
BITMAP
C038
C078
C0E0
C1C0
C380
C700
CE00
DC00
F800
DC00
CE00
C700
C380
C1C0
C0E0
C070
C038
C018
ENDCHAR
STARTCHAR 03BB
ENCODING 955
SWIDTH 1020 0
DWIDTH 34 0
BBX 16 25 1 0
BITMAP
0C00
0E00
0E00
0600
0700
0300
0380
0180
03C0
03C0
03C0
07E0
0660
0670
0E30
0C30
1C38
1C18
181C
380C
380E
300E
7006
7007
E003
ENDCHAR
STARTCHAR 03BC
ENCODING 956
SWIDTH 570 0
DWIDTH 19 0
BBX 14 25 3 -7
BITMAP
C01C
C01C
C01C
C01C
C01C
C01C
C01C
C01C
C01C
C01C
C01C
C01C
C01C
C03C
E07C
F0FC
FFDC
DF1C
C000
C000
C000
C000
C000
C000
C000
ENDCHAR
STARTCHAR 03BD
ENCODING 957
SWIDTH 1020 0
DWIDTH 34 0
BBX 16 18 1 0
BITMAP
E007
7007
7007
7007
3807
3807
3806
180E
1C0E
0C0C
0C1C
0E18
0638
0630
0770
0360
03E0
03C0
ENDCHAR
STARTCHAR 03BE
ENCODING 958
SWIDTH 1020 0
DWIDTH 34 0
BBX 16 34 2 -8
BITMAP
7FF0
7FF0
0F00
1C00
3800
7000
7000
6000
7000
7000
3800
0E00
07F8
1FF8
3E00
7800
F000
E000
E000
E000
E000
E000
7000
7C00
1FF8
07FE
000E
0007
0007
0007
0007
000E
07FC
07F8
ENDCHAR
STARTCHAR 03BF
ENCODING 959
SWIDTH 1020 0
DWIDTH 34 0
BBX 17 18 1 0
BITMAP
07E000
1FF800
3C1E00
380E00
700700
700700
600300
E00380
E00380
E00380
E00380
600300
600700
700700
380E00
3C1E00
1FFC00
07F000
ENDCHAR
STARTCHAR 03C0
ENCODING 960
SWIDTH 1020 0
DWIDTH 34 0
BBX 18 18 2 0
BITMAP
FFFFC0
FFFFC0
180E00
180E00
180E00
180E00
180E00
180E00
180E00
180E00
180E00
180E00
180E00
180E00
180E00
180E00
180E00
180C00
ENDCHAR
STARTCHAR 03C1
ENCODING 961
SWIDTH 1020 0
DWIDTH 34 0
BBX 16 25 2 -7
BITMAP
07E0
1FF8
3C3C
781C
700E
6006
E006
E007
E007
E007
E007
E006
E006
E00E
F00C
FC3C
EFF8
E3E0
E000
E000
E000
E000
E000
E000
E000
ENDCHAR
STARTCHAR 03C3
ENCODING 963
SWIDTH 1020 0
DWIDTH 34 0
BBX 19 18 1 0
BITMAP
07F000
1FFFE0
3C1FE0
380E00
700700
700700
600300
E00380
E00380
E00380
E00380
600300
600700
700700
380E00
3C1E00
1FFC00
07F000
ENDCHAR
STARTCHAR 03C4
ENCODING 964
SWIDTH 1020 0
DWIDTH 34 0
BBX 16 18 2 0
BITMAP
FFFF
FFFF
0180
0180
0180
0180
0180
0180
0180
0180
0180
0180
0180
0180
0180
0180
0180
0180
ENDCHAR
STARTCHAR 03C5
ENCODING 965
SWIDTH 1020 0
DWIDTH 34 0
BBX 16 18 2 0
BITMAP
E01C
E00C
E00E
E00E
E006
E006
E007
E007
E007
E007
E007
E006
E006
600E
700C
783C
3FF8
0FE0
ENDCHAR
STARTCHAR 03C6
ENCODING 966
SWIDTH 1020 0
DWIDTH 34 0
BBX 21 25 1 -7
BITMAP
071F00
0F3FC0
1E39E0
3870E0
707070
707070
607030
E07030
E07038
E07038
E07038
607030
607070
707070
3870E0
1C71C0
0FFF80
03FE00
007000
007000
007000
007000
007000
007000
007000
ENDCHAR
STARTCHAR 03C7
ENCODING 967
SWIDTH 1020 0
DWIDTH 34 0
BBX 16 25 1 -7
BITMAP
E007
7007
700E
380E
381C
1C1C
0C18
0E38
0630
0770
0360
03E0
01C0
03C0
03E0
0760
0670
0E30
0E38
1C18
1C1C
380C
380E
7006
7007
ENDCHAR
STARTCHAR 03C8
ENCODING 968
SWIDTH 1020 0
DWIDTH 34 0
BBX 20 31 2 -7
BITMAP
006000
006000
006000
006000
006000
006000
E06070
E06070
E06070
E06070
E06070
E06070
E06070
E06070
E06070
E06070
E06070
606060
606060
7060E0
3061C0
3C63C0
1FFF80
07FE00
006000
006000
006000
006000
006000
006000
006000
ENDCHAR
STARTCHAR 03C9
ENCODING 969
SWIDTH 1020 0
DWIDTH 34 0
BBX 23 18 2 0
BITMAP
380030
300038
703818
60381C
E0380C
E0380C
E0380E
C0380E
C0380E
C0380E
C0380E
E0380E
E0380C
E0781C
706C1C
78CE38
3FC7F0
0F03E0
ENDCHAR
STARTCHAR 0401
ENCODING 1025
SWIDTH 1020 0
DWIDTH 34 0
BBX 14 32 3 0
BITMAP
1870
1870
1870
1870
0000
0000
0000
0000
FFFC
FFFC
E000
E000
E000
E000
E000
E000
E000
E000
FFFC
FFFC
E000
E000
E000
E000
E000
E000
E000
E000
E000
E000
FFFC
FFFC
ENDCHAR
STARTCHAR 0410
ENCODING 1040
SWIDTH 1020 0
DWIDTH 34 0
BBX 20 25 1 0
BITMAP
007000
00F000
00F800
00F800
01D800
019C00
019C00
038C00
030E00
030E00
070600
060700
060700
0E0300
0C0380
1C0380
1FFFC0
1FFFC0
3801C0
3800E0
3000E0
7000E0
700070
600070
E00070
ENDCHAR
STARTCHAR 0411
ENCODING 1041
SWIDTH 1020 0
DWIDTH 34 0
BBX 16 25 3 0
BITMAP
FFFC
FFFE
FFFC
E000
E000
E000
E000
E000
E000
E000
FFE0
FFF8
E03C
E00E
E007
E007
E007
E007
E007
E007
E006
E00E
E03C
FFF8
FFE0
ENDCHAR
STARTCHAR 0412
ENCODING 1042
SWIDTH 1020 0
DWIDTH 34 0
BBX 16 25 3 0
BITMAP
FFC0
FFF8
E03C
E01C
E00E
E00E
E00E
E00E
E00C
E01C
E070
FFC0
FFF8
E03C
E00E
E007
E007
E007
E007
E007
E007
E00E
E03C
FFF8
FFE0
ENDCHAR
STARTCHAR 0413
ENCODING 1043
SWIDTH 1020 0
DWIDTH 34 0
BBX 14 25 3 0
BITMAP
FFFC
FFFC
E000
E000
E000
E000
E000
E000
E000
E000
E000
E000
E000
E000
E000
E000
E000
E000
E000
E000
E000
E000
E000
E000
E000
ENDCHAR
STARTCHAR 0414
ENCODING 1044
SWIDTH 1020 0
DWIDTH 34 0
BBX 22 30 2 -5
BITMAP
07FFE0
07FFE0
0E00E0
0E00E0
0E00E0
0E00E0
0E00E0
0E00E0
0E00E0
0E00E0
0E00E0
0E00E0
0E00E0
0E00E0
0E00E0
0E00E0
0E00E0
0E00E0
0C00E0
1C00E0
1C00E0
3800E0
3800E0
FFFFFC
FFFFFC
C0001C
C0001C
C0001C
C0001C
C0001C
ENDCHAR
STARTCHAR 0415
ENCODING 1045
SWIDTH 1020 0
DWIDTH 34 0
BBX 14 24 3 0
BITMAP
FFFC
FFFC
E000
E000
E000
E000
E000
E000
E000
E000
FFFC
FFFC
E000
E000
E000
E000
E000
E000
E000
E000
E000
E000
FFFC
FFFC
ENDCHAR
STARTCHAR 0416
ENCODING 1046
SWIDTH 1020 0
DWIDTH 34 0
BBX 27 24 2 0
BITMAP
E00E00C0
700E01C0
380E0380
380E0700
1C0E0700
0E0E0E00
0E0E1C00
070E1C00
038E3800
038E7000
01FFF000
01FFF000
038E7000
038E3800
070E1800
070E1C00
0E0E0E00
1C0E0E00
1C0E0700
380E0300
380E0380
700E01C0
E00E01C0
E00E00E0
ENDCHAR
STARTCHAR 0417
ENCODING 1047
SWIDTH 1020 0
DWIDTH 34 0
BBX 16 25 2 0
BITMAP
1FE0
FFF8
E03C
801E
000E
000E
000E
000E
000C
001C
0070
1FC0
1FF0
007C
001E
000E
0006
0007
0007
0006
000E
801E
E03C
FFF8
3FE0
ENDCHAR
STARTCHAR 0418
ENCODING 1048
SWIDTH 1020 0
DWIDTH 34 0
BBX 18 25 3 0
BITMAP
E003C0
E003C0
E007C0
E007C0
E00FC0
E01DC0
E01DC0
E039C0
E031C0
E071C0
E061C0
E0E1C0
E1C1C0
E1C1C0
E381C0
E301C0
E701C0
EE01C0
EE01C0
FC01C0
F801C0
F801C0
F001C0
F001C0
E001C0
ENDCHAR
STARTCHAR 0419
ENCODING 1049
SWIDTH 1020 0
DWIDTH 34 0
BBX 18 32 3 0
BITMAP
380600
180E00
1C1C00
0FF800
03E000
000000
000000
E003C0
E003C0
E007C0
E007C0
E00FC0
E01DC0
E01DC0
E039C0
E031C0
E071C0
E061C0
E0E1C0
E1C1C0
E1C1C0
E381C0
E301C0
E701C0
EE01C0
EE01C0
FC01C0
F801C0
F801C0
F001C0
F001C0
E001C0
ENDCHAR
STARTCHAR 041A
ENCODING 1050
SWIDTH 1020 0
DWIDTH 34 0
BBX 16 25 3 0
BITMAP
E007
E00E
E01C
E038
E070
E0E0
E1C0
E380
E700
EE00
FE00
FC00
FC00
FC00
EE00
E700
E380
E1C0
E0E0
E0F0
E078
E038
E01C
E00E
E007
ENDCHAR
STARTCHAR 041B
ENCODING 1051
SWIDTH 1020 0
DWIDTH 34 0
BBX 21 25 1 0
BITMAP
03FFF8
03FFF8
030038
030038
030038
030038
030038
030038
030038
030038
030038
030038
030038
070038
070038
070038
070038
070038
070038
070038
0E0038
0E0038
1E0038
FC0038
F00038
ENDCHAR
STARTCHAR 041C
ENCODING 1052
SWIDTH 1020 0
DWIDTH 34 0
BBX 22 25 3 0
BITMAP
E0001C
F0003C
F0003C
F8007C
F8007C
FC00FC
EC00DC
EE01DC
E6039C
E7039C
E3071C
E3871C
E1CE1C
E1CE1C
E0FC1C
E0F81C
E0781C
E0701C
E0001C
E0001C
E0001C
E0001C
E0001C
E0001C
E0001C
ENDCHAR
STARTCHAR 041D
ENCODING 1053
SWIDTH 1020 0
DWIDTH 34 0
BBX 17 24 3 0
BITMAP
E00380
E00380
E00380
E00380
E00380
E00380
E00380
E00380
E00380
E00380
FFFF80
FFFF80
E00380
E00380
E00380
E00380
E00380
E00380
E00380
E00380
E00380
E00380
E00380
E00380
ENDCHAR
STARTCHAR 041E
ENCODING 1054
SWIDTH 1020 0
DWIDTH 34 0
BBX 22 25 1 0
BITMAP
00FE00
07FF80
0F03C0
1C00E0
380070
380038
700038
700018
70001C
60001C
E0001C
E0001C
E0001C
E0001C
E0001C
60001C
60001C
700018
700038
380038
380070
1C00E0
0F03C0
07FF80
00FE00
ENDCHAR
STARTCHAR 041F
ENCODING 1055
SWIDTH 1020 0
DWIDTH 34 0
BBX 17 25 3 0
BITMAP
FFFF80
FFFF80
E00380
E00380
E00380
E00380
E00380
E00380
E00380
E00380
E00380
E00380
E00380
E00380
E00380
E00380
E00380
E00380
E00380
E00380
E00380
E00380
E00380
E00380
E00380
ENDCHAR
STARTCHAR 0420
ENCODING 1056
SWIDTH 1020 0
DWIDTH 34 0
BBX 16 25 3 0
BITMAP
FFE0
FFF8
E03E
E00E
E007
E007
E003
E003
E007
E007
E007
E00E
E03C
FFF8
FFE0
E000
E000
E000
E000
E000
E000
E000
E000
E000
C000
ENDCHAR
STARTCHAR 0421
ENCODING 1057
SWIDTH 1020 0
DWIDTH 34 0
BBX 17 25 1 0
BITMAP
00FF00
07FF80
0F0180
1E0000
3C0000
380000
700000
700000
700000
600000
E00000
E00000
E00000
E00000
E00000
600000
700000
700000
700000
380000
3C0000
1E0000
0F8180
07FF80
00FF00
ENDCHAR
STARTCHAR 0422
ENCODING 1058
SWIDTH 1020 0
DWIDTH 34 0
BBX 18 25 2 0
BITMAP
FFFFC0
FFFFC0
01C000
01C000
01C000
01C000
01C000
01C000
01C000
01C000
01C000
01C000
01C000
01C000
01C000
01C000
01C000
01C000
01C000
01C000
01C000
01C000
01C000
01C000
00C000
ENDCHAR
STARTCHAR 0423
ENCODING 1059
SWIDTH 1020 0
DWIDTH 34 0
BBX 19 25 2 0
BITMAP
E000E0
E000E0
7001C0
7001C0
380380
380380
1C0700
1C0700
0C0600
0E0E00
060E00
071C00
031C00
03B800
01B800
01F000
00F000
00E000
00E000
01C000
03C000
078000
0F0000
FE0000
F00000
ENDCHAR
STARTCHAR 0424
ENCODING 1060
SWIDTH 1020 0
DWIDTH 34 0
BBX 22 25 1 0
BITMAP
003000
003000
003000
01FE00
07FF80
1FB7E0
3C30F0
383038
703038
60301C
E0301C
E0301C
E0301C
E0301C
E0301C
60301C
703038
383078
3C30F0
0FFFE0
07FF80
00FC00
003000
003000
003000
ENDCHAR
STARTCHAR 0425
ENCODING 1061
SWIDTH 1020 0
DWIDTH 34 0
BBX 18 25 2 0
BITMAP
7003C0
700380
380700
380700
1C0E00
0E0E00
0E1C00
071800
073800
03F000
03F000
01E000
01E000
03F000
03F000
073800
073800
0E1C00
0E0E00
1C0E00
380700
380700
700380
7003C0
E001C0
ENDCHAR
STARTCHAR 0426
ENCODING 1062
SWIDTH 1020 0
DWIDTH 34 0
BBX 20 30 3 -5
BITMAP
C00180
E00380
E00380
E00380
E00380
E00380
E00380
E00380
E00380
E00380
E00380
E00380
E00380
E00380
E00380
E00380
E00380
E00380
E00380
E00380
E00380
E00380
E00380
FFFFF0
FFFFF0
000030
000030
000030
000030
000030
ENDCHAR
STARTCHAR 0427
ENCODING 1063
SWIDTH 1020 0
DWIDTH 34 0
BBX 17 25 3 0
BITMAP
C00300
C00380
C00380
C00380
C00380
C00380
C00380
C00380
C00380
C00380
C00380
E00380
E00380
F00380
780F80
3FFF80
0FF380
000380
000380
000380
000380
000380
000380
000380
000380
ENDCHAR
STARTCHAR 0428
ENCODING 1064
SWIDTH 1020 0
DWIDTH 34 0
BBX 25 25 3 0
BITMAP
C01C0380
E01C0380
E01C0380
E01C0380
E01C0380
E01C0380
E01C0380
E01C0380
E01C0380
E01C0380
E01C0380
E01C0380
E01C0380
E01C0380
E01C0380
E01C0380
E01C0380
E01C0380
E01C0380
E01C0380
E01C0380
E01C0380
E01C0380
FFFFFF80
FFFFFF80
ENDCHAR
STARTCHAR 0429
ENCODING 1065
SWIDTH 1020 0
DWIDTH 34 0
BBX 28 30 3 -5
BITMAP
C01C0380
E01C0380
E01C0380
E01C0380
E01C0380
E01C0380
E01C0380
E01C0380
E01C0380
E01C0380
E01C0380
E01C0380
E01C0380
E01C0380
E01C0380
E01C0380
E01C0380
E01C0380
E01C0380
E01C0380
E01C0380
E01C0380
E01C0380
FFFFFFF0
FFFFFFF0
00000030
00000030
00000030
00000030
00000030
ENDCHAR
STARTCHAR 042A
ENCODING 1066
SWIDTH 1020 0
DWIDTH 34 0
BBX 24 25 1 0
BITMAP
FFC000
FFC000
00C000
00C000
00C000
00C000
00C000
00C000
00C000
00C000
00FFE0
00FFF8
00C03C
00C00E
00C006
00C007
00C007
00C007
00C007
00C007
00C00E
00C00E
00C03C
00FFF8
00FFC0
ENDCHAR
STARTCHAR 042B
ENCODING 1067
SWIDTH 1020 0
DWIDTH 34 0
BBX 23 25 3 0
BITMAP
C0000E
E0000E
E0000E
E0000E
E0000E
E0000E
E0000E
E0000E
E0000E
E0000E
FFE00E
FFF80E
E03C0E
E00E0E
E0070E
E0070E
E0070E
E0070E
E0070E
E0070E
E0060E
E00E0E
E03C0E
FFF80E
FFE00E
ENDCHAR
STARTCHAR 042C
ENCODING 1068
SWIDTH 1020 0
DWIDTH 34 0
BBX 16 25 3 0
BITMAP
C000
E000
E000
E000
E000
E000
E000
E000
E000
E000
FFE0
FFF8
E03C
E00E
E007
E007
E007
E007
E007
E007
E006
E00E
E03C
FFF8
FFE0
ENDCHAR
STARTCHAR 042D
ENCODING 1069
SWIDTH 1020 0
DWIDTH 34 0
BBX 17 25 3 0
BITMAP
7F8000
FFF000
C07800
003C00
000E00
000E00
000700
000700
000700
000300
000380
7FFF80
7FFF80
000380
000380
000380
000700
000700
000700
000E00
001E00
003C00
C07800
FFF000
7F8000
ENDCHAR
STARTCHAR 042E
ENCODING 1070
SWIDTH 1020 0
DWIDTH 34 0
BBX 28 25 3 0
BITMAP
0001F800
E007FE00
E01E0F00
E03C0380
E03801C0
E07001C0
E07000E0
E06000E0
E0E000E0
E0E00060
E0E00060
FFE00060
FFE00070
E0E00070
E0E00060
E0E00060
E0E000E0
E0E000E0
E07000E0
E07001C0
E03801C0
E03C0380
E01E0F00
E00FFE00
E003F800
ENDCHAR
STARTCHAR 042F
ENCODING 1071
SWIDTH 1020 0
DWIDTH 34 0
BBX 16 25 2 0
BITMAP
07FF
1FFF
3C03
7003
6003
E003
E003
E003
E003
7003
7803
3E03
0FFF
07FF
0F03
0C03
1C03
1803
3803
3803
7003
7003
6003
E003
E003
ENDCHAR
STARTCHAR 0430
ENCODING 1072
SWIDTH 1020 0
DWIDTH 34 0
BBX 14 18 2 0
BITMAP
3FE0
7FF0
6038
0018
001C
001C
001C
07FC
3FFC
781C
E01C
E01C
C01C
C03C
E03C
F0FC
7FDC
3F1C
ENDCHAR
STARTCHAR 0431
ENCODING 1073
SWIDTH 1020 0
DWIDTH 34 0
BBX 16 25 2 0
BITMAP
03FE
1FFE
3C00
3800
7000
6000
6000
E000
E3E0
EFF8
FC3C
F00E
F00E
E007
E007
E007
E007
E007
6007
6007
7006
300E
3C3C
1FF8
07E0
ENDCHAR
STARTCHAR 0432
ENCODING 1074
SWIDTH 1020 0
DWIDTH 34 0
BBX 13 18 3 0
BITMAP
FF80
FFE0
C0F0
C070
C030
C030
C060
C0C0
FF80
FFE0
C0F0
C038
C018
C018
C038
C070
FFE0
FF80
ENDCHAR
STARTCHAR 0433
ENCODING 1075
SWIDTH 1020 0
DWIDTH 34 0
BBX 13 18 3 0
BITMAP
FFF0
FFF8
C000
C000
C000
C000
C000
C000
C000
C000
C000
C000
C000
C000
C000
C000
C000
C000
ENDCHAR
STARTCHAR 0434
ENCODING 1076
SWIDTH 1020 0
DWIDTH 34 0
BBX 19 22 1 -4
BITMAP
07FF80
07FF80
060380
060380
060380
060380
060380
060380
0E0380
0E0380
0E0380
0E0380
0E0380
0C0380
1C0380
380380
FFFFE0
FFFFE0
E00060
E00060
E00060
E00060
ENDCHAR
STARTCHAR 0435
ENCODING 1077
SWIDTH 1020 0
DWIDTH 34 0
BBX 15 18 1 0
BITMAP
07E0
1FF8
3C3C
780C
700E
6006
6006
E006
FFFE
FFFE
E000
6000
6000
7000
3800
3C0C
1FFC
07F8
ENDCHAR
STARTCHAR 0436
ENCODING 1078
SWIDTH 1020 0
DWIDTH 34 0
BBX 22 17 2 0
BITMAP
603018
703038
383070
183060
1C30E0
0E31C0
073380
03FF00
03FF00
073380
0E31C0
0C30C0
1C30E0
383070
303030
703038
E0301C
ENDCHAR
STARTCHAR 0437
ENCODING 1079
SWIDTH 1020 0
DWIDTH 34 0
BBX 14 18 2 0
BITMAP
7FC0
FFF0
C078
0038
0018
0018
0038
00E0
3F80
3FF0
0078
0038
001C
001C
0018
C078
FFF0
7FC0
ENDCHAR
STARTCHAR 0438
ENCODING 1080
SWIDTH 1020 0
DWIDTH 34 0
BBX 14 18 3 0
BITMAP
C01C
C01C
C03C
C06C
C06C
C0CC
C1CC
C18C
C30C
C30C
C60C
CC0C
CC0C
D80C
D80C
F00C
E00C
E00C
ENDCHAR
STARTCHAR 0439
ENCODING 1081
SWIDTH 1020 0
DWIDTH 34 0
BBX 14 25 3 0
BITMAP
6018
6038
7870
3FE0
0FC0
0000
0000
0000
C01C
C03C
C03C
C06C
C0EC
C0CC
C18C
C38C
C30C
C60C
C60C
CC0C
D80C
D80C
F00C
E00C
E00C
ENDCHAR
STARTCHAR 043A
ENCODING 1082
SWIDTH 1020 0
DWIDTH 34 0
BBX 13 18 3 0
BITMAP
C038
C078
C0E0
C1C0
C380
C700
CE00
DC00
F800
DC00
CE00
C700
C380
C1C0
C0E0
C070
C038
C018
ENDCHAR
STARTCHAR 043B
ENCODING 1083
SWIDTH 1020 0
DWIDTH 34 0
BBX 18 18 1 0
BITMAP
07FF80
0FFFC0
0E01C0
0E01C0
0E01C0
0E01C0
0E01C0
0E01C0
0E01C0
0E01C0
0E01C0
0E01C0
0E01C0
0E01C0
0C01C0
1C01C0
F801C0
F001C0
ENDCHAR
STARTCHAR 043C
ENCODING 1084
SWIDTH 1020 0
DWIDTH 34 0
BBX 18 18 3 0
BITMAP
E001C0
E001C0
F003C0
F007C0
D806C0
DC0EC0
CC0CC0
CE18C0
C638C0
C330C0
C3F0C0
C1E0C0
C1C0C0
C000C0
C000C0
C000C0
C000C0
C000C0
ENDCHAR
STARTCHAR 043D
ENCODING 1085
SWIDTH 1020 0
DWIDTH 34 0
BBX 14 18 3 0
BITMAP
C01C
C01C
C01C
C01C
C01C
C01C
C01C
FFFC
FFFC
C01C
C01C
C01C
C01C
C01C
C01C
C01C
C01C
C00C
ENDCHAR
STARTCHAR 043E
ENCODING 1086
SWIDTH 1020 0
DWIDTH 34 0
BBX 17 18 1 0
BITMAP
07E000
1FF800
3C1E00
380E00
700700
700700
600300
E00380
E00380
E00380
E00380
600300
600700
700700
380E00
3C1E00
1FFC00
07F000
ENDCHAR
STARTCHAR 043F
ENCODING 1087
SWIDTH 1020 0
DWIDTH 34 0
BBX 14 18 3 0
BITMAP
FFFC
FFFC
C01C
C01C
C01C
C01C
C01C
C01C
C01C
C01C
C01C
C01C
C01C
C01C
C01C
C01C
C01C
C01C
ENDCHAR
STARTCHAR 0440
ENCODING 1088
SWIDTH 1020 0
DWIDTH 34 0
BBX 15 25 3 -7
BITMAP
C7E0
DFF0
F838
F01C
E00C
C00E
C00E
C00E
C00E
C00E
C00E
C00E
C00E
E01C
F01C
F838
DFF0
C7C0
C000
C000
C000
C000
C000
C000
C000
ENDCHAR
STARTCHAR 0441
ENCODING 1089
SWIDTH 1020 0
DWIDTH 34 0
BBX 13 18 1 0
BITMAP
07F8
1FF8
3C08
3800
7000
7000
6000
E000
E000
E000
E000
6000
7000
7000
3800
3C08
1FF8
07F8
ENDCHAR
STARTCHAR 0442
ENCODING 1090
SWIDTH 1020 0
DWIDTH 34 0
BBX 15 18 2 0
BITMAP
FFFE
FFFE
0300
0300
0300
0300
0300
0300
0300
0300
0300
0300
0300
0300
0300
0300
0300
0300
ENDCHAR
STARTCHAR 0443
ENCODING 1091
SWIDTH 1020 0
DWIDTH 34 0
BBX 16 26 2 -8
BITMAP
C006
E007
E006
600E
700C
701C
301C
3818
1838
1C38
1C30
0C70
0E60
0660
07E0
07C0
03C0
0380
0380
0380
0300
0700
0E00
1C00
F800
E000
ENDCHAR
STARTCHAR 0444
ENCODING 1092
SWIDTH 1020 0
DWIDTH 34 0
BBX 22 32 2 -7
BITMAP
007000
007000
007000
007000
007000
007000
007000
1F77C0
3FFFE0
70F870
E07038
E07038
C07018
C07018
C0701C
C0701C
C0701C
C0701C
C07018
C07018
E07038
E07038
70F870
3FFFE0
1F77C0
007000
007000
007000
007000
007000
007000
007000
ENDCHAR
STARTCHAR 0445
ENCODING 1093
SWIDTH 1020 0
DWIDTH 34 0
BBX 14 18 2 0
BITMAP
E00C
701C
7038
3838
1C70
1CE0
0EE0
07C0
0780
0780
07C0
0EC0
1CE0
1870
3830
7038
701C
E00C
ENDCHAR
STARTCHAR 0446
ENCODING 1094
SWIDTH 1020 0
DWIDTH 34 0
BBX 17 22 3 -4
BITMAP
C01800
C01C00
C01C00
C01C00
C01C00
C01C00
C01C00
C01C00
C01C00
C01C00
C01C00
C01C00
C01C00
C01C00
C01C00
C01C00
FFFF80
FFFF80
000380
000380
000380
000380
ENDCHAR
STARTCHAR 0447
ENCODING 1095
SWIDTH 1020 0
DWIDTH 34 0
BBX 15 18 2 0
BITMAP
E00E
E00E
E00E
E00E
E00E
E00E
E00E
E00E
E00E
E00E
701E
7FFE
1FEE
000E
000E
000E
000E
000E
ENDCHAR
STARTCHAR 0448
ENCODING 1096
SWIDTH 1020 0
DWIDTH 34 0
BBX 19 18 3 0
BITMAP
C06060
C0E060
C0E060
C0E060
C0E060
C0E060
C0E060
C0E060
C0E060
C0E060
C0E060
C0E060
C0E060
C0E060
C0E060
C0E060
FFFFE0
FFFFE0
ENDCHAR
STARTCHAR 0449
ENCODING 1097
SWIDTH 1020 0
DWIDTH 34 0
BBX 22 22 3 -4
BITMAP
C06060
C0E060
C0E060
C0E060
C0E060
C0E060
C0E060
C0E060
C0E060
C0E060
C0E060
C0E060
C0E060
C0E060
C0E060
C0E060
FFFFFC
FFFFFC
00000C
00000C
00000C
00000C
ENDCHAR
STARTCHAR 044A
ENCODING 1098
SWIDTH 1020 0
DWIDTH 34 0
BBX 19 18 1 0
BITMAP
FF0000
FF0000
070000
070000
070000
07FE00
07FF80
0703C0
0700E0
0700E0
070060
070060
070060
0700E0
0700E0
0703C0
07FF80
03FE00
ENDCHAR
STARTCHAR 044B
ENCODING 1099
SWIDTH 1020 0
DWIDTH 34 0
BBX 19 18 3 0
BITMAP
C000E0
C000E0
C000E0
C000E0
C000E0
FF80E0
FFE0E0
C0F0E0
C038E0
C018E0
C018E0
C018E0
C018E0
C038E0
C038E0
C0F0E0
FFE0E0
FF80E0
ENDCHAR
STARTCHAR 044C
ENCODING 1100
SWIDTH 1020 0
DWIDTH 34 0
BBX 13 18 3 0
BITMAP
C000
C000
C000
C000
C000
FF80
FFE0
C0F0
C038
C018
C018
C018
C018
C038
C038
C0F0
FFE0
FF80
ENDCHAR
STARTCHAR 044D
ENCODING 1101
SWIDTH 1020 0
DWIDTH 34 0
BBX 13 18 2 0
BITMAP
7F80
7FC0
40F0
0070
0038
0038
0038
0018
3FF8
3FF8
0018
0038
0038
0038
0070
C0F0
FFC0
7F00
ENDCHAR
STARTCHAR 044E
ENCODING 1102
SWIDTH 1020 0
DWIDTH 34 0
BBX 22 18 3 0
BITMAP
C01F80
C07FE0
C0F0F0
C0C038
C1C038
C1801C
C3801C
C3801C
FF801C
FF801C
C3801C
C3801C
C1801C
C1C038
C0C038
C0F070
C07FE0
C01F80
ENDCHAR
STARTCHAR 044F
ENCODING 1103
SWIDTH 1020 0
DWIDTH 34 0
BBX 14 18 2 0
BITMAP
0FF8
7FFC
701C
E01C
C01C
C01C
E01C
781C
1FFC
0FFC
1C1C
381C
301C
701C
601C
E01C
E01C
C018
ENDCHAR
STARTCHAR 0451
ENCODING 1105
SWIDTH 1020 0
DWIDTH 34 0
BBX 15 25 1 0
BITMAP
1C38
1C38
1C38
1C38
0000
0000
0000
07E0
1FF8
3C3C
780C
700E
6006
6006
E006
FFFE
FFFE
E000
6000
6000
7000
3800
3C0C
1FFC
07F8
ENDCHAR
STARTCHAR 045B
ENCODING 1115
SWIDTH 1020 0
DWIDTH 34 0
BBX 19 26 1 0
BITMAP
0E0000
0E0000
0E0000
0E0000
0E0000
FFF800
FFF800
0E0000
0E0000
0E0000
0E3E00
0EFF80
0FC3C0
0F81C0
0F00C0
0E00C0
0E00E0
0E00E0
0E00E0
0E00E0
0E00E0
0E00E0
0E00E0
0E00E0
0E00E0
0E00E0
ENDCHAR
STARTCHAR 2010
ENCODING 8208
SWIDTH 1020 0
DWIDTH 34 0
BBX 8 2 0 11
BITMAP
FF
FF
ENDCHAR
STARTCHAR 2011
ENCODING 8209
SWIDTH 480 0
DWIDTH 16 0
BBX 10 2 3 9
BITMAP
FFC0
FFC0
ENDCHAR
STARTCHAR 2012
ENCODING 8210
SWIDTH 480 0
DWIDTH 16 0
BBX 16 2 0 9
BITMAP
FFFF
FFFF
ENDCHAR
STARTCHAR 2013
ENCODING 8211
SWIDTH 480 0
DWIDTH 16 0
BBX 16 2 0 9
BITMAP
FFFF
FFFF
ENDCHAR
STARTCHAR 2014
ENCODING 8212
SWIDTH 960 0
DWIDTH 32 0
BBX 32 2 0 9
BITMAP
FFFFFFFF
FFFFFFFF
ENDCHAR
STARTCHAR 2015
ENCODING 8213
SWIDTH 1020 0
DWIDTH 34 0
BBX 34 2 0 11
BITMAP
FFFFFFFFC0
FFFFFFFFC0
ENDCHAR
STARTCHAR 2018
ENCODING 8216
SWIDTH 1020 0
DWIDTH 34 0
BBX 5 8 2 18
BITMAP
18
38
38
70
70
70
E0
E0
ENDCHAR
STARTCHAR 2019
ENCODING 8217
SWIDTH 1020 0
DWIDTH 34 0
BBX 5 8 3 18
BITMAP
38
78
70
70
E0
E0
E0
C0
ENDCHAR
STARTCHAR 201A
ENCODING 8218
SWIDTH 300 0
DWIDTH 10 0
BBX 6 9 2 -4
BITMAP
1C
3C
38
38
70
70
60
E0
E0
ENDCHAR
STARTCHAR 201C
ENCODING 8220
SWIDTH 1020 0
DWIDTH 34 0
BBX 11 8 2 18
BITMAP
3860
38E0
30E0
70C0
71C0
E1C0
E380
E380
ENDCHAR
STARTCHAR 201D
ENCODING 8221
SWIDTH 1020 0
DWIDTH 34 0
BBX 12 8 2 18
BITMAP
3C70
3870
38E0
30E0
70C0
71C0
61C0
E180
ENDCHAR
STARTCHAR 201E
ENCODING 8222
SWIDTH 480 0
DWIDTH 16 0
BBX 12 9 2 -4
BITMAP
3870
38E0
38E0
70E0
71C0
61C0
6180
E180
C380
ENDCHAR
STARTCHAR 2020
ENCODING 8224
SWIDTH 1020 0
DWIDTH 34 0
BBX 15 29 2 -4
BITMAP
0380
0380
0380
0380
0380
0380
0380
FFFE
FFFE
0380
0380
0380
0380
0380
0380
0380
0380
0380
0380
0380
0380
0380
0380
0380
0380
0380
0380
0380
0380
ENDCHAR
STARTCHAR 2021
ENCODING 8225
SWIDTH 1020 0
DWIDTH 34 0
BBX 15 29 2 -4
BITMAP
0180
0180
0180
0180
0180
0180
0180
FFFE
FFFE
0180
0180
0180
0180
0180
0180
0180
0180
FFFE
FFFE
0180
0180
0180
0180
0180
0180
0180
0180
0180
0180
ENDCHAR
STARTCHAR 2022
ENCODING 8226
SWIDTH 480 0
DWIDTH 16 0
BBX 7 7 4 9
BITMAP
3C
7E
FE
FE
FE
7E
3C
ENDCHAR
STARTCHAR 2025
ENCODING 8229
SWIDTH 1020 0
DWIDTH 34 0
BBX 20 5 7 10
BITMAP
E00070
E00070
E00070
E00070
E00070
ENDCHAR
STARTCHAR 2026
ENCODING 8230
SWIDTH 1020 0
DWIDTH 34 0
BBX 26 5 4 7
BITMAP
E01E01C0
E01E01C0
E01E01C0
E01E01C0
E00C01C0
ENDCHAR
STARTCHAR 2030
ENCODING 8240
SWIDTH 1020 0
DWIDTH 34 0
BBX 33 25 1 0
BITMAP
1F00C00000
3F80C00000
71C1800000
60C1800000
60C3000000
E0C3000000
E0C6000000
E0C6000000
60CC000000
60CC000000
71D8000000
3F98000000
1F31E03C00
0033F8FF00
006718E700
006E1DC380
00CE0DC180
00CC0D8180
018C0D8180
018C0D8180
030E0DC180
030E1DC380
060718E300
0603F8FF00
0C01E03C00
ENDCHAR
STARTCHAR 2032
ENCODING 8242
SWIDTH 1020 0
DWIDTH 34 0
BBX 5 7 2 19
BITMAP
38
38
30
70
60
E0
40
ENDCHAR
STARTCHAR 2033
ENCODING 8243
SWIDTH 1020 0
DWIDTH 34 0
BBX 11 7 2 19
BITMAP
38E0
30C0
71C0
6180
6180
C300
C300
ENDCHAR
STARTCHAR 2039
ENCODING 8249
SWIDTH 390 0
DWIDTH 13 0
BBX 7 14 3 3
BITMAP
0E
1C
18
38
70
E0
C0
C0
E0
70
30
18
1C
0E
ENDCHAR
STARTCHAR 203A
ENCODING 8250
SWIDTH 390 0
DWIDTH 13 0
BBX 8 14 3 3
BITMAP
E0
70
38
18
1C
0E
07
07
0E
0C
1C
38
70
60
ENDCHAR
STARTCHAR 203B
ENCODING 8251
SWIDTH 1020 0
DWIDTH 34 0
BBX 26 26 4 -1
BITMAP
401E00C0
601E0180
301F0300
181E0600
0C0E0C00
06001800
03003000
01806000
00C0C000
00618000
30330300
781E07C0
F80C07C0
F81E07C0
70330380
00618000
00C0C000
01806000
03003000
06001800
0C000C00
181E0600
301E0300
601F0180
C01E00C0
00040000
ENDCHAR
STARTCHAR 203C
ENCODING 8252
SWIDTH 1020 0
DWIDTH 34 0
BBX 14 25 10 0
BITMAP
E01C
E01C
E01C
E01C
E01C
E01C
E01C
E01C
E01C
E01C
E01C
E01C
E00C
E00C
E00C
E00C
E00C
E00C
0000
0000
0000
E01C
E01C
E01C
E01C
ENDCHAR
STARTCHAR 203E
ENCODING 8254
SWIDTH 600 0
DWIDTH 20 0
BBX 20 2 0 29
BITMAP
FFFFF0
FFFFF0
ENDCHAR
STARTCHAR 2044
ENCODING 8260
SWIDTH 690 0
DWIDTH 23 0
BBX 19 25 2 0
BITMAP
0000E0
0001C0
000180
000380
000700
000600
000E00
001C00
001800
003800
007000
007000
00E000
01C000
01C000
038000
030000
070000
0E0000
0C0000
1C0000
380000
300000
700000
E00000
ENDCHAR
STARTCHAR 2070
ENCODING 8304
SWIDTH 390 0
DWIDTH 13 0
BBX 11 16 1 9
BITMAP
1F00
3F80
71C0
60C0
C0E0
C060
C060
C060
C060
C060
C060
C0E0
60C0
71C0
3F80
1F00
ENDCHAR
STARTCHAR 2074
ENCODING 8308
SWIDTH 390 0
DWIDTH 13 0
BBX 12 15 0 10
BITMAP
01C0
03C0
03C0
06C0
0CC0
0CC0
18C0
30C0
60C0
60C0
FFF0
FFF0
00C0
00C0
00C0
ENDCHAR
STARTCHAR 2075
ENCODING 8309
SWIDTH 390 0
DWIDTH 13 0
BBX 9 16 2 9
BITMAP
7F00
FF80
C000
C000
C000
C000
FE00
FF00
C380
0180
0180
0180
0180
8380
FF00
7E00
ENDCHAR
STARTCHAR 2076
ENCODING 8310
SWIDTH 390 0
DWIDTH 13 0
BBX 11 16 1 9
BITMAP
0F80
3FC0
3000
6000
6000
CF00
FFC0
F0C0
E0E0
C060
C060
C060
6060
70C0
3FC0
1F00
ENDCHAR
STARTCHAR 2077
ENCODING 8311
SWIDTH 390 0
DWIDTH 13 0
BBX 9 15 2 10
BITMAP
FF80
FF80
0180
0380
0300
0700
0600
0E00
0C00
1C00
1800
1800
3800
3000
7000
ENDCHAR
STARTCHAR 2078
ENCODING 8312
SWIDTH 390 0
DWIDTH 13 0
BBX 11 16 1 9
BITMAP
1F00
7FC0
71C0
E0C0
40C0
60C0
3180
1F00
3B80
60C0
C060
C060
C060
E0E0
7FC0
1F00
ENDCHAR
STARTCHAR 2079
ENCODING 8313
SWIDTH 390 0
DWIDTH 13 0
BBX 11 16 1 9
BITMAP
1F00
7F80
61C0
C0C0
C060
C060
C0E0
61E0
7FE0
1E60
0060
00C0
00C0
0180
7F80
3E00
ENDCHAR
STARTCHAR 2080
ENCODING 8320
SWIDTH 390 0
DWIDTH 13 0
BBX 11 16 1 -1
BITMAP
1F00
3F80
71C0
60C0
C0E0
C060
C060
C060
C060
C060
C060
C0E0
60C0
71C0
3F80
1F00
ENDCHAR
STARTCHAR 2081
ENCODING 8321
SWIDTH 390 0
DWIDTH 13 0
BBX 6 15 2 0
BITMAP
1C
3C
EC
CC
8C
0C
0C
0C
0C
0C
0C
0C
0C
0C
0C
ENDCHAR
STARTCHAR 2082
ENCODING 8322
SWIDTH 390 0
DWIDTH 13 0
BBX 9 15 2 0
BITMAP
7E00
FF00
C380
0180
0180
0180
0380
0300
0600
0C00
1800
3000
6000
FF80
FF80
ENDCHAR
STARTCHAR 2083
ENCODING 8323
SWIDTH 390 0
DWIDTH 13 0
BBX 9 15 2 0
BITMAP
FF80
FF80
0300
0600
0C00
1800
3E00
3F00
0380
0180
0180
0180
8380
FF00
7E00
ENDCHAR
STARTCHAR 2084
ENCODING 8324
SWIDTH 390 0
DWIDTH 13 0
BBX 12 15 0 0
BITMAP
01C0
03C0
03C0
06C0
0CC0
0CC0
18C0
30C0
60C0
60C0
FFF0
FFF0
00C0
00C0
00C0
ENDCHAR
STARTCHAR 2085
ENCODING 8325
SWIDTH 390 0
DWIDTH 13 0
BBX 9 15 2 0
BITMAP
7F00
FF80
C000
C000
C000
C000
DE00
FF00
C380
0180
0180
0180
8380
FF00
7E00
ENDCHAR
STARTCHAR 2086
ENCODING 8326
SWIDTH 390 0
DWIDTH 13 0
BBX 11 16 1 -1
BITMAP
0F80
3FC0
3000
6000
6000
CF00
FFC0
F0C0
E0E0
C060
C060
C060
6060
70C0
3FC0
1F00
ENDCHAR
STARTCHAR 2087
ENCODING 8327
SWIDTH 390 0
DWIDTH 13 0
BBX 9 15 2 0
BITMAP
FF80
FF80
0180
0380
0300
0700
0600
0E00
0C00
1C00
1800
1800
3800
3000
7000
ENDCHAR
STARTCHAR 2088
ENCODING 8328
SWIDTH 390 0
DWIDTH 13 0
BBX 11 16 1 -1
BITMAP
1F00
7FC0
71C0
E0C0
40C0
60C0
3180
1F00
3B80
60C0
C060
C060
C060
E0E0
7FC0
1F00
ENDCHAR
STARTCHAR 2089
ENCODING 8329
SWIDTH 390 0
DWIDTH 13 0
BBX 11 16 1 -1
BITMAP
1F00
7F80
61C0
C0C0
C060
C060
C0E0
61E0
7FE0
1E60
0060
00C0
00C0
0180
7F80
3E00
ENDCHAR
STARTCHAR 2103
ENCODING 8451
SWIDTH 1020 0
DWIDTH 34 0
BBX 31 25 1 0
BITMAP
3F801FF8
7FC07FFE
60C1F80E
E0E3C002
C0638000
C0670000
60E70000
71CE0000
3F8E0000
1F0E0000
000C0000
001C0000
001C0000
001C0000
000C0000
000E0000
000E0000
000E0000
00070000
00070000
00038000
0003E002
0000F81E
00007FFE
00000FF0
ENDCHAR
STARTCHAR 2105
ENCODING 8453
SWIDTH 1020 0
DWIDTH 34 0
BBX 28 25 2 0
BITMAP
0F800600
3FC00E00
70400C00
E0001800
C0003800
C0003000
C0006000
C000E000
C000C000
C0018000
E0038000
70431F00
3FC67FC0
0FCEE1E0
001CC060
0019C070
00398070
00718030
00618030
00E18070
01C1C070
0180C060
0380E1E0
07007FC0
06001F00
ENDCHAR
STARTCHAR 2109
ENCODING 8457
SWIDTH 1020 0
DWIDTH 34 0
BBX 27 25 1 0
BITMAP
3F87FFE0
7FC7FFE0
60C7FFE0
E0E70000
C0670000
C0670000
60E70000
71C70000
3F870000
1F070000
00070000
0007FFE0
0007FFE0
00070000
00070000
00070000
00070000
00070000
00070000
00070000
00070000
00070000
00070000
00070000
00070000
ENDCHAR
STARTCHAR 210F
ENCODING 8463
SWIDTH 1020 0
DWIDTH 34 0
BBX 19 26 1 0
BITMAP
0E0000
0E0000
0E0000
0E0000
0E0000
FFF800
FFF800
0E0000
0E0000
0E0000
0E3E00
0EFF80
0FC3C0
0F81C0
0F00C0
0E00C0
0E00E0
0E00E0
0E00E0
0E00E0
0E00E0
0E00E0
0E00E0
0E00E0
0E00E0
0E00E0
ENDCHAR
STARTCHAR 2113
ENCODING 8467
SWIDTH 1020 0
DWIDTH 34 0
BBX 15 25 1 0
BITMAP
01E0
03F8
0738
0E1C
0E1C
0C0C
0C0C
0C1C
0C1C
0C1C
0C18
0C38
0C30
0C70
0CE0
0DC0
0F80
1E00
7C00
FE00
CE06
0606
070E
03FC
01F0
ENDCHAR
STARTCHAR 2116
ENCODING 8470
SWIDTH 1020 0
DWIDTH 34 0
BBX 30 25 3 0
BITMAP
E0070000
F0070000
F0070000
F8070000
F8070000
FC070000
EC070000
EE0707C0
E6071FF0
E7071C38
E3073818
E387301C
E187701C
E1C7701C
E0C7701C
E0E7701C
E067301C
E0773818
E0371C38
E03F0FF0
E03F07C0
E01F0000
E01F0000
E00F3FFC
E00F3FFC
ENDCHAR
STARTCHAR 2122
ENCODING 8482
SWIDTH 900 0
DWIDTH 30 0
BBX 25 13 2 12
BITMAP
FFE60380
FFE60380
06070780
06058780
06058D80
0604C980
0604D980
06047180
06043180
06040180
06040180
06040180
06000000
ENDCHAR
STARTCHAR 212B
ENCODING 8491
SWIDTH 1020 0
DWIDTH 34 0
BBX 21 35 1 0
BITMAP
007800
00FC00
018E00
010600
010600
010600
018400
00F800
000000
000000
007000
007800
00F800
00FC00
00DC00
01CC00
01CE00
018E00
038600
038700
030700
070300
060380
0E0380
0E01C0
0C01C0
1FFFC0
1FFFE0
1800E0
380060
380070
300070
700030
700038
E00038
ENDCHAR
STARTCHAR 2135
ENCODING 8501
SWIDTH 1020 0
DWIDTH 34 0
BBX 20 25 2 0
BITMAP
E00070
700070
700060
3800E0
1C00E0
1E00E0
0E01C0
0701C0
0381C0
07C180
0FC380
0EE380
1C7700
1C7700
383E00
381C00
381E00
300E00
700700
700380
700380
E001C0
E000E0
E000F0
C00070
ENDCHAR
STARTCHAR 2153
ENCODING 8531
SWIDTH 840 0
DWIDTH 28 0
BBX 26 25 1 0
BITMAP
0E001C00
1E001800
3E003000
6E007000
CE006000
8E00C000
0E01C000
0E018000
0E030000
0E070000
0E0EFFC0
0E0CFFC0
0E1C0180
0E380700
0E300C00
00701800
00E03F00
00C03F80
01C001C0
038000C0
030000C0
060000C0
0E004180
0C00FF80
18003E00
ENDCHAR
STARTCHAR 2154
ENCODING 8532
SWIDTH 840 0
DWIDTH 28 0
BBX 26 25 1 0
BITMAP
3F001800
FF803800
C1C03000
01C06000
00C0E000
01C0C000
0181C000
03818000
03038000
06030000
0C06FFC0
3806FFC0
700C0180
FFDC0700
FFD80C00
00381800
00303F00
00703F80
006001C0
00C000C0
00C000C0
018000C0
03804180
0300FF80
07003E00
ENDCHAR
STARTCHAR 2155
ENCODING 8533
SWIDTH 510 0
DWIDTH 17 0
BBX 15 30 1 -2
BITMAP
3808
7818
5818
1830
1830
1820
1860
1840
18C0
18C0
1980
1980
1900
1B00
02FC
06FC
0680
0C80
0C80
08B8
18FC
118C
3086
3006
6006
6186
4186
C0CC
80FC
0078
ENDCHAR
STARTCHAR 215B
ENCODING 8539
SWIDTH 840 0
DWIDTH 28 0
BBX 26 26 1 -1
BITMAP
0E001C00
1E001800
3E003000
6E007000
CE006000
8E00C000
0E01C000
0E018000
0E030000
0E070000
0E0E3E00
0E0CFF80
0E1CE380
0E39C1C0
0E318180
0070C180
00E0E300
00C03E00
01C06780
0381C180
030180C0
060180C0
0E0180C0
0C01C1C0
1800FF80
00003E00
ENDCHAR
STARTCHAR 215C
ENCODING 8540
SWIDTH 840 0
DWIDTH 28 0
BBX 25 26 2 -1
BITMAP
FF807000
FF806000
0700E000
0E00C000
1C018000
38018000
3E030000
3F070000
03860000
018E0000
018C7C00
019DFF00
0199C700
83B38380
FF330300
7C618300
00E1C600
00C07C00
01C0CF00
01838300
03830180
03030180
06030180
0E038380
0C01FF00
00007C00
ENDCHAR
STARTCHAR 215D
ENCODING 8541
SWIDTH 840 0
DWIDTH 28 0
BBX 26 26 1 -1
BITMAP
7F803800
7F803000
60007000
60006000
6000C000
6000C000
7F018000
7F838000
61C30000
00C70000
00C63E00
00CEFF80
00CCE380
41D9C1C0
FF998180
3E30C180
0070E300
00603E00
00E06780
00C1C180
01C180C0
018180C0
030180C0
0701C1C0
0600FF80
00003E00
ENDCHAR
STARTCHAR 215E
ENCODING 8542
SWIDTH 840 0
DWIDTH 28 0
BBX 25 26 2 -1
BITMAP
FF803000
FF806000
0180E000
0181C000
03018000
07038000
06070000
0E060000
0C0E0000
1C1C0000
18187C00
1839FF00
3871C700
30638380
70E30300
01C18300
0181C600
03807C00
0700CF00
06038300
0C030180
1C030180
18030180
30038380
7001FF00
00007C00
ENDCHAR
STARTCHAR 2160
ENCODING 8544
SWIDTH 1020 0
DWIDTH 34 0
BBX 3 25 3 0
BITMAP
E0
E0
E0
E0
E0
E0
E0
E0
E0
E0
E0
E0
E0
E0
E0
E0
E0
E0
E0
E0
E0
E0
E0
E0
E0
ENDCHAR
STARTCHAR 2161
ENCODING 8545
SWIDTH 1020 0
DWIDTH 34 0
BBX 12 25 3 0
BITMAP
E070
E070
E070
E070
E070
E070
E070
E070
E070
E070
E070
E070
E070
E070
E070
E070
E070
E070
E070
E070
E070
E070
E070
E070
E070
ENDCHAR
STARTCHAR 2162
ENCODING 8546
SWIDTH 1020 0
DWIDTH 34 0
BBX 20 25 3 0
BITMAP
E06070
E06070
E06070
E06070
E06070
E06070
E06070
E06070
E06070
E06070
E06070
E06070
E06070
E06070
E06070
E06070
E06070
E06070
E06070
E06070
E06070
E06070
E06070
E06070
E06070
ENDCHAR
STARTCHAR 2163
ENCODING 8547
SWIDTH 1020 0
DWIDTH 34 0
BBX 26 25 3 0
BITMAP
E70001C0
E38001C0
E3800180
E3800380
E1C00380
E1C00300
E0C00700
E0E00700
E0E00E00
E0600E00
E0700C00
E0701C00
E0301C00
E0381800
E0383800
E0183800
E01C3000
E01C7000
E00E7000
E00E6000
E006E000
E007E000
E007C000
E003C000
E0038000
ENDCHAR
STARTCHAR 2164
ENCODING 8548
SWIDTH 1020 0
DWIDTH 34 0
BBX 21 25 1 0
BITMAP
E00038
700038
700030
300070
380070
380060
1800E0
1C00E0
1C00C0
0E01C0
0E01C0
0E0180
070380
070380
030700
038700
038600
018E00
01CE00
01CC00
00DC00
00FC00
00F800
007800
007800
ENDCHAR
STARTCHAR 2165
ENCODING 8549
SWIDTH 1020 0
DWIDTH 34 0
BBX 26 25 1 0
BITMAP
E00039C0
700039C0
700031C0
300071C0
380071C0
380061C0
1800E1C0
1C00E1C0
1C01C1C0
0C01C1C0
0E01C1C0
0E0381C0
060381C0
070381C0
030701C0
030701C0
038601C0
018E01C0
01CE01C0
01CC01C0
00DC01C0
00FC01C0
00F801C0
007801C0
007801C0
ENDCHAR
STARTCHAR 2166
ENCODING 8550
SWIDTH 1020 0
DWIDTH 34 0
BBX 35 25 1 0
BITMAP
E00039C0E0
700039C0E0
700031C0E0
300071C0E0
380071C0E0
380061C0E0
1800E1C0E0
1C00E1C0E0
1C01C1C0E0
0C01C1C0E0
0E01C1C0E0
0E0381C0E0
060381C0E0
070381C0E0
030701C0E0
030701C0E0
038601C0E0
018E01C0E0
01CE01C0E0
01CC01C0E0
00DC01C0E0
00FC01C0E0
00F801C0E0
007801C0E0
007801C0E0
ENDCHAR
STARTCHAR 2167
ENCODING 8551
SWIDTH 1020 0
DWIDTH 34 0
BBX 42 25 1 0
BITMAP
E00039C1C1C0
700039C1C1C0
700031C1C1C0
300071C1C1C0
380071C1C1C0
380061C1C1C0
1800E1C1C1C0
1C00E1C1C1C0
1C01C1C1C1C0
0C01C1C1C1C0
0E01C1C1C1C0
0E0381C1C1C0
060381C1C1C0
070381C1C1C0
030701C1C1C0
030701C1C1C0
038601C1C1C0
018E01C1C1C0
01CE01C1C1C0
01CC01C1C1C0
00DC01C1C1C0
00FC01C1C1C0
00F801C1C1C0
007801C1C1C0
007801C1C1C0
ENDCHAR
STARTCHAR 2168
ENCODING 8552
SWIDTH 1020 0
DWIDTH 34 0
BBX 24 25 4 0
BITMAP
E38007
E3800E
E1C00E
E1E01C
E0E038
E07038
E07070
E03860
E01CE0
E01DC0
E00FC0
E00F80
E00780
E00F80
E00DC0
E01DC0
E038E0
E03870
E07070
E07038
E0E038
E1C01C
E1C00E
E3800E
E78007
ENDCHAR
STARTCHAR 2169
ENCODING 8553
SWIDTH 1020 0
DWIDTH 34 0
BBX 18 25 2 0
BITMAP
E001C0
700380
380380
380700
1C0E00
1C0E00
0E1C00
071C00
073800
03F000
03F000
01E000
01E000
03F000
03F000
073800
071C00
0E1C00
1C0E00
1C0E00
380700
380780
700380
E001C0
E001C0
ENDCHAR
STARTCHAR 216A
ENCODING 8554
SWIDTH 1020 0
DWIDTH 34 0
BBX 24 25 2 0
BITMAP
E001C7
700387
380387
380707
1C0E07
1C0E07
0E1C07
071C07
073807
03F007
03F007
01E007
01E007
03F007
03F007
073807
071C07
0E1C07
1C0E07
1C0E07
380707
380387
700387
E001C7
E001C7
ENDCHAR
STARTCHAR 216B
ENCODING 8555
SWIDTH 1020 0
DWIDTH 34 0
BBX 32 25 2 0
BITMAP
E001C707
70038707
38038707
38070707
1C0E0707
1C0E0707
0E1C0707
071C0707
07380707
03F00707
03F00707
01E00707
01E00707
03F00707
03F00707
07380707
071C0707
0E1C0707
1C0E0707
1C0E0707
38070707
38038707
70038707
E001C707
E001C707
ENDCHAR
STARTCHAR 2170
ENCODING 8560
SWIDTH 1020 0
DWIDTH 34 0
BBX 3 26 4 0
BITMAP
E0
E0
E0
E0
00
00
00
00
C0
E0
E0
E0
E0
E0
E0
E0
E0
E0
E0
E0
E0
E0
E0
E0
E0
E0
ENDCHAR
STARTCHAR 2171
ENCODING 8561
SWIDTH 1020 0
DWIDTH 34 0
BBX 12 26 3 0
BITMAP
E070
E070
E070
E070
0000
0000
0000
0000
E070
E070
E070
E070
E070
E070
E070
E070
E070
E070
E070
E070
E070
E070
E070
E070
E070
E070
ENDCHAR
STARTCHAR 2172
ENCODING 8562
SWIDTH 1020 0
DWIDTH 34 0
BBX 19 26 3 0
BITMAP
E0E0E0
E0E0E0
E0E0E0
E0E0E0
000000
000000
000000
000000
E0E0E0
E0E0E0
E0E0E0
E0E0E0
E0E0E0
E0E0E0
E0E0E0
E0E0E0
E0E0E0
E0E0E0
E0E0E0
E0E0E0
E0E0E0
E0E0E0
E0E0E0
E0E0E0
E0E0E0
E0E0E0
ENDCHAR
STARTCHAR 2173
ENCODING 8563
SWIDTH 1020 0
DWIDTH 34 0
BBX 21 26 3 0
BITMAP
E00000
E00000
E00000
E00000
000000
000000
000000
000000
E70038
E70038
E30030
E38070
E38070
E1C060
E1C0E0
E0C0E0
E0E0C0
E0E1C0
E061C0
E07180
E07380
E03300
E03B00
E03F00
E01E00
E01E00
ENDCHAR
STARTCHAR 2174
ENCODING 8564
SWIDTH 1020 0
DWIDTH 34 0
BBX 17 18 1 0
BITMAP
E00380
700300
700700
300700
380E00
380E00
180C00
1C1C00
1C1C00
0C1800
0E3800
0E3800
063000
077000
037000
036000
03E000
01C000
ENDCHAR
STARTCHAR 2175
ENCODING 8565
SWIDTH 1020 0
DWIDTH 34 0
BBX 21 26 1 0
BITMAP
000018
000018
000018
000018
000000
000000
000000
000000
E00398
600718
700718
300718
380E18
380E18
180C18
1C1C18
1C1C18
0C1818
0E3818
0E3818
063018
077018
037018
036018
03E018
01C018
ENDCHAR
STARTCHAR 2176
ENCODING 8566
SWIDTH 1020 0
DWIDTH 34 0
BBX 29 26 1 0
BITMAP
00001838
00001838
00001838
00001838
00000000
00000000
00000000
00000000
E0039838
60071838
70071838
30071838
380E1838
380E1838
180C1838
1C1C1838
1C1C1838
0C181838
0E381838
0E381838
06301838
07701838
03701838
03601838
03E01838
01C01838
ENDCHAR
STARTCHAR 2177
ENCODING 8567
SWIDTH 1020 0
DWIDTH 34 0
BBX 37 26 1 0
BITMAP
0000183838
0000183838
0000183838
0000183838
0000000000
0000000000
0000000000
0000000000
E003983838
6007183838
7007183838
3007183838
380E183838
380E183838
180C183838
1C1C183838
1C1C183838
0C18183838
0E38183838
0E38183838
0630183838
0770183838
0370183838
0360183838
03E0183838
01C0183838
ENDCHAR
STARTCHAR 2178
ENCODING 8568
SWIDTH 1020 0
DWIDTH 34 0
BBX 20 26 3 0
BITMAP
E00000
E00000
E00000
E00000
000000
000000
000000
000000
E30070
E38070
E1C0E0
E0C0C0
E0E1C0
E07380
E03300
E03F00
E01E00
E01E00
E03E00
E03700
E07380
E0E1C0
E0C1C0
E1C0E0
E38070
E30070
ENDCHAR
STARTCHAR 2179
ENCODING 8569
SWIDTH 1020 0
DWIDTH 34 0
BBX 15 18 2 0
BITMAP
E00E
701C
7018
3838
1C70
0C60
0EE0
07C0
0380
0380
07C0
0EE0
0C60
1C70
3838
7018
701C
E00E
ENDCHAR
STARTCHAR 217A
ENCODING 8570
SWIDTH 1020 0
DWIDTH 34 0
BBX 20 26 2 0
BITMAP
000030
000030
000030
000030
000000
000000
000000
000000
E00E30
701C30
701830
383830
1C7030
0C6030
0EE030
07C030
038030
038030
07C030
0EE030
0C6030
1C7030
383830
701830
701C30
E00E30
ENDCHAR
STARTCHAR 217B
ENCODING 8571
SWIDTH 1020 0
DWIDTH 34 0
BBX 28 26 2 0
BITMAP
00003070
00003070
00003070
00003070
00000000
00000000
00000000
00000000
E00E3070
701C3070
70183070
38383070
1C703070
0C603070
0EE03070
07C03070
03803070
03803070
07C03070
0EE03070
0C603070
1C703070
38383070
70183070
701C3070
E00E3070
ENDCHAR
STARTCHAR 217F
ENCODING 8575
SWIDTH 1020 0
DWIDTH 34 0
BBX 22 18 3 0
BITMAP
C783E0
DFC7F8
D8EE38
F0781C
E0781C
C0300C
C0300C
C0300C
C0300C
C0300C
C0300C
C0300C
C0300C
C0300C
C0300C
C0300C
C0300C
C0300C
ENDCHAR
STARTCHAR 2190
ENCODING 8592
SWIDTH 1020 0
DWIDTH 34 0
BBX 24 16 5 4
BITMAP
00C000
01C000
038000
070000
0E0000
1C0000
780000
FFFFFF
FFFFFF
780000
1C0000
0E0000
070000
038000
01C000
00C000
ENDCHAR
STARTCHAR 2191
ENCODING 8593
SWIDTH 1020 0
DWIDTH 34 0
BBX 16 24 9 1
BITMAP
0180
03C0
07E0
07F0
0FB0
1DB8
399C
718E
E187
C183
0180
0180
0180
0180
0180
0180
0180
0180
0180
0180
0180
0180
0180
0180
ENDCHAR
STARTCHAR 2192
ENCODING 8594
SWIDTH 1020 0
DWIDTH 34 0
BBX 25 16 5 5
BITMAP
00010000
0003C000
0001E000
0000F000
00003800
00001C00
00000E00
FFFFFF80
FFFFFF00
00000E00
00001C00
00003800
0000F000
0001E000
0003C000
00010000
ENDCHAR
STARTCHAR 2193
ENCODING 8595
SWIDTH 1020 0
DWIDTH 34 0
BBX 16 24 9 0
BITMAP
0180
0180
0180
0180
0180
0180
0180
0180
0180
0180
0180
0180
0180
0180
C183
E187
718E
399C
1D98
0DB8
0FF0
07E0
03C0
0180
ENDCHAR
STARTCHAR 2194
ENCODING 8596
SWIDTH 1020 0
DWIDTH 34 0
BBX 28 16 3 5
BITMAP
00C03000
01C03800
03801C00
07000E00
0E000700
1C0003C0
780001E0
FFFFFFF0
FFFFFFF0
780001E0
1C0003C0
0E000700
07000E00
03801C00
01C03800
00C03000
ENDCHAR
STARTCHAR 2195
ENCODING 8597
SWIDTH 1020 0
DWIDTH 34 0
BBX 16 27 9 -1
BITMAP
0180
03C0
07E0
0FF0
1DB8
399C
318E
7186
E187
4182
0180
0180
0180
0180
0180
0180
0180
4182
E183
7186
718E
399C
1DB8
0FF0
07E0
03C0
0180
ENDCHAR
STARTCHAR 2196
ENCODING 8598
SWIDTH 1020 0
DWIDTH 34 0
BBX 18 19 8 3
BITMAP
C00000
FFF000
FFF000
F80000
FC0000
DE0000
CF0000
C78000
C3C000
C1E000
E0F000
E07800
E03C00
001E00
000F00
000780
0003C0
0001C0
000080
ENDCHAR
STARTCHAR 2197
ENCODING 8599
SWIDTH 1020 0
DWIDTH 34 0
BBX 17 18 9 3
BITMAP
000180
07FF80
07FF80
000780
000F80
001D80
003980
007180
00E180
01C180
038180
070180
0E0380
1C0000
380000
700000
E00000
C00000
ENDCHAR
STARTCHAR 2198
ENCODING 8600
SWIDTH 1020 0
DWIDTH 34 0
BBX 18 18 8 4
BITMAP
E00000
F00000
780000
3C0000
1E0000
0F0180
078180
03C1C0
01E1C0
00F1C0
0078C0
003CC0
001EC0
000FC0
0007C0
03FFC0
03FFC0
000FC0
ENDCHAR
STARTCHAR 2199
ENCODING 8601
SWIDTH 1020 0
DWIDTH 34 0
BBX 18 18 8 4
BITMAP
0000C0
0001C0
000380
000700
000E00
601C00
603800
607000
60E000
E1C000
E38000
E70000
CE0000
DC0000
F80000
FFF000
FFF800
FC0000
ENDCHAR
STARTCHAR 21C4
ENCODING 8644
SWIDTH 1020 0
DWIDTH 34 0
BBX 27 25 4 0
BITMAP
01000000
03807000
07C07000
0FE07000
1FF07000
3BB87000
739C7000
E38E7000
E3867000
C3867000
03807000
03807000
03807000
03807000
03807000
03987040
039870E0
039C71C0
038E7380
03877700
0383FE00
0381FC00
0380F800
03807000
00003000
ENDCHAR
STARTCHAR 21C5
ENCODING 8645
SWIDTH 1020 0
DWIDTH 34 0
BBX 27 25 4 0
BITMAP
01000000
03807000
07C07000
0FE07000
1FF07000
3BB87000
739C7000
E38E7000
E3867000
C3867000
03807000
03807000
03807000
03807000
03807000
03987040
039870E0
039C71C0
038E7380
03877700
0383FE00
0381FC00
0380F800
03807000
00003000
ENDCHAR
STARTCHAR 21C6
ENCODING 8646
SWIDTH 1020 0
DWIDTH 34 0
BBX 25 27 5 -1
BITMAP
00800000
01C00000
07800000
0F000000
1E000000
38000000
70000000
FFFFFF00
FFFFFF00
70000000
38000000
1C010000
0F038000
0781E000
01C07000
00803800
00001C00
00000E00
FFFFFF80
FFFFFF00
00000E00
00001C00
00003800
0000F000
0001E000
0003C000
00010000
ENDCHAR
STARTCHAR 21D0
ENCODING 8656
SWIDTH 1020 0
DWIDTH 34 0
BBX 24 16 5 4
BITMAP
01C000
038000
070000
0C0000
180000
3FFFFF
7FFFFF
C00000
C00000
7FFFFF
3FFFFF
180000
0C0000
070000
038000
00C000
ENDCHAR
STARTCHAR 21D1
ENCODING 8657
SWIDTH 1020 0
DWIDTH 34 0
BBX 16 25 9 0
BITMAP
0100
0180
03C0
0660
0E70
1E78
367C
666C
E666
C663
8661
0660
0660
0660
0660
0660
0660
0660
0660
0660
0660
0660
0660
0660
0660
ENDCHAR
STARTCHAR 21D2
ENCODING 8658
SWIDTH 1020 0
DWIDTH 34 0
BBX 25 18 5 3
BITMAP
00010000
00038000
0001C000
00006000
00003000
00001800
FFFFFC00
FFFFFE00
00000380
00000380
FFFFFE00
FFFFFC00
00001800
00003000
00006000
0001C000
00038000
00010000
ENDCHAR
STARTCHAR 21D3
ENCODING 8659
SWIDTH 1020 0
DWIDTH 34 0
BBX 17 25 9 0
BITMAP
023000
023000
023000
023000
023000
023000
023000
023000
023000
023000
023000
023000
023000
023000
023080
C23180
623300
323600
1A3C00
0E3C00
063800
033000
03E000
01C000
008000
ENDCHAR
STARTCHAR 21D4
ENCODING 8660
SWIDTH 1020 0
DWIDTH 34 0
BBX 28 18 3 3
BITMAP
00402000
00C03000
01801800
03000C00
06000600
0C000380
3FFFFFC0
7FFFFFE0
E0000070
E0000070
7FFFFFE0
3FFFFFC0
0C000380
06000600
03000C00
01801800
00C03000
00402000
ENDCHAR
STARTCHAR 21E6
ENCODING 8678
SWIDTH 1020 0
DWIDTH 34 0
BBX 25 26 5 -1
BITMAP
03FFC000
03FFC000
0300C000
0300C000
0300C000
0300C000
0300C000
0300C000
0300C000
0300C000
0300C000
FF00FF80
FF00FF00
60000600
30000C00
18001800
0C001000
04002000
02006000
0300C000
01818000
00C30000
00660000
00340000
00180000
00080000
ENDCHAR
STARTCHAR 21E7
ENCODING 8679
SWIDTH 1020 0
DWIDTH 34 0
BBX 24 26 5 0
BITMAP
001800
001C00
002400
006200
00C300
018180
0300C0
060060
040030
080010
180008
30000C
600006
FF00FF
FF00FF
0300C0
0300C0
0300C0
0300C0
0300C0
0300C0
0300C0
0300C0
0300C0
03FFC0
03FFC0
ENDCHAR
STARTCHAR 21E8
ENCODING 8680
SWIDTH 1020 0
DWIDTH 34 0
BBX 26 25 5 -1
BITMAP
00180000
001C0000
001E0000
001B0000
00198000
0018C000
FFF83000
80001800
80000C00
80000600
80000300
80000180
800001C0
80000700
80000E00
80001C00
FFF83800
FFF87000
0018E000
00198000
001F0000
001E0000
001C0000
00180000
00100000
ENDCHAR
STARTCHAR 21E9
ENCODING 8681
SWIDTH 1020 0
DWIDTH 34 0
BBX 25 26 5 -1
BITMAP
03FFC000
03FFC000
0300C000
0300C000
0300C000
0300C000
0300C000
0300C000
0300C000
0300C000
0300C000
FF00FF80
FF00FF00
60000600
30000C00
18001800
0C001000
04002000
02006000
0300C000
01818000
00C30000
00660000
00340000
00180000
00080000
ENDCHAR
STARTCHAR 2200
ENCODING 8704
SWIDTH 1020 0
DWIDTH 34 0
BBX 21 25 1 0
BITMAP
E00038
600038
700070
700070
300070
3800E0
3800E0
1FFFE0
1FFFC0
0C01C0
0E0180
0E0380
060380
070300
070700
030700
030600
038E00
018E00
018C00
00DC00
00D800
00D800
007800
007000
ENDCHAR
STARTCHAR 2202
ENCODING 8706
SWIDTH 1020 0
DWIDTH 34 0
BBX 18 25 1 0
BITMAP
07F000
3FFC00
7C1E00
200700
000700
000380
000380
000380
07F180
1FFDC0
3C0FC0
3807C0
7003C0
7001C0
E001C0
E001C0
E001C0
E001C0
6001C0
700180
700380
380700
1C0F00
0FFE00
03F000
ENDCHAR
STARTCHAR 2203
ENCODING 8707
SWIDTH 1020 0
DWIDTH 34 0
BBX 14 25 3 0
BITMAP
FFFC
FFFC
001C
001C
001C
001C
001C
001C
001C
001C
001C
FFFC
FFFC
001C
001C
001C
001C
001C
001C
001C
001C
001C
001C
FFFC
FFFC
ENDCHAR
STARTCHAR 2205
ENCODING 8709
SWIDTH 1020 0
DWIDTH 34 0
BBX 20 26 1 0
BITMAP
01F830
07FE70
0F07E0
1C03E0
1C01C0
3803C0
3807C0
300EE0
700EE0
701CE0
7038E0
7070E0
7070E0
70E0E0
71C0E0
7180E0
7380E0
3700E0
3E00E0
3C01C0
1C01C0
3C0380
7F0700
E7FE00
E1F800
400000
ENDCHAR
STARTCHAR 2206
ENCODING 8710
SWIDTH 1020 0
DWIDTH 34 0
BBX 20 25 7 0
BITMAP
00F000
00F000
00F000
01F800
019800
039800
039C00
030C00
070E00
070E00
060600
0E0700
0E0700
0C0300
1C0380
1C0380
380180
3801C0
3801C0
7000E0
7000E0
700060
E00070
FFFFF0
FFFFF0
ENDCHAR
STARTCHAR 2207
ENCODING 8711
SWIDTH 1020 0
DWIDTH 34 0
BBX 21 25 1 0
BITMAP
FFFFF8
7FFFF8
700070
700070
300070
3800E0
3800E0
1800E0
1C01C0
1C01C0
0C0180
0E0380
060380
060300
070700
030700
030600
038E00
018E00
018C00
01DC00
00D800
00D800
007800
007000
ENDCHAR
STARTCHAR 2208
ENCODING 8712
SWIDTH 1020 0
DWIDTH 34 0
BBX 18 16 1 1
BITMAP
03FFC0
0FFFC0
1E0000
380000
700000
600000
E00000
FFFFC0
FFFFC0
E00000
600000
700000
380000
1E0000
0FFFC0
03FFC0
ENDCHAR
STARTCHAR 2209
ENCODING 8713
SWIDTH 510 0
DWIDTH 17 0
BBX 14 23 1 2
BITMAP
0070
0060
01FC
07FC
1EE0
38C0
30C0
70C0
61C0
E180
E180
FFFC
FFFC
C300
E300
6300
7300
7700
3E00
1E00
0FFC
0FFC
0C00
ENDCHAR
STARTCHAR 220B
ENCODING 8715
SWIDTH 1020 0
DWIDTH 34 0
BBX 18 16 2 1
BITMAP
FFF000
FFFC00
001E00
000700
000380
000180
000180
FFFFC0
FFFFC0
000180
000180
000380
000700
001E00
FFFC00
FFF000
ENDCHAR
STARTCHAR 2211
ENCODING 8721
SWIDTH 1020 0
DWIDTH 34 0
BBX 19 32 2 -7
BITMAP
FFFFE0
FFFFE0
700000
780000
380000
1C0000
1E0000
0E0000
070000
038000
03C000
01C000
00E000
007000
007800
003800
007000
00F000
00E000
01C000
03C000
038000
070000
0F0000
0E0000
1C0000
1C0000
380000
700000
700000
FFFFE0
FFFFE0
ENDCHAR
STARTCHAR 2212
ENCODING 8722
SWIDTH 1020 0
DWIDTH 34 0
BBX 22 2 6 11
BITMAP
FFFFFC
FFFFFC
ENDCHAR
STARTCHAR 2213
ENCODING 8723
SWIDTH 1020 0
DWIDTH 34 0
BBX 20 23 3 -2
BITMAP
FFFFF0
FFFFF0
000000
000000
000000
006000
006000
006000
006000
006000
006000
006000
006000
FFFFF0
FFFFF0
006000
006000
006000
006000
006000
006000
006000
006000
ENDCHAR
STARTCHAR 221A
ENCODING 8730
SWIDTH 1020 0
DWIDTH 34 0
BBX 23 31 2 -3
BITMAP
000006
000006
00000E
00000C
00000C
00001C
000018
000038
000038
000030
000070
000070
000060
FC00E0
FC00C0
1C00C0
0E01C0
0E0180
060180
070380
070300
030300
038700
038600
018600
01CE00
00CC00
00DC00
00FC00
007800
007800
ENDCHAR
STARTCHAR 221D
ENCODING 8733
SWIDTH 1020 0
DWIDTH 34 0
BBX 22 14 1 2
BITMAP
0F807C
1FE0FC
3871C0
703B00
601B00
E00E00
E00E00
E00E00
E00E00
601B00
701B00
3871C0
1FE0FC
0F807C
ENDCHAR
STARTCHAR 221E
ENCODING 8734
SWIDTH 1020 0
DWIDTH 34 0
BBX 27 14 1 2
BITMAP
0F807E00
1FE0FF00
3871C380
703B01C0
601A00C0
E00E00C0
E00E00E0
E00E00E0
E00E00C0
601A00C0
701B01C0
3871C380
1FE0FF00
0F807E00
ENDCHAR
STARTCHAR 221F
ENCODING 8735
SWIDTH 1020 0
DWIDTH 34 0
BBX 20 21 3 0
BITMAP
C00000
C00000
C00000
C00000
C00000
C00000
C00000
C00000
C00000
C00000
C00000
C00000
C00000
C00000
C00000
C00000
C00000
C00000
C00000
FFFFF0
FFFFF0
ENDCHAR
STARTCHAR 2220
ENCODING 8736
SWIDTH 1020 0
DWIDTH 34 0
BBX 22 22 2 0
BITMAP
000600
000F00
000E00
001C00
001C00
003800
007000
007000
00E000
01C000
01C000
038000
070000
070000
0E0000
1E0000
1C0000
380000
780000
700000
FFFFFC
FFFFFC
ENDCHAR
STARTCHAR 2225
ENCODING 8741
SWIDTH 990 0
DWIDTH 33 0
BBX 18 29 8 -2
BITMAP
0071C0
006180
006180
00E380
00C300
00C300
01C700
018600
038600
030E00
030C00
070C00
061C00
061800
0E3800
0C3000
0C3000
1C7000
186000
186000
38E000
30C000
30C000
71C000
618000
E18000
C38000
C30000
C30000
ENDCHAR
STARTCHAR 2226
ENCODING 8742
SWIDTH 510 0
DWIDTH 17 0
BBX 13 29 2 -2
BITMAP
0718
0618
0618
0638
0630
0C30
0C30
8C30
CC70
FC60
7860
3860
1C60
1EC0
3FC0
33C0
31C0
31E0
71F0
61B8
6198
6180
6300
E300
C300
C300
C700
C600
8600
ENDCHAR
STARTCHAR 2227
ENCODING 8743
SWIDTH 1020 0
DWIDTH 34 0
BBX 17 19 1 0
BITMAP
01C000
036000
036000
077000
067000
063000
0E3800
0E3800
0C1800
1C1C00
1C1C00
180C00
380E00
380E00
300600
700700
700700
600300
E00380
ENDCHAR
STARTCHAR 2228
ENCODING 8744
SWIDTH 1020 0
DWIDTH 34 0
BBX 15 20 2 0
BITMAP
C006
C006
E00E
E00E
600C
701C
701C
3018
3818
3838
1830
1830
1C70
0C60
0C60
0EE0
06C0
06C0
07C0
0380
ENDCHAR
STARTCHAR 2229
ENCODING 8745
SWIDTH 1020 0
DWIDTH 34 0
BBX 16 20 3 0
BITMAP
07E0
1FF8
381C
700E
E007
C007
C003
C003
C003
C003
C003
C003
C003
C003
C003
C003
C003
C003
C003
C003
ENDCHAR
STARTCHAR 222A
ENCODING 8746
SWIDTH 1020 0
DWIDTH 34 0
BBX 16 20 3 -1
BITMAP
C003
C003
C003
C003
C003
C003
C003
C003
C003
C003
C003
C003
C003
C003
C007
E007
700E
381C
1FF8
07E0
ENDCHAR
STARTCHAR 222B
ENCODING 8747
SWIDTH 1020 0
DWIDTH 34 0
BBX 16 32 2 -7
BITMAP
003F
007F
00E0
00E0
01C0
01C0
01C0
01C0
01C0
01C0
01C0
01C0
01C0
01C0
0180
0180
0380
0380
0380
0380
0380
0380
0380
0380
0380
0380
0380
0300
0700
0F00
FE00
FC00
ENDCHAR
STARTCHAR 222C
ENCODING 8748
SWIDTH 1020 0
DWIDTH 34 0
BBX 27 32 2 -7
BITMAP
003F07E0
007F1FC0
00E03C00
01C03800
01C03800
01C03800
01C03800
01C03000
01C07000
01C07000
01C07000
01C07000
01807000
03807000
03807000
03807000
03807000
03807000
03807000
03806000
03806000
0380E000
0380E000
0380E000
0300E000
0300E000
0700E000
0700E000
0700E000
0F01C000
FE3FC000
F83F0000
ENDCHAR
STARTCHAR 222D
ENCODING 8749
SWIDTH 1020 0
DWIDTH 34 0
BBX 37 32 1 -7
BITMAP
001F87E1F8
007F9FE7F8
00701C0700
00E0380E00
00E0380E00
00E0380E00
00E0380E00
00E0380E00
00E0380E00
00E0380E00
00C0300C00
01C0700C00
01C0701C00
01C0701C00
01C0701C00
01C0701C00
01C0701C00
01C0701C00
01C0701C00
01C0701C00
01C0701C00
01C0701C00
0180601C00
0180601800
0380E01800
0380E03800
0380E03800
0380E03800
0380E03800
0701C07000
FF3FCFF000
FC3F0FC000
ENDCHAR
STARTCHAR 222E
ENCODING 8750
SWIDTH 1020 0
DWIDTH 34 0
BBX 17 32 2 -7
BITMAP
001F80
007F80
007000
00E000
00E000
00E000
00E000
01F000
0FFC00
1FFE00
3CCF00
71C700
E1C380
E1C380
C1C180
C1C180
C1C180
C1C180
E1C380
E1C380
71C700
39CE00
1FFC00
0FF000
038000
038000
038000
038000
038000
070000
FF0000
FC0000
ENDCHAR
STARTCHAR 2234
ENCODING 8756
SWIDTH 1020 0
DWIDTH 34 0
BBX 17 18 4 0
BITMAP
01C000
01C000
01C000
01C000
01C000
000000
000000
000000
000000
000000
000000
000000
000000
E00380
E00380
E00380
E00380
E00380
ENDCHAR
STARTCHAR 2235
ENCODING 8757
SWIDTH 1020 0
DWIDTH 34 0
BBX 17 18 4 0
BITMAP
E00380
E00380
E00380
E00380
E00380
000000
000000
000000
000000
000000
000000
000000
000000
01C000
01C000
01C000
01C000
01C000
ENDCHAR
STARTCHAR 223C
ENCODING 8764
SWIDTH 1020 0
DWIDTH 34 0
BBX 30 8 2 8
BITMAP
03F00000
0FFC0000
3FFF001C
7C1F803C
F007E0F8
E003FFF0
4000FFE0
00003F00
ENDCHAR
STARTCHAR 223D
ENCODING 8765
SWIDTH 1020 0
DWIDTH 34 0
BBX 27 14 1 2
BITMAP
06007E00
1E01FF00
3803C380
700381C0
600700C0
E00600C0
E00E00E0
E00C00E0
E00C00C0
601C00C0
703801C0
38780380
1FF01F00
0FC01C00
ENDCHAR
STARTCHAR 2243
ENCODING 8771
SWIDTH 1020 0
DWIDTH 34 0
BBX 20 11 3 5
BITMAP
1F0000
3FC000
70E030
E070F0
403FE0
000F80
000000
000000
000000
FFFFF0
FFFFF0
ENDCHAR
STARTCHAR 2245
ENCODING 8773
SWIDTH 510 0
DWIDTH 17 0
BBX 13 15 2 5
BITMAP
7800
FE08
87F8
01F0
0000
0000
0000
FFF8
FFF8
0000
0000
0000
0000
FFF8
FFF8
ENDCHAR
STARTCHAR 2248
ENCODING 8776
SWIDTH 510 0
DWIDTH 17 0
BBX 13 11 2 7
BITMAP
7800
FE08
87F8
01F0
0000
0000
0000
7800
FE08
87F8
01F0
ENDCHAR
STARTCHAR 2252
ENCODING 8786
SWIDTH 1020 0
DWIDTH 34 0
BBX 20 23 3 -2
BITMAP
380000
380000
380000
380000
000000
000000
FFFFF0
FFFFF0
000000
000000
000000
000000
000000
000000
FFFFF0
FFFFF0
000000
000000
0001C0
0001C0
0001C0
0001C0
0001C0
ENDCHAR
STARTCHAR 2260
ENCODING 8800
SWIDTH 1020 0
DWIDTH 34 0
BBX 20 20 3 0
BITMAP
000800
000C00
001C00
001800
001800
FFFFF0
FFFFF0
007000
007000
006000
00E000
00E000
00C000
FFFFF0
FFFFF0
018000
038000
030000
030000
030000
ENDCHAR
STARTCHAR 2261
ENCODING 8801
SWIDTH 1020 0
DWIDTH 34 0
BBX 20 14 3 3
BITMAP
FFFFF0
FFFFF0
000000
000000
000000
000000
FFFFF0
FFFFF0
000000
000000
000000
000000
FFFFF0
FFFFF0
ENDCHAR
STARTCHAR 2262
ENCODING 8802
SWIDTH 510 0
DWIDTH 17 0
BBX 13 23 2 1
BITMAP
00E0
00C0
00C0
01C0
FFF8
FFF8
0180
0380
0300
0300
FFF8
FFF8
0600
0E00
0E00
0C00
0C00
FFF8
FFF8
1800
1800
3800
3000
ENDCHAR
STARTCHAR 2266
ENCODING 8806
SWIDTH 1020 0
DWIDTH 34 0
BBX 20 26 3 -3
BITMAP
000070
0001F0
000FC0
007E00
03F000
0F8000
7C0000
E00000
E00000
FC0000
1F8000
03F000
007C00
001F80
0003F0
000070
000000
000000
FFFFF0
FFFFF0
000000
000000
000000
000000
FFFFF0
FFFFF0
ENDCHAR
STARTCHAR 2267
ENCODING 8807
SWIDTH 1020 0
DWIDTH 34 0
BBX 20 26 3 -3
BITMAP
C00000
F80000
3F0000
07E000
00F800
003F00
0007E0
0000F0
000070
0003E0
001F80
00FC00
07E000
3F0000
FC0000
E00000
000000
000000
FFFFF0
FFFFF0
000000
000000
000000
000000
FFFFF0
FFFFF0
ENDCHAR
STARTCHAR 226A
ENCODING 8810
SWIDTH 1020 0
DWIDTH 34 0
BBX 28 21 2 0
BITMAP
00060070
001E00F0
003C03C0
00F00780
01E01E00
07807800
1E00F000
3C03C000
F0070000
C00E0000
C00E0000
F00F0000
3803C000
1E00E000
07807800
03C01E00
00F00F00
003803C0
001E01E0
00060070
00020000
ENDCHAR
STARTCHAR 226B
ENCODING 8811
SWIDTH 1020 0
DWIDTH 34 0
BBX 28 21 3 0
BITMAP
C00C0000
F00F0000
7803C000
1E01E000
07007800
03C01C00
00F00F00
007803C0
001E01E0
00060070
00060070
001E00E0
003803C0
00F00F00
03C01E00
07807800
1E00F000
3C03C000
F00F0000
C00E0000
80080000
ENDCHAR
STARTCHAR 2282
ENCODING 8834
SWIDTH 1020 0
DWIDTH 34 0
BBX 20 16 1 1
BITMAP
03FFF0
0FFFF0
1E0000
380000
700000
600000
E00000
E00000
E00000
E00000
600000
700000
380000
1E0000
0FFFF0
03FFF0
ENDCHAR
STARTCHAR 2283
ENCODING 8835
SWIDTH 1020 0
DWIDTH 34 0
BBX 20 16 2 1
BITMAP
FFFC00
FFFF80
0003C0
0000E0
000060
000070
000030
000030
000030
000030
000070
000060
0000E0
0003C0
FFFF80
FFFC00
ENDCHAR
STARTCHAR 2286
ENCODING 8838
SWIDTH 1020 0
DWIDTH 34 0
BBX 20 23 3 -1
BITMAP
03FFF0
0FFFF0
1E0000
380000
700000
600000
E00000
E00000
E00000
E00000
E00000
600000
700000
380000
1E0000
0FFFF0
03FFF0
000000
000000
000000
000000
FFFFF0
FFFFF0
ENDCHAR
STARTCHAR 2287
ENCODING 8839
SWIDTH 1020 0
DWIDTH 34 0
BBX 20 23 3 -1
BITMAP
FFFC00
FFFF00
0007C0
0001C0
0000E0
000060
000070
000070
000030
000070
000070
000060
0000E0
0001C0
000780
FFFF00
FFFC00
000000
000000
000000
000000
FFFFF0
FFFFF0
ENDCHAR
STARTCHAR 228A
ENCODING 8842
SWIDTH 510 0
DWIDTH 17 0
BBX 14 24 1 0
BITMAP
07FC
1FFC
3800
7000
6000
E000
E000
C000
C000
E000
E000
6000
7000
3800
1FFC
07FC
0000
0000
01C0
0180
7FFC
7FFC
0300
0600
ENDCHAR
STARTCHAR 228B
ENCODING 8843
SWIDTH 510 0
DWIDTH 17 0
BBX 14 24 2 0
BITMAP
FF80
FFE0
00F0
0030
0038
0018
0018
001C
001C
0018
0018
0038
0030
00F0
FFE0
FF80
0000
0000
0300
0300
FFF8
FFF8
0600
0C00
ENDCHAR
STARTCHAR 2295
ENCODING 8853
SWIDTH 1020 0
DWIDTH 34 0
BBX 26 25 1 -3
BITMAP
00FFC000
038C7000
060C1800
0C0C0C00
180C0600
300C0300
200C0100
600C0180
400C0180
400C0080
C00C0080
FFFFFFC0
FFFFFFC0
C00C0080
400C0080
400C0180
600C0180
200C0100
300C0300
180C0600
0C0C0C00
060C1800
038C7000
01FFC000
001E0000
ENDCHAR
STARTCHAR 2296
ENCODING 8854
SWIDTH 1020 0
DWIDTH 34 0
BBX 26 25 1 -3
BITMAP
007F0000
01FFE000
07C0F000
0E001C00
1C000E00
38000600
30000300
60000100
60000180
40000180
C0000080
C3FFF080
C3FFF0C0
C0000080
C0000080
40000180
60000180
60000180
30000300
38000600
1C000E00
0E001C00
0780F000
01FFE000
007F8000
ENDCHAR
STARTCHAR 2297
ENCODING 8855
SWIDTH 1020 0
DWIDTH 34 0
BBX 26 25 1 -3
BITMAP
007F0000
01FFE000
07C0F000
0E003C00
1C000E00
36001A00
33003300
61806100
60C0C180
40618080
C0330080
C01E0080
C01C00C0
C03E0080
C0730080
40E18180
61C0C180
63806180
37003300
3E001E00
1C000E00
0E001C00
07C0F000
01FFE000
007F8000
ENDCHAR
STARTCHAR 2298
ENCODING 8856
SWIDTH 1020 0
DWIDTH 34 0
BBX 26 25 1 -3
BITMAP
007F0000
01FFE000
07C0F000
0E003C00
1C000E00
38001A00
30003300
60006100
6000C180
60018080
C0030080
C0060080
C00C00C0
C0180080
C0300080
40600180
40C00180
61800380
23000300
36000600
1C000E00
0E003C00
07C0F000
01FFE000
007F8000
ENDCHAR
STARTCHAR 229D
ENCODING 8861
SWIDTH 1020 0
DWIDTH 34 0
BBX 26 25 1 -3
BITMAP
007F0000
01FFE000
07C0F000
0E001C00
1C000E00
38000600
30000300
60000100
60000180
40000180
C0000080
C3FFF080
C3FFF0C0
C0000080
C0000080
40000180
60000180
60000180
30000300
38000600
1C000E00
0E001C00
0780F000
01FFE000
007F8000
ENDCHAR
STARTCHAR 22A0
ENCODING 8864
SWIDTH 1020 0
DWIDTH 34 0
BBX 25 25 5 0
BITMAP
FFFFFF80
80000180
80000180
80000180
88001180
8C003980
86007180
8300E180
8181C180
80C38180
80670180
803E0180
801C0180
803C0180
80760180
80E30180
81C18180
8380C180
87006180
8E003180
8C001180
80000180
80000180
FFFFFF80
FFFFFF80
ENDCHAR
STARTCHAR 22A5
ENCODING 8869
SWIDTH 990 0
DWIDTH 33 0
BBX 29 27 2 0
BITMAP
00030000
00030000
00030000
00030000
00030000
00030000
00030000
00030000
00030000
00030000
00030000
00030000
00030000
00030000
00030000
00030000
00030000
00030000
00030000
00030000
00030000
00030000
00030000
00030000
00030000
FFFFFFF8
FFFFFFF8
ENDCHAR
STARTCHAR 22BF
ENCODING 8895
SWIDTH 1020 0
DWIDTH 34 0
BBX 22 22 2 1
BITMAP
000004
00000C
00001C
000034
000064
0000C4
000184
000304
000604
000C04
001804
003004
006004
00C004
018004
030004
060004
0C0004
180004
300004
7FFFFC
FFFFFC
ENDCHAR
STARTCHAR 22EE
ENCODING 8942
SWIDTH 1020 0
DWIDTH 34 0
BBX 26 5 4 7
BITMAP
E01E01C0
E01E01C0
E01E01C0
E01E01C0
E00C01C0
ENDCHAR
STARTCHAR 22EF
ENCODING 8943
SWIDTH 1020 0
DWIDTH 34 0
BBX 26 5 4 7
BITMAP
E01E01C0
E01E01C0
E01E01C0
E01E01C0
E00C01C0
ENDCHAR
STARTCHAR 2312
ENCODING 8978
SWIDTH 1020 0
DWIDTH 34 0
BBX 32 7 1 21
BITMAP
003FFC00
03FFFFC0
0FE007F0
3E00007C
F000000F
C0000003
80000001
ENDCHAR
STARTCHAR 2460
ENCODING 9312
SWIDTH 1020 0
DWIDTH 34 0
BBX 31 31 2 -3
BITMAP
001FE000
00FFFC00
01E01E00
07800780
0E0001C0
1C0000E0
38038070
300F8030
601F8018
603F8018
C073800C
C063800C
C043800C
C003800C
C0038004
C0038006
C0038004
C003800C
C003800C
C003800C
C003800C
60038018
60038018
30038030
38038070
1C0000E0
0E0001C0
07800780
01E01E00
00FFFC00
001FE000
ENDCHAR
STARTCHAR 2461
ENCODING 9313
SWIDTH 1020 0
DWIDTH 34 0
BBX 31 31 2 -3
BITMAP
001FE000
00FFFC00
01E01E00
07800780
0E0001C0
1C0000E0
381FC070
307FF030
60707018
60003818
C000380C
C000380C
C000380C
C000380C
C0007004
C0007006
C000E004
C001C00C
C003C00C
C007800C
C00E000C
601C0018
60780018
307FF830
387FF870
1C0000E0
0E0001C0
07800780
01E01E00
00FFFC00
001FE000
ENDCHAR
STARTCHAR 2462
ENCODING 9314
SWIDTH 1020 0
DWIDTH 34 0
BBX 31 31 2 -3
BITMAP
001FE000
00FFFC00
01E01E00
07800780
0E0001C0
1C0000E0
387FF870
307FF830
60007018
6000E018
C001C00C
C003800C
C007000C
C00E000C
C00FC004
C00FF006
C0007804
C000380C
C000380C
C000380C
C000380C
60003818
60607018
307FE030
383F8070
1C0000E0
0E0001C0
07800780
01E01E00
00FFFC00
001FE000
ENDCHAR
STARTCHAR 2463
ENCODING 9315
SWIDTH 1020 0
DWIDTH 34 0
BBX 31 31 2 -3
BITMAP
001FE000
00FFFC00
01E01E00
07800780
0E0001C0
1C0000E0
3801C070
3003C030
6003C018
6007C018
C00FC00C
C00DC00C
C01DC00C
C039C00C
C071C004
C061C006
C0E1C004
C1C1C00C
C181C00C
C3FFF80C
C3FFF80C
6001C018
6001C018
3001C030
3801C070
1C0000E0
0E0001C0
07800780
01E01E00
00FFFC00
001FE000
ENDCHAR
STARTCHAR 2464
ENCODING 9316
SWIDTH 1020 0
DWIDTH 34 0
BBX 31 31 2 -3
BITMAP
001FE000
00FFFC00
01E01E00
07800780
0E0001C0
1C0000E0
383FF070
303FF030
60300018
60300018
C030000C
C030000C
C030000C
C037C00C
C03FF004
C0787806
C0003804
C000180C
C000180C
C000180C
C000380C
60003818
60607018
307FE030
383FC070
1C0000E0
0E0001C0
07800780
01E01E00
00FFFC00
001FE000
ENDCHAR
STARTCHAR 2465
ENCODING 9317
SWIDTH 1020 0
DWIDTH 34 0
BBX 31 31 2 -3
BITMAP
001FE000
00FFFC00
01E01E00
07800780
0E0001C0
1C0000E0
3807F070
301FF030
603C0018
60380018
C070000C
C070000C
C060000C
C0E7E00C
C0FFF004
C0F87806
C0F01C04
C0E01C0C
C0E01C0C
C0E01C0C
C0601C0C
60701C18
60387818
303FF030
380FC070
1C0000E0
0E0001C0
07800780
01E01E00
00FFFC00
001FE000
ENDCHAR
STARTCHAR 2466
ENCODING 9318
SWIDTH 1020 0
DWIDTH 34 0
BBX 31 31 2 -3
BITMAP
001FE000
00FFFC00
01E01E00
07800780
0E0001C0
1C0000E0
387FF870
307FF830
60001818
60003818
C000700C
C000600C
C000E00C
C000C00C
C001C004
C001C006
C0038004
C003800C
C003000C
C007000C
C007000C
600E0018
600E0018
300E0030
381C0070
1C0000E0
0E0001C0
07800780
01E01E00
00FFFC00
001FE000
ENDCHAR
STARTCHAR 2467
ENCODING 9319
SWIDTH 1020 0
DWIDTH 34 0
BBX 31 31 2 -3
BITMAP
001FE000
00FFFC00
01E01E00
07800780
0E0001C0
1C0000E0
380FC070
303FF030
60787818
60701818
C060180C
C060180C
C070380C
C038700C
C01FE004
C01FE006
C0387804
C0601C0C
C0E01C0C
C0E00C0C
C0E01C0C
60E01C18
60783818
303FF030
380FC070
1C0000E0
0E0001C0
07800780
01E01E00
00FFFC00
001FE000
ENDCHAR
STARTCHAR 2468
ENCODING 9320
SWIDTH 1020 0
DWIDTH 34 0
BBX 31 31 2 -3
BITMAP
001FE000
00FFFC00
01E01E00
07800780
0E0001C0
1C0000E0
380FC070
303FF030
60787818
60703818
C0E0180C
C0E01C0C
C0E01C0C
C0E01C0C
C0E01C04
C0603C06
C0787C04
C03FFC0C
C00F980C
C000180C
C000380C
60003018
6020F018
303FE030
383F8070
1C0000E0
0E0001C0
07800780
01E01E00
00FFFC00
001FE000
ENDCHAR
STARTCHAR 2469
ENCODING 9321
SWIDTH 1020 0
DWIDTH 34 0
BBX 31 31 2 -3
BITMAP
001FE000
00FFFC00
01E01E00
07800780
0E0001C0
1C0000E0
38E07870
31E0FC30
61E1CE18
63E38618
C763870C
C663070C
C463030C
C063030C
C0630304
C0630306
C0630304
C063030C
C063030C
C063070C
C063070C
60638618
6061CE18
3060FC30
38607870
1C0000E0
0E0001C0
07800780
01E01E00
00FFFC00
001FE000
ENDCHAR
STARTCHAR 246A
ENCODING 9322
SWIDTH 1020 0
DWIDTH 34 0
BBX 31 31 2 -3
BITMAP
001FE000
00FFFC00
01E01E00
07800780
0E0001C0
1C0000E0
38701C70
30F03C30
61F07C18
63F0FC18
C3F0FC0C
C370DC0C
C2709C0C
C0701C0C
C0701C04
C0701C06
C0701C04
C0701C0C
C0701C0C
C0701C0C
C0701C0C
60701C18
60701C18
30701C30
38701C70
1C0000E0
0E0001C0
07800780
01E01E00
00FFFC00
001FE000
ENDCHAR
STARTCHAR 246B
ENCODING 9323
SWIDTH 1020 0
DWIDTH 34 0
BBX 31 31 2 -3
BITMAP
001FE000
00FFFC00
01E01E00
07800780
0E0001C0
1C0000E0
38E0F870
31E1FC30
61E1FE18
63E10E18
C760060C
C660060C
C460060C
C060060C
C0600604
C0600C06
C0600C04
C0601C0C
C060380C
C060300C
C060600C
6060E018
6061C018
3063FE30
3863FE70
1C63FEE0
0E0001C0
07800780
01E01E00
00FFFC00
001FE000
ENDCHAR
STARTCHAR 246C
ENCODING 9324
SWIDTH 1020 0
DWIDTH 34 0
BBX 31 31 2 -3
BITMAP
001FE000
00FFFC00
01E01E00
07800780
0E0001C0
1C0000E0
38E3FE70
31E3FE30
61E1FE18
63E00C18
C7601C0C
C660380C
C460700C
C060600C
C060F804
C060FC06
C0601E04
C060060C
C060060C
C060060C
C060060C
60600618
60610E18
3061FE30
3861FC70
1C00F8E0
0E0001C0
07800780
01E01E00
00FFFC00
001FE000
ENDCHAR
STARTCHAR 246D
ENCODING 9325
SWIDTH 1020 0
DWIDTH 34 0
BBX 31 31 2 -3
BITMAP
001FE000
00FFFC00
01E01E00
07800780
0E0001C0
1C0000E0
38E01C70
31E01C30
63E03C18
67E03C18
C7606C0C
C6606C0C
C460CC0C
C060CC0C
C0608C04
C0618C06
C0610C04
C0630C0C
C0630C0C
C067FF0C
C067FF0C
6067FF18
60600C18
30600C30
38600C70
1C000CE0
0E0001C0
07800780
01E01E00
00FFFC00
001FE000
ENDCHAR
STARTCHAR 246E
ENCODING 9326
SWIDTH 1020 0
DWIDTH 34 0
BBX 31 31 2 -3
BITMAP
001FE000
00FFFC00
01E01E00
07800780
0E0001C0
1C0000E0
38E1FE70
31E1FE30
61E1FE18
63E18018
C761800C
C661800C
C461800C
C061F80C
C061FC04
C0618E06
C0600604
C060060C
C060060C
C060060C
C060060C
60600618
60610E18
3061FE30
3861FC70
1C01F8E0
0E0001C0
07800780
01E01E00
00FFFC00
001FE000
ENDCHAR
STARTCHAR 246F
ENCODING 9327
SWIDTH 1020 0
DWIDTH 34 0
BBX 31 31 2 -3
BITMAP
001FE000
00FFFC00
01E01E00
07800780
0E0001C0
1C0000E0
38E03C70
31E0FE30
61E0C018
63E18018
C761800C
C663800C
C463000C
C063780C
C063FE04
C0638E06
C0638704
C063030C
C063030C
C063030C
C063030C
60638718
60618E18
3060FE30
38607870
1C0000E0
0E0001C0
07800780
01E01E00
00FFFC00
001FE000
ENDCHAR
STARTCHAR 2470
ENCODING 9328
SWIDTH 1020 0
DWIDTH 34 0
BBX 31 31 2 -3
BITMAP
001FE000
00FFFC00
01E01E00
07800780
0E0001C0
1C0000E0
3863FE70
30E3FF30
61E3FF18
63E00618
C760060C
C6600C0C
C4600C0C
C0601C0C
C0601804
C0601806
C0603804
C060300C
C060300C
C060700C
C060600C
60606018
60606018
3060E030
3860C070
1C0000E0
0E0001C0
07800780
01E01E00
00FFFC00
001FE000
ENDCHAR
STARTCHAR 2471
ENCODING 9329
SWIDTH 1020 0
DWIDTH 34 0
BBX 31 31 2 -3
BITMAP
001FE000
00FFFC00
01E01E00
07800780
0E0001C0
1C0000E0
38E07870
31E1FE30
61E18E18
63E38718
C763070C
C663070C
C463860C
C061CE0C
C060F804
C060FC06
C061DE04
C063870C
C063030C
C063030C
C063030C
60630718
60638618
3061FE30
3860F870
1C0000E0
0E0001C0
07800780
01E01E00
00FFFC00
001FE000
ENDCHAR
STARTCHAR 2472
ENCODING 9330
SWIDTH 1020 0
DWIDTH 34 0
BBX 31 31 2 -3
BITMAP
001FE000
00FFFC00
01E01E00
07800780
0E0001C0
1C0000E0
38E07870
31E1FC30
61E18E18
63E38618
C763070C
C663030C
C463030C
C063030C
C0630704
C0638706
C0618F04
C061FF0C
C060F70C
C060060C
C060060C
60600618
60600C18
3061FC30
3861F070
1C0000E0
0E0001C0
07800780
01E01E00
00FFFC00
001FE000
ENDCHAR
STARTCHAR 2473
ENCODING 9331
SWIDTH 1020 0
DWIDTH 34 0
BBX 31 31 2 -3
BITMAP
001FE000
00FFFC00
01E01E00
07800780
0E0001C0
1C0000E0
39F03C70
33F87E30
63FCE718
621CC318
C00CC38C
C00CC18C
C00DC18C
C00DC18C
C01DC184
C019C186
C019C184
C031C18C
C071C18C
C060C18C
C0C0C38C
61C0C318
6380E718
33FC7E30
3BFC3C70
1FFC00E0
0E0001C0
07800780
01E01E00
00FFFC00
001FE000
ENDCHAR
STARTCHAR 24B8
ENCODING 9400
SWIDTH 1020 0
DWIDTH 34 0
BBX 31 31 1 -6
BITMAP
000FF000
007FFC00
01F00F00
03C003C0
070000E0
0E000070
1C07F030
181FFC18
307C0C1C
70F0000C
60E0000C
61C00006
61C00006
C1C00006
C1C00006
C1800006
C1C00006
C1C00006
61C00006
60E00006
60F0000C
707C0C0C
301FFC1C
3807F018
1C000030
0E000070
070000E0
03C003C0
01F00F00
007FFE00
000FF000
ENDCHAR
STARTCHAR 24C5
ENCODING 9413
SWIDTH 1020 0
DWIDTH 34 0
BBX 31 31 1 -6
BITMAP
000FF000
007FFC00
01F00F00
03C003C0
070000E0
0E000070
1C3FF030
183FFC18
30381E1C
70380E0C
6038070C
60380706
60380706
C0380706
C0380E06
C0381E06
C03FFC06
C03FF006
60380006
60380006
6038000C
7038000C
3038001C
38380018
1C380030
0E000070
070000E0
03C003C0
01F00F00
007FFE00
000FF000
ENDCHAR
STARTCHAR 24C7
ENCODING 9415
SWIDTH 1020 0
DWIDTH 34 0
BBX 31 31 1 -6
BITMAP
000FF000
007FFC00
01F00F00
03C003C0
070000E0
0E000070
1C3FE030
183FF818
30303C1C
70300E0C
60300E0C
60300E06
60300E06
C0300C06
C0303C06
C03FF006
C03FE006
C0307006
60303806
60303806
60301C0C
70301C0C
30300E1C
38300E18
1C300630
0E000070
070000E0
03C003C0
01F00F00
007FFE00
000FF000
ENDCHAR
STARTCHAR 24C8
ENCODING 9416
SWIDTH 1020 0
DWIDTH 34 0
BBX 31 31 1 -6
BITMAP
000FF000
007FFC00
01F00F00
03C003C0
070000E0
0E000070
1C07F030
181FFC18
303C081C
7030000C
6030000C
60300006
60380006
C01F0006
C00FE006
C001F806
C0003C06
C0001C06
60001C06
60000C06
60001C0C
70303C0C
303FF81C
380FE018
1C000030
0E000070
070000E0
03C003C0
01F00F00
007FFE00
000FF000
ENDCHAR
STARTCHAR 24D0
ENCODING 9424
SWIDTH 1020 0
DWIDTH 34 0
BBX 32 33 1 -4
BITMAP
000FF000
007FFE00
00F00F80
03C003C0
070000E0
0E000070
1C000018
18000018
3000000C
6007E006
601FF006
401C3802
C0381803
C0301C03
C0003C03
C00FFC01
C01F1C01
C0381C01
C0301C03
C0301C03
C0387C03
403FEE02
600F8E06
60000006
3000000C
1800001C
1C000018
0E000070
070000E0
03C003C0
00F00F80
007FFE00
000FF000
ENDCHAR
STARTCHAR 24D1
ENCODING 9425
SWIDTH 1020 0
DWIDTH 34 0
BBX 32 33 1 -4
BITMAP
000FF000
007FFE00
00F00F80
03C003C0
070000E0
0E380070
1C380018
18380018
3038000C
60380006
60380006
4039F002
C03BFC03
C03F1E03
C03C0E03
C0380701
C0380701
C0380701
C0380703
C0380703
C0380703
403C0E02
603E1E06
603BFC06
3011F00C
1800001C
1C000018
0E000070
070000E0
03C003C0
00F00F80
007FFE00
000FF000
ENDCHAR
STARTCHAR 24D2
ENCODING 9426
SWIDTH 1020 0
DWIDTH 34 0
BBX 32 33 1 -4
BITMAP
000FF000
007FFE00
00F00F80
03C003C0
070000E0
0E000070
1C000018
18000018
3000000C
6007E006
600FF006
401C3802
C0381C03
C0300C03
C0700003
C0700001
C0700001
C0700001
C0300C03
C0381C03
C01C3C03
400FF802
6007E006
60000006
3000000C
1800001C
1C000018
0E000070
070000E0
03C003C0
00F00F80
007FFE00
000FF000
ENDCHAR
STARTCHAR 24D3
ENCODING 9427
SWIDTH 1020 0
DWIDTH 34 0
BBX 32 33 1 -4
BITMAP
000FF000
007FFE00
00F00F80
03C003C0
070000E0
0E001C70
1C001C18
18001C18
30001C0C
60001C06
60001C06
400F9C02
C03FDC03
C0787C03
C0703C03
C0E01C01
C0E01C01
C0E01C01
C0E01C03
C0E01C03
C0601C03
40703C02
60787C06
603FEC06
300F8C0C
1800001C
1C000018
0E000070
070000E0
03C003C0
00F00F80
007FFE00
000FF000
ENDCHAR
STARTCHAR 24D4
ENCODING 9428
SWIDTH 1020 0
DWIDTH 34 0
BBX 32 33 1 -4
BITMAP
000FF000
007FFE00
00F00F80
03C003C0
070000E0
0E000070
1C000018
18000018
3000000C
6007E006
600FF006
401C3802
C0381C03
C0300C03
C0700E03
C07FFE01
C07FFE01
C0700001
C0300E03
C0380C03
C01C1C03
400FF802
6003E006
60000006
3000000C
1800001C
1C000018
0E000070
070000E0
03C003C0
00F00F80
007FFE00
000FF000
ENDCHAR
STARTCHAR 24D5
ENCODING 9429
SWIDTH 1020 0
DWIDTH 34 0
BBX 32 33 1 -4
BITMAP
000FF000
007FFE00
00F00F80
03C003C0
070000E0
0E000070
1C01F818
1803F818
3003800C
60030006
60030006
40030002
C0030003
C03FF803
C03FF803
C0030001
C0030001
C0030001
C0030003
C0030003
C0030003
40030002
60030006
60030006
3003000C
1803001C
1C000018
0E000070
070000E0
03C003C0
00F00F80
007FFE00
000FF000
ENDCHAR
STARTCHAR 24D6
ENCODING 9430
SWIDTH 1020 0
DWIDTH 34 0
BBX 32 33 1 -4
BITMAP
000FF000
007FFE00
00F00F80
03C003C0
070000E0
0E000070
1C000018
1807CC18
300FEC0C
601C3C06
60381C06
40300C02
C0300C03
C0300C03
C0300C03
C0381C01
C01C3C01
C00FEC01
C007CC03
C0000C03
C0380C03
40381C02
601C3806
600FF806
3007E00C
1800001C
1C000018
0E000070
070000E0
03C003C0
00F00F80
007FFE00
000FF000
ENDCHAR
STARTCHAR 24D7
ENCODING 9431
SWIDTH 1020 0
DWIDTH 34 0
BBX 32 33 1 -4
BITMAP
000FF000
007FFE00
00F00F80
03C003C0
070000E0
0E000070
1C180018
18180018
3018000C
60180006
60180006
40180002
C018F003
C01BFC03
C01F1C03
C01C0E01
C01C0E01
C0180E01
C0180E03
C0180E03
C0180E03
40180E02
60180E06
60180E06
30180E0C
18180E1C
1C000018
0E000070
070000E0
03C003C0
00F00F80
007FFE00
000FF000
ENDCHAR
STARTCHAR 24D8
ENCODING 9432
SWIDTH 1020 0
DWIDTH 34 0
BBX 32 33 1 -4
BITMAP
000FF000
007FFE00
00F00F80
03C003C0
070000E0
0E000070
1C01C018
1801C018
3001C00C
60000006
60000006
40000002
C0018003
C0018003
C0018003
C0018001
C0018001
C0018001
C0018003
C0018003
C0018003
40018002
60018006
60018006
3001800C
1801801C
1C000018
0E000070
070000E0
03C003C0
00F00F80
007FFE00
000FF000
ENDCHAR
STARTCHAR 24D9
ENCODING 9433
SWIDTH 1020 0
DWIDTH 34 0
BBX 32 33 1 -4
BITMAP
000FF000
007FFE00
00F00F80
03C003C0
0700E0E0
0E00E070
1C00E018
18000018
3000000C
60000006
6000E006
4000E002
C000E003
C000E003
C000E003
C000E001
C000E001
C000E001
C000E003
C000E003
C000E003
4000E002
6000E006
6000E006
3000E00C
181FC01C
1C1F8018
0E000070
070000E0
03C003C0
00F00F80
007FFE00
000FF000
ENDCHAR
STARTCHAR 24DA
ENCODING 9434
SWIDTH 1020 0
DWIDTH 34 0
BBX 32 33 1 -4
BITMAP
000FF000
007FFE00
00F00F80
03C003C0
070000E0
0E000070
1C180018
18180018
3018000C
60180006
60180006
40180002
C0181C03
C0183803
C0187003
C018E001
C019C001
C01BC001
C01FC003
C01EE003
C0187003
40183802
60181C06
60181E06
30180E0C
1818061C
1C000018
0E000070
070000E0
03C003C0
00F00F80
007FFE00
000FF000
ENDCHAR
STARTCHAR 24DB
ENCODING 9435
SWIDTH 1020 0
DWIDTH 34 0
BBX 32 33 1 -4
BITMAP
000FF000
007FFE00
00F00F80
03C003C0
070000E0
0E000070
1C018018
18018018
3001800C
60018006
60018006
40018002
C0018003
C0018003
C0018003
C0018001
C0018001
C0018001
C0018003
C0018003
C0018003
40018002
60018006
60018006
3001800C
1801801C
1C000018
0E000070
070000E0
03C003C0
00F00F80
007FFE00
000FF000
ENDCHAR
STARTCHAR 24DC
ENCODING 9436
SWIDTH 1020 0
DWIDTH 34 0
BBX 32 33 1 -4
BITMAP
000FF000
007FFE00
00F00F80
03C003C0
070000E0
0E000070
1C000018
18000018
3000000C
608E1E06
61FFBF06
41F3E302
C1E1C383
C1C18383
C1C18383
C1C18381
C1C18381
C1C18381
C1C18383
C1C18383
C1C18383
41C18382
61C18386
60000006
3000000C
1800001C
1C000018
0E000070
070000E0
03C003C0
00F00F80
007FFE00
000FF000
ENDCHAR
STARTCHAR 24DD
ENCODING 9437
SWIDTH 1020 0
DWIDTH 34 0
BBX 32 33 1 -4
BITMAP
000FF000
007FFE00
00F00F80
03C003C0
070000E0
0E000070
1C000018
18000018
3000000C
6031F006
6037F806
403E1C02
C03C1C03
C0380C03
C0380C03
C0300C01
C0300C01
C0300C01
C0300C03
C0300C03
C0300C03
40300C02
60300C06
60000006
3000000C
1800001C
1C000018
0E000070
070000E0
03C003C0
00F00F80
007FFE00
000FF000
ENDCHAR
STARTCHAR 24DE
ENCODING 9438
SWIDTH 1020 0
DWIDTH 34 0
BBX 32 33 1 -4
BITMAP
000FF000
007FFE00
00F00F80
03C003C0
070000E0
0E000070
1C000018
18000018
3000000C
6007E006
600FF006
401C3802
C0381C03
C0300C03
C0700E03
C0700E01
C0700E01
C0700E01
C0300C03
C0381C03
C01C3803
400FF002
6007E006
60000006
3000000C
1800001C
1C000018
0E000070
070000E0
03C003C0
00F00F80
007FFE00
000FF000
ENDCHAR
STARTCHAR 24DF
ENCODING 9439
SWIDTH 1020 0
DWIDTH 34 0
BBX 32 33 1 -4
BITMAP
000FF000
007FFE00
00F00F80
03C003C0
070000E0
0E000070
1C000018
18000018
3011F00C
603BFC06
603E1E06
403C0602
C0380703
C0380303
C0380303
C0380301
C0380301
C0380701
C03C0603
C03E1E03
C03BFC03
4039F002
60380006
60380006
3038000C
1800001C
1C000018
0E000070
070000E0
03C003C0
00F00F80
007FFE00
000FF000
ENDCHAR
STARTCHAR 24E0
ENCODING 9440
SWIDTH 1020 0
DWIDTH 34 0
BBX 32 33 1 -4
BITMAP
000FF000
007FFE00
00F00F80
03C003C0
070000E0
0E000070
1C000018
18000018
300F8C0C
603FDC06
60787C06
40703C02
C0E01C03
C0E01C03
C0C01C03
C0C01C01
C0E01C01
C0E01C01
C0603C03
C0787C03
C03FDC03
400F9C02
60001C06
60001C06
30001C0C
1800001C
1C000018
0E000070
070000E0
03C003C0
00F00F80
007FFE00
000FF000
ENDCHAR
STARTCHAR 24E1
ENCODING 9441
SWIDTH 1020 0
DWIDTH 34 0
BBX 32 33 1 -4
BITMAP
000FF000
007FFE00
00F00F80
03C003C0
070000E0
0E000070
1C000018
18000018
3000000C
60000006
60071C06
40073C02
C007F803
C007C003
C0078003
C0070001
C0070001
C0070001
C0070003
C0070003
C0070003
40070002
60070006
60030006
3000000C
1800001C
1C000018
0E000070
070000E0
03C003C0
00F00F80
007FFE00
000FF000
ENDCHAR
STARTCHAR 24E2
ENCODING 9442
SWIDTH 1020 0
DWIDTH 34 0
BBX 32 33 1 -4
BITMAP
000FF000
007FFE00
00F00F80
03C003C0
070000E0
0E000070
1C000018
18000018
3000000C
6007E006
600FF006
401C3802
C0181803
C0180003
C01E0003
C007C001
C000F001
C0003801
C0301C03
C0381C03
C01C1C03
401FF802
6007E006
60000006
3000000C
1800001C
1C000018
0E000070
070000E0
03C003C0
00F00F80
007FFE00
000FF000
ENDCHAR
STARTCHAR 24E3
ENCODING 9443
SWIDTH 1020 0
DWIDTH 34 0
BBX 32 33 1 -4
BITMAP
000FF000
007FFE00
00F00F80
03C003C0
070000E0
0E000070
1C000018
18030018
3003000C
60030006
60030006
403FF002
C03FF003
C0030003
C0030003
C0030001
C0030001
C0030001
C0030003
C0030003
C0030003
40030002
60030006
6003F006
3001F00C
1800001C
1C000018
0E000070
070000E0
03C003C0
00F00F80
007FFE00
000FF000
ENDCHAR
STARTCHAR 24E4
ENCODING 9444
SWIDTH 1020 0
DWIDTH 34 0
BBX 32 33 1 -4
BITMAP
000FF000
007FFE00
00F00F80
03C003C0
070000E0
0E000070
1C000018
18000018
3000000C
60300C06
60300C06
40300C02
C0300C03
C0300C03
C0300C03
C0300C01
C0300C01
C0300C01
C0301C03
C0381C03
C0387C03
401FEC02
600F8C06
60000006
3000000C
1800001C
1C000018
0E000070
070000E0
03C003C0
00F00F80
007FFE00
000FF000
ENDCHAR
STARTCHAR 24E5
ENCODING 9445
SWIDTH 1020 0
DWIDTH 34 0
BBX 32 33 1 -4
BITMAP
000FF000
007FFE00
00F00F80
03C003C0
070000E0
0E000070
1C000018
18000018
3000000C
60000006
60600706
40700E02
C0700E03
C0381C03
C0381C03
C0181801
C01C3801
C00C3001
C00E7003
C0066003
C007E003
4003C002
6003C006
6001C006
3000000C
1800001C
1C000018
0E000070
070000E0
03C003C0
00F00F80
007FFE00
000FF000
ENDCHAR
STARTCHAR 24E6
ENCODING 9446
SWIDTH 1020 0
DWIDTH 34 0
BBX 32 33 1 -4
BITMAP
000FF000
007FFE00
00F00F80
03C003C0
070000E0
0E000070
1C000018
18000018
3000000C
60000006
630180C6
4383C0C2
C383C1C3
C183C183
C1C7E183
C1C66381
C0C66301
C0C67301
C0EE3703
C06C3603
C06C3603
403C1E02
60381C06
60381C06
3000000C
1800001C
1C000018
0E000070
070000E0
03C003C0
00F00F80
007FFE00
000FF000
ENDCHAR
STARTCHAR 24E7
ENCODING 9447
SWIDTH 1020 0
DWIDTH 34 0
BBX 32 33 1 -4
BITMAP
000FF000
007FFE00
00F00F80
03C003C0
070000E0
0E000070
1C000018
18000018
3000000C
60700E06
60381C06
401C3C02
C01E7803
C00E7003
C007E003
C003C001
C003C001
C007E001
C00E7003
C01C3803
C0381C03
40780E02
60700F06
60000006
3000000C
1800001C
1C000018
0E000070
070000E0
03C003C0
00F00F80
007FFE00
000FF000
ENDCHAR
STARTCHAR 24E8
ENCODING 9448
SWIDTH 1020 0
DWIDTH 34 0
BBX 32 33 1 -4
BITMAP
000FF000
007FFE00
00F00F80
03C003C0
070000E0
0E000070
1C000018
18000018
3030030C
60300706
60380606
40180E02
C01C0C03
C00C1C03
C00E1803
C0063801
C0073001
C0037001
C003F003
C001E003
C001E003
4001C002
6001C006
60038006
303F800C
183E001C
1C000018
0E000070
070000E0
03C003C0
00F00F80
007FFE00
000FF000
ENDCHAR
STARTCHAR 24E9
ENCODING 9449
SWIDTH 1020 0
DWIDTH 34 0
BBX 32 33 1 -4
BITMAP
000FF000
007FFE00
00F00F80
03C003C0
070000E0
0E000070
1C000018
18000018
3000000C
603FFC06
603FFC06
40003C02
C0007803
C000F003
C001E003
C003C001
C0078001
C0070001
C00E0003
C01C0003
C0380003
403FFC02
603FFC06
60000006
3000000C
1800001C
1C000018
0E000070
070000E0
03C003C0
00F00F80
007FFE00
000FF000
ENDCHAR
STARTCHAR 24EA
ENCODING 9450
SWIDTH 1020 0
DWIDTH 34 0
BBX 31 31 2 -3
BITMAP
001FE000
00FFFC00
01E01E00
07800780
0E0001C0
1C0000E0
380FC070
303FF030
60387818
60703818
C060180C
C0E01C0C
C0E01C0C
C0E01C0C
C0E01C04
C0E01C06
C0E01C04
C0E01C0C
C0E01C0C
C0E01C0C
C0601C0C
60703818
60387818
303FF030
380FC070
1C0000E0
0E0001C0
07800780
01E01E00
00FFFC00
001FE000
ENDCHAR
STARTCHAR 2500
ENCODING 9472
SWIDTH 990 0
DWIDTH 33 0
BBX 33 2 0 11
BITMAP
FFFFFFFF80
FFFFFFFF80
ENDCHAR
STARTCHAR 2501
ENCODING 9473
SWIDTH 990 0
DWIDTH 33 0
BBX 33 4 0 11
BITMAP
FFFFFFFF80
FFFFFFFF80
FFFFFFFF80
FFFFFFFF80
ENDCHAR
STARTCHAR 2502
ENCODING 9474
SWIDTH 1020 0
DWIDTH 34 0
BBX 1 33 16 -4
BITMAP
80
80
80
80
80
80
80
80
80
80
80
80
80
80
80
80
80
80
80
80
80
80
80
80
80
80
80
80
80
80
80
80
80
ENDCHAR
STARTCHAR 2503
ENCODING 9475
SWIDTH 1020 0
DWIDTH 34 0
BBX 4 33 15 -4
BITMAP
F0
F0
F0
F0
F0
F0
F0
F0
F0
F0
F0
F0
F0
F0
F0
F0
F0
F0
F0
F0
F0
F0
F0
F0
F0
F0
F0
F0
F0
F0
F0
F0
F0
ENDCHAR
STARTCHAR 250C
ENCODING 9484
SWIDTH 990 0
DWIDTH 33 0
BBX 17 17 16 -4
BITMAP
FFFF80
800000
800000
800000
800000
800000
800000
800000
800000
800000
800000
800000
800000
800000
800000
800000
800000
ENDCHAR
STARTCHAR 250F
ENCODING 9487
SWIDTH 990 0
DWIDTH 33 0
BBX 18 19 15 -4
BITMAP
FFFFC0
FFFFC0
FFFFC0
FFFFC0
F00000
F00000
F00000
F00000
F00000
F00000
F00000
F00000
F00000
F00000
F00000
F00000
F00000
F00000
F00000
ENDCHAR
STARTCHAR 2510
ENCODING 9488
SWIDTH 1020 0
DWIDTH 34 0
BBX 17 17 0 -4
BITMAP
FFFF80
000080
000080
000080
000080
000080
000080
000080
000080
000080
000080
000080
000080
000080
000080
000080
000080
ENDCHAR
STARTCHAR 2513
ENCODING 9491
SWIDTH 1020 0
DWIDTH 34 0
BBX 19 19 0 -4
BITMAP
FFFFE0
FFFFE0
FFFFE0
FFFFE0
0001E0
0001E0
0001E0
0001E0
0001E0
0001E0
0001E0
0001E0
0001E0
0001E0
0001E0
0001E0
0001E0
0001E0
0001E0
ENDCHAR
STARTCHAR 2514
ENCODING 9492
SWIDTH 990 0
DWIDTH 33 0
BBX 17 17 16 12
BITMAP
800000
800000
800000
800000
800000
800000
800000
800000
800000
800000
800000
800000
800000
800000
800000
800000
FFFF80
ENDCHAR
STARTCHAR 2517
ENCODING 9495
SWIDTH 990 0
DWIDTH 33 0
BBX 18 19 15 11
BITMAP
F00000
F00000
F00000
F00000
F00000
F00000
F00000
F00000
F00000
F00000
F00000
F00000
F00000
F00000
F00000
FFFFC0
FFFFC0
FFFFC0
FFFFC0
ENDCHAR
STARTCHAR 2518
ENCODING 9496
SWIDTH 1020 0
DWIDTH 34 0
BBX 17 17 0 12
BITMAP
000080
000080
000080
000080
000080
000080
000080
000080
000080
000080
000080
000080
000080
000080
000080
000080
FFFF80
ENDCHAR
STARTCHAR 251B
ENCODING 9499
SWIDTH 1020 0
DWIDTH 34 0
BBX 19 19 0 11
BITMAP
0001E0
0001E0
0001E0
0001E0
0001E0
0001E0
0001E0
0001E0
0001E0
0001E0
0001E0
0001E0
0001E0
0001E0
0001E0
FFFFE0
FFFFE0
FFFFE0
FFFFE0
ENDCHAR
STARTCHAR 251C
ENCODING 9500
SWIDTH 990 0
DWIDTH 33 0
BBX 17 33 16 -4
BITMAP
800000
800000
800000
800000
800000
800000
800000
800000
800000
800000
800000
800000
800000
800000
800000
800000
FFFF80
800000
800000
800000
800000
800000
800000
800000
800000
800000
800000
800000
800000
800000
800000
800000
800000
ENDCHAR
STARTCHAR 251D
ENCODING 9501
SWIDTH 990 0
DWIDTH 33 0
BBX 17 34 16 -4
BITMAP
800000
800000
800000
800000
800000
800000
800000
800000
800000
800000
800000
800000
800000
800000
800000
FFFF80
FFFF80
FFFF80
FFFF80
800000
800000
800000
800000
800000
800000
800000
800000
800000
800000
800000
800000
800000
800000
800000
ENDCHAR
STARTCHAR 2520
ENCODING 9504
SWIDTH 990 0
DWIDTH 33 0
BBX 18 33 15 -4
BITMAP
F00000
F00000
F00000
F00000
F00000
F00000
F00000
F00000
F00000
F00000
F00000
F00000
F00000
F00000
F00000
F00000
FFFFC0
F00000
F00000
F00000
F00000
F00000
F00000
F00000
F00000
F00000
F00000
F00000
F00000
F00000
F00000
F00000
F00000
ENDCHAR
STARTCHAR 2523
ENCODING 9507
SWIDTH 990 0
DWIDTH 33 0
BBX 18 34 15 -4
BITMAP
F00000
F00000
F00000
F00000
F00000
F00000
F00000
F00000
F00000
F00000
F00000
F00000
F00000
F00000
F00000
FFFFC0
FFFFC0
FFFFC0
FFFFC0
F00000
F00000
F00000
F00000
F00000
F00000
F00000
F00000
F00000
F00000
F00000
F00000
F00000
F00000
F00000
ENDCHAR
STARTCHAR 2524
ENCODING 9508
SWIDTH 1020 0
DWIDTH 34 0
BBX 17 33 0 -4
BITMAP
000080
000080
000080
000080
000080
000080
000080
000080
000080
000080
000080
000080
000080
000080
000080
000080
FFFF80
000080
000080
000080
000080
000080
000080
000080
000080
000080
000080
000080
000080
000080
000080
000080
000080
ENDCHAR
STARTCHAR 2525
ENCODING 9509
SWIDTH 1020 0
DWIDTH 34 0
BBX 17 34 0 -4
BITMAP
000080
000080
000080
000080
000080
000080
000080
000080
000080
000080
000080
000080
000080
000080
000080
FFFF80
FFFF80
FFFF80
FFFF80
000080
000080
000080
000080
000080
000080
000080
000080
000080
000080
000080
000080
000080
000080
000080
ENDCHAR
STARTCHAR 2528
ENCODING 9512
SWIDTH 990 0
DWIDTH 33 0
BBX 19 33 0 -4
BITMAP
0001E0
0001E0
0001E0
0001E0
0001E0
0001E0
0001E0
0001E0
0001E0
0001E0
0001E0
0001E0
0001E0
0001E0
0001E0
0001E0
FFFFE0
0001E0
0001E0
0001E0
0001E0
0001E0
0001E0
0001E0
0001E0
0001E0
0001E0
0001E0
0001E0
0001E0
0001E0
0001E0
0001E0
ENDCHAR
STARTCHAR 252B
ENCODING 9515
SWIDTH 990 0
DWIDTH 33 0
BBX 19 34 0 -4
BITMAP
0001E0
0001E0
0001E0
0001E0
0001E0
0001E0
0001E0
0001E0
0001E0
0001E0
0001E0
0001E0
0001E0
0001E0
0001E0
FFFFE0
FFFFE0
FFFFE0
FFFFE0
0001E0
0001E0
0001E0
0001E0
0001E0
0001E0
0001E0
0001E0
0001E0
0001E0
0001E0
0001E0
0001E0
0001E0
0001E0
ENDCHAR
STARTCHAR 252C
ENCODING 9516
SWIDTH 990 0
DWIDTH 33 0
BBX 33 17 0 -4
BITMAP
FFFFFFFF80
0000800000
0000800000
0000800000
0000800000
0000800000
0000800000
0000800000
0000800000
0000800000
0000800000
0000800000
0000800000
0000800000
0000800000
0000800000
0000800000
ENDCHAR
STARTCHAR 252F
ENCODING 9519
SWIDTH 990 0
DWIDTH 33 0
BBX 33 19 0 -4
BITMAP
FFFFFFFF80
FFFFFFFF80
FFFFFFFF80
FFFFFFFF80
0000800000
0000800000
0000800000
0000800000
0000800000
0000800000
0000800000
0000800000
0000800000
0000800000
0000800000
0000800000
0000800000
0000800000
0000800000
ENDCHAR
STARTCHAR 2530
ENCODING 9520
SWIDTH 990 0
DWIDTH 33 0
BBX 33 17 0 -4
BITMAP
FFFFFFFF80
0001E00000
0001E00000
0001E00000
0001E00000
0001E00000
0001E00000
0001E00000
0001E00000
0001E00000
0001E00000
0001E00000
0001E00000
0001E00000
0001E00000
0001E00000
0001E00000
ENDCHAR
STARTCHAR 2533
ENCODING 9523
SWIDTH 990 0
DWIDTH 33 0
BBX 33 19 0 -4
BITMAP
FFFFFFFF80
FFFFFFFF80
FFFFFFFF80
FFFFFFFF80
0001E00000
0001E00000
0001E00000
0001E00000
0001E00000
0001E00000
0001E00000
0001E00000
0001E00000
0001E00000
0001E00000
0001E00000
0001E00000
0001E00000
0001E00000
ENDCHAR
STARTCHAR 2534
ENCODING 9524
SWIDTH 990 0
DWIDTH 33 0
BBX 33 17 0 12
BITMAP
0000800000
0000800000
0000800000
0000800000
0000800000
0000800000
0000800000
0000800000
0000800000
0000800000
0000800000
0000800000
0000800000
0000800000
0000800000
0000800000
FFFFFFFF80
ENDCHAR
STARTCHAR 2537
ENCODING 9527
SWIDTH 990 0
DWIDTH 33 0
BBX 33 19 0 11
BITMAP
0000800000
0000800000
0000800000
0000800000
0000800000
0000800000
0000800000
0000800000
0000800000
0000800000
0000800000
0000800000
0000800000
0000800000
0000800000
FFFFFFFF80
FFFFFFFF80
FFFFFFFF80
FFFFFFFF80
ENDCHAR
STARTCHAR 2538
ENCODING 9528
SWIDTH 990 0
DWIDTH 33 0
BBX 33 17 0 12
BITMAP
0001E00000
0001E00000
0001E00000
0001E00000
0001E00000
0001E00000
0001E00000
0001E00000
0001E00000
0001E00000
0001E00000
0001E00000
0001E00000
0001E00000
0001E00000
0001E00000
FFFFFFFF80
ENDCHAR
STARTCHAR 253B
ENCODING 9531
SWIDTH 990 0
DWIDTH 33 0
BBX 33 19 0 11
BITMAP
0001E00000
0001E00000
0001E00000
0001E00000
0001E00000
0001E00000
0001E00000
0001E00000
0001E00000
0001E00000
0001E00000
0001E00000
0001E00000
0001E00000
0001E00000
FFFFFFFF80
FFFFFFFF80
FFFFFFFF80
FFFFFFFF80
ENDCHAR
STARTCHAR 253C
ENCODING 9532
SWIDTH 990 0
DWIDTH 33 0
BBX 33 33 0 -4
BITMAP
0000800000
0000800000
0000800000
0000800000
0000800000
0000800000
0000800000
0000800000
0000800000
0000800000
0000800000
0000800000
0000800000
0000800000
0000800000
0000800000
FFFFFFFF80
0000800000
0000800000
0000800000
0000800000
0000800000
0000800000
0000800000
0000800000
0000800000
0000800000
0000800000
0000800000
0000800000
0000800000
0000800000
0000800000
ENDCHAR
STARTCHAR 253F
ENCODING 9535
SWIDTH 990 0
DWIDTH 33 0
BBX 33 34 0 -4
BITMAP
0000800000
0000800000
0000800000
0000800000
0000800000
0000800000
0000800000
0000800000
0000800000
0000800000
0000800000
0000800000
0000800000
0000800000
0000800000
FFFFFFFF80
FFFFFFFF80
FFFFFFFF80
FFFFFFFF80
0000800000
0000800000
0000800000
0000800000
0000800000
0000800000
0000800000
0000800000
0000800000
0000800000
0000800000
0000800000
0000800000
0000800000
0000800000
ENDCHAR
STARTCHAR 2542
ENCODING 9538
SWIDTH 990 0
DWIDTH 33 0
BBX 33 33 0 -4
BITMAP
0001E00000
0001E00000
0001E00000
0001E00000
0001E00000
0001E00000
0001E00000
0001E00000
0001E00000
0001E00000
0001E00000
0001E00000
0001E00000
0001E00000
0001E00000
0001E00000
FFFFFFFF80
0001E00000
0001E00000
0001E00000
0001E00000
0001E00000
0001E00000
0001E00000
0001E00000
0001E00000
0001E00000
0001E00000
0001E00000
0001E00000
0001E00000
0001E00000
0001E00000
ENDCHAR
STARTCHAR 254B
ENCODING 9547
SWIDTH 990 0
DWIDTH 33 0
BBX 33 34 0 -4
BITMAP
0001E00000
0001E00000
0001E00000
0001E00000
0001E00000
0001E00000
0001E00000
0001E00000
0001E00000
0001E00000
0001E00000
0001E00000
0001E00000
0001E00000
0001E00000
FFFFFFFF80
FFFFFFFF80
FFFFFFFF80
FFFFFFFF80
0001E00000
0001E00000
0001E00000
0001E00000
0001E00000
0001E00000
0001E00000
0001E00000
0001E00000
0001E00000
0001E00000
0001E00000
0001E00000
0001E00000
0001E00000
ENDCHAR
STARTCHAR 2550
ENCODING 9552
SWIDTH 1020 0
DWIDTH 34 0
BBX 34 11 0 7
BITMAP
FFFFFFFFC0
FFFFFFFFC0
0000000000
0000000000
0000000000
0000000000
0000000000
0000000000
0000000000
FFFFFFFFC0
FFFFFFFFC0
ENDCHAR
STARTCHAR 255E
ENCODING 9566
SWIDTH 1020 0
DWIDTH 34 0
BBX 18 35 16 -5
BITMAP
C00000
C00000
C00000
C00000
C00000
C00000
C00000
C00000
C00000
C00000
C00000
C00000
FFFFC0
FFFFC0
C00000
C00000
C00000
C00000
C00000
C00000
C00000
FFFFC0
FFFFC0
C00000
C00000
C00000
C00000
C00000
C00000
C00000
C00000
C00000
C00000
C00000
C00000
ENDCHAR
STARTCHAR 2561
ENCODING 9569
SWIDTH 1020 0
DWIDTH 34 0
BBX 18 35 0 -5
BITMAP
0000C0
0000C0
0000C0
0000C0
0000C0
0000C0
0000C0
0000C0
0000C0
0000C0
0000C0
0000C0
FFFFC0
FFFFC0
0000C0
0000C0
0000C0
0000C0
0000C0
0000C0
0000C0
FFFFC0
FFFFC0
0000C0
0000C0
0000C0
0000C0
0000C0
0000C0
0000C0
0000C0
0000C0
0000C0
0000C0
0000C0
ENDCHAR
STARTCHAR 256A
ENCODING 9578
SWIDTH 1020 0
DWIDTH 34 0
BBX 34 35 0 -5
BITMAP
0000C00000
0000C00000
0000C00000
0000C00000
0000C00000
0000C00000
0000C00000
0000C00000
0000C00000
0000C00000
0000C00000
0000C00000
FFFFFFFFC0
FFFFFFFFC0
0000C00000
0000C00000
0000C00000
0000C00000
0000C00000
0000C00000
0000C00000
FFFFFFFFC0
FFFFFFFFC0
0000C00000
0000C00000
0000C00000
0000C00000
0000C00000
0000C00000
0000C00000
0000C00000
0000C00000
0000C00000
0000C00000
0000C00000
ENDCHAR
STARTCHAR 2581
ENCODING 9601
SWIDTH 1020 0
DWIDTH 34 0
BBX 34 5 0 -5
BITMAP
FFFFFFFFC0
FFFFFFFFC0
FFFFFFFFC0
FFFFFFFFC0
FFFFFFFFC0
ENDCHAR
STARTCHAR 2582
ENCODING 9602
SWIDTH 1020 0
DWIDTH 34 0
BBX 34 9 0 -5
BITMAP
FFFFFFFFC0
FFFFFFFFC0
FFFFFFFFC0
FFFFFFFFC0
FFFFFFFFC0
FFFFFFFFC0
FFFFFFFFC0
FFFFFFFFC0
FFFFFFFFC0
ENDCHAR
STARTCHAR 2583
ENCODING 9603
SWIDTH 1020 0
DWIDTH 34 0
BBX 34 13 0 -5
BITMAP
FFFFFFFFC0
FFFFFFFFC0
FFFFFFFFC0
FFFFFFFFC0
FFFFFFFFC0
FFFFFFFFC0
FFFFFFFFC0
FFFFFFFFC0
FFFFFFFFC0
FFFFFFFFC0
FFFFFFFFC0
FFFFFFFFC0
FFFFFFFFC0
ENDCHAR
STARTCHAR 2584
ENCODING 9604
SWIDTH 1020 0
DWIDTH 34 0
BBX 34 17 0 -5
BITMAP
FFFFFFFFC0
FFFFFFFFC0
FFFFFFFFC0
FFFFFFFFC0
FFFFFFFFC0
FFFFFFFFC0
FFFFFFFFC0
FFFFFFFFC0
FFFFFFFFC0
FFFFFFFFC0
FFFFFFFFC0
FFFFFFFFC0
FFFFFFFFC0
FFFFFFFFC0
FFFFFFFFC0
FFFFFFFFC0
FFFFFFFFC0
ENDCHAR
STARTCHAR 2585
ENCODING 9605
SWIDTH 1020 0
DWIDTH 34 0
BBX 34 22 0 -5
BITMAP
FFFFFFFFC0
FFFFFFFFC0
FFFFFFFFC0
FFFFFFFFC0
FFFFFFFFC0
FFFFFFFFC0
FFFFFFFFC0
FFFFFFFFC0
FFFFFFFFC0
FFFFFFFFC0
FFFFFFFFC0
FFFFFFFFC0
FFFFFFFFC0
FFFFFFFFC0
FFFFFFFFC0
FFFFFFFFC0
FFFFFFFFC0
FFFFFFFFC0
FFFFFFFFC0
FFFFFFFFC0
FFFFFFFFC0
FFFFFFFFC0
ENDCHAR
STARTCHAR 2586
ENCODING 9606
SWIDTH 1020 0
DWIDTH 34 0
BBX 34 26 0 -5
BITMAP
FFFFFFFFC0
FFFFFFFFC0
FFFFFFFFC0
FFFFFFFFC0
FFFFFFFFC0
FFFFFFFFC0
FFFFFFFFC0
FFFFFFFFC0
FFFFFFFFC0
FFFFFFFFC0
FFFFFFFFC0
FFFFFFFFC0
FFFFFFFFC0
FFFFFFFFC0
FFFFFFFFC0
FFFFFFFFC0
FFFFFFFFC0
FFFFFFFFC0
FFFFFFFFC0
FFFFFFFFC0
FFFFFFFFC0
FFFFFFFFC0
FFFFFFFFC0
FFFFFFFFC0
FFFFFFFFC0
FFFFFFFFC0
ENDCHAR
STARTCHAR 2587
ENCODING 9607
SWIDTH 1020 0
DWIDTH 34 0
BBX 34 30 0 -5
BITMAP
FFFFFFFFC0
FFFFFFFFC0
FFFFFFFFC0
FFFFFFFFC0
FFFFFFFFC0
FFFFFFFFC0
FFFFFFFFC0
FFFFFFFFC0
FFFFFFFFC0
FFFFFFFFC0
FFFFFFFFC0
FFFFFFFFC0
FFFFFFFFC0
FFFFFFFFC0
FFFFFFFFC0
FFFFFFFFC0
FFFFFFFFC0
FFFFFFFFC0
FFFFFFFFC0
FFFFFFFFC0
FFFFFFFFC0
FFFFFFFFC0
FFFFFFFFC0
FFFFFFFFC0
FFFFFFFFC0
FFFFFFFFC0
FFFFFFFFC0
FFFFFFFFC0
FFFFFFFFC0
FFFFFFFFC0
ENDCHAR
STARTCHAR 2588
ENCODING 9608
SWIDTH 1020 0
DWIDTH 34 0
BBX 34 34 0 -5
BITMAP
FFFFFFFFC0
FFFFFFFFC0
FFFFFFFFC0
FFFFFFFFC0
FFFFFFFFC0
FFFFFFFFC0
FFFFFFFFC0
FFFFFFFFC0
FFFFFFFFC0
FFFFFFFFC0
FFFFFFFFC0
FFFFFFFFC0
FFFFFFFFC0
FFFFFFFFC0
FFFFFFFFC0
FFFFFFFFC0
FFFFFFFFC0
FFFFFFFFC0
FFFFFFFFC0
FFFFFFFFC0
FFFFFFFFC0
FFFFFFFFC0
FFFFFFFFC0
FFFFFFFFC0
FFFFFFFFC0
FFFFFFFFC0
FFFFFFFFC0
FFFFFFFFC0
FFFFFFFFC0
FFFFFFFFC0
FFFFFFFFC0
FFFFFFFFC0
FFFFFFFFC0
FFFFFFFFC0
ENDCHAR
STARTCHAR 2589
ENCODING 9609
SWIDTH 1020 0
DWIDTH 34 0
BBX 30 34 0 -5
BITMAP
FFFFFFFC
FFFFFFFC
FFFFFFFC
FFFFFFFC
FFFFFFFC
FFFFFFFC
FFFFFFFC
FFFFFFFC
FFFFFFFC
FFFFFFFC
FFFFFFFC
FFFFFFFC
FFFFFFFC
FFFFFFFC
FFFFFFFC
FFFFFFFC
FFFFFFFC
FFFFFFFC
FFFFFFFC
FFFFFFFC
FFFFFFFC
FFFFFFFC
FFFFFFFC
FFFFFFFC
FFFFFFFC
FFFFFFFC
FFFFFFFC
FFFFFFFC
FFFFFFFC
FFFFFFFC
FFFFFFFC
FFFFFFFC
FFFFFFFC
FFFFFFFC
ENDCHAR
STARTCHAR 258A
ENCODING 9610
SWIDTH 1020 0
DWIDTH 34 0
BBX 26 34 0 -5
BITMAP
FFFFFFC0
FFFFFFC0
FFFFFFC0
FFFFFFC0
FFFFFFC0
FFFFFFC0
FFFFFFC0
FFFFFFC0
FFFFFFC0
FFFFFFC0
FFFFFFC0
FFFFFFC0
FFFFFFC0
FFFFFFC0
FFFFFFC0
FFFFFFC0
FFFFFFC0
FFFFFFC0
FFFFFFC0
FFFFFFC0
FFFFFFC0
FFFFFFC0
FFFFFFC0
FFFFFFC0
FFFFFFC0
FFFFFFC0
FFFFFFC0
FFFFFFC0
FFFFFFC0
FFFFFFC0
FFFFFFC0
FFFFFFC0
FFFFFFC0
FFFFFFC0
ENDCHAR
STARTCHAR 258B
ENCODING 9611
SWIDTH 1020 0
DWIDTH 34 0
BBX 21 34 0 -5
BITMAP
FFFFF8
FFFFF8
FFFFF8
FFFFF8
FFFFF8
FFFFF8
FFFFF8
FFFFF8
FFFFF8
FFFFF8
FFFFF8
FFFFF8
FFFFF8
FFFFF8
FFFFF8
FFFFF8
FFFFF8
FFFFF8
FFFFF8
FFFFF8
FFFFF8
FFFFF8
FFFFF8
FFFFF8
FFFFF8
FFFFF8
FFFFF8
FFFFF8
FFFFF8
FFFFF8
FFFFF8
FFFFF8
FFFFF8
FFFFF8
ENDCHAR
STARTCHAR 258C
ENCODING 9612
SWIDTH 1020 0
DWIDTH 34 0
BBX 17 34 0 -5
BITMAP
FFFF80
FFFF80
FFFF80
FFFF80
FFFF80
FFFF80
FFFF80
FFFF80
FFFF80
FFFF80
FFFF80
FFFF80
FFFF80
FFFF80
FFFF80
FFFF80
FFFF80
FFFF80
FFFF80
FFFF80
FFFF80
FFFF80
FFFF80
FFFF80
FFFF80
FFFF80
FFFF80
FFFF80
FFFF80
FFFF80
FFFF80
FFFF80
FFFF80
FFFF80
ENDCHAR
STARTCHAR 258D
ENCODING 9613
SWIDTH 1020 0
DWIDTH 34 0
BBX 13 34 0 -5
BITMAP
FFF8
FFF8
FFF8
FFF8
FFF8
FFF8
FFF8
FFF8
FFF8
FFF8
FFF8
FFF8
FFF8
FFF8
FFF8
FFF8
FFF8
FFF8
FFF8
FFF8
FFF8
FFF8
FFF8
FFF8
FFF8
FFF8
FFF8
FFF8
FFF8
FFF8
FFF8
FFF8
FFF8
FFF8
ENDCHAR
STARTCHAR 258E
ENCODING 9614
SWIDTH 1020 0
DWIDTH 34 0
BBX 9 34 0 -5
BITMAP
FF80
FF80
FF80
FF80
FF80
FF80
FF80
FF80
FF80
FF80
FF80
FF80
FF80
FF80
FF80
FF80
FF80
FF80
FF80
FF80
FF80
FF80
FF80
FF80
FF80
FF80
FF80
FF80
FF80
FF80
FF80
FF80
FF80
FF00
ENDCHAR
STARTCHAR 258F
ENCODING 9615
SWIDTH 1020 0
DWIDTH 34 0
BBX 4 34 0 -5
BITMAP
F0
F0
F0
F0
F0
F0
F0
F0
F0
F0
F0
F0
F0
F0
F0
F0
F0
F0
F0
F0
F0
F0
F0
F0
F0
F0
F0
F0
F0
F0
F0
F0
F0
F0
ENDCHAR
STARTCHAR 2594
ENCODING 9620
SWIDTH 1020 0
DWIDTH 34 0
BBX 34 4 0 25
BITMAP
FFFFFFFFC0
FFFFFFFFC0
FFFFFFFFC0
FFFFFFFFC0
ENDCHAR
STARTCHAR 2595
ENCODING 9621
SWIDTH 1020 0
DWIDTH 34 0
BBX 4 34 30 -5
BITMAP
F0
F0
F0
F0
F0
F0
F0
F0
F0
F0
F0
F0
F0
F0
F0
F0
F0
F0
F0
F0
F0
F0
F0
F0
F0
F0
F0
F0
F0
F0
F0
F0
F0
F0
ENDCHAR
STARTCHAR 25A0
ENCODING 9632
SWIDTH 1020 0
DWIDTH 34 0
BBX 25 25 5 0
BITMAP
FFFFFF80
FFFFFF80
FFFFFF80
FFFFFF80
FFFFFF80
FFFFFF80
FFFFFF80
FFFFFF80
FFFFFF80
FFFFFF80
FFFFFF80
FFFFFF80
FFFFFF80
FFFFFF80
FFFFFF80
FFFFFF80
FFFFFF80
FFFFFF80
FFFFFF80
FFFFFF80
FFFFFF80
FFFFFF80
FFFFFF80
FFFFFF80
FFFFFF80
ENDCHAR
STARTCHAR 25A1
ENCODING 9633
SWIDTH 990 0
DWIDTH 33 0
BBX 25 25 5 0
BITMAP
FFFFFF80
80000180
80000180
80000180
80000180
80000180
80000180
80000180
80000180
80000180
80000180
80000180
80000180
80000180
80000180
80000180
80000180
80000180
80000180
80000180
80000180
80000180
80000180
FFFFFF80
FFFFFF80
ENDCHAR
STARTCHAR 25AA
ENCODING 9642
SWIDTH 1020 0
DWIDTH 34 0
BBX 12 13 7 6
BITMAP
FFF0
FFF0
FFF0
FFF0
FFF0
FFF0
FFF0
FFF0
FFF0
FFF0
FFF0
FFF0
FFF0
ENDCHAR
STARTCHAR 25AB
ENCODING 9643
SWIDTH 1020 0
DWIDTH 34 0
BBX 12 13 7 6
BITMAP
FFF0
FFF0
8030
8030
8030
8030
8030
8030
8030
8030
8030
FFF0
FFF0
ENDCHAR
STARTCHAR 25B1
ENCODING 9649
SWIDTH 510 0
DWIDTH 17 0
BBX 14 7 1 9
BITMAP
0FFC
1FFC
1808
3018
6030
7FF0
FFE0
ENDCHAR
STARTCHAR 25B2
ENCODING 9650
SWIDTH 1020 0
DWIDTH 34 0
BBX 30 26 2 0
BITMAP
00030000
00030000
00078000
00078000
000FC000
000FE000
001FE000
003FF000
003FF000
007FF800
007FF800
00FFFC00
01FFFE00
01FFFE00
03FFFF00
03FFFF00
07FFFF80
07FFFF80
0FFFFFC0
1FFFFFE0
1FFFFFE0
3FFFFFF0
3FFFFFF0
7FFFFFF8
7FFFFFFC
FFFFFFFC
ENDCHAR
STARTCHAR 25B3
ENCODING 9651
SWIDTH 1020 0
DWIDTH 34 0
BBX 30 26 2 0
BITMAP
00030000
00030000
00078000
00048000
000CC000
00086000
00182000
00303000
00201000
00601800
00400800
00C00C00
01800600
01800200
03000300
02000100
06000180
04000080
0C0000C0
18000060
10000020
30000030
20000010
60000018
7FFFFFFC
FFFFFFFC
ENDCHAR
STARTCHAR 25B6
ENCODING 9654
SWIDTH 1020 0
DWIDTH 34 0
BBX 26 30 5 -3
BITMAP
80000000
E0000000
F0000000
FC000000
FF000000
FFC00000
FFE00000
FFF80000
FFFE0000
FFFF0000
FFFFC000
FFFFF000
FFFFFC00
FFFFFE00
FFFFFF80
FFFFFFC0
FFFFFF80
FFFFFF00
FFFFFC00
FFFFF000
FFFFC000
FFFF8000
FFFE0000
FFF80000
FFE00000
FFC00000
FF000000
FC000000
F0000000
E0000000
ENDCHAR
STARTCHAR 25B7
ENCODING 9655
SWIDTH 1020 0
DWIDTH 34 0
BBX 26 30 5 -3
BITMAP
80000000
E0000000
F0000000
DC000000
C7000000
C3C00000
C0E00000
C0380000
C00E0000
C0070000
C001C000
C0007000
C0001C00
C0000E00
C0000380
C00000C0
C0000380
C0000F00
C0001C00
C0007000
C001C000
C0078000
C00E0000
C0380000
C0E00000
C3C00000
C7000000
DC000000
F0000000
E0000000
ENDCHAR
STARTCHAR 25BC
ENCODING 9660
SWIDTH 1020 0
DWIDTH 34 0
BBX 30 26 2 -1
BITMAP
FFFFFFFC
7FFFFFF8
7FFFFFF8
3FFFFFF0
3FFFFFF0
1FFFFFE0
0FFFFFE0
0FFFFFC0
07FFFF80
07FFFF80
03FFFF00
03FFFF00
01FFFE00
00FFFC00
00FFFC00
007FF800
007FF800
003FF000
001FF000
001FE000
000FC000
000FC000
00078000
00078000
00030000
00010000
ENDCHAR
STARTCHAR 25BD
ENCODING 9661
SWIDTH 1020 0
DWIDTH 34 0
BBX 30 26 2 -1
BITMAP
FFFFFFFC
60000008
60000018
30000030
30000030
18000060
08000060
0C0000C0
06000080
06000180
03000300
03000300
01800600
00800400
00C00C00
00601800
00601800
00303000
00103000
00186000
00084000
000CC000
00078000
00078000
00030000
00010000
ENDCHAR
STARTCHAR 25C0
ENCODING 9664
SWIDTH 1020 0
DWIDTH 34 0
BBX 26 31 3 -3
BITMAP
00000040
000001C0
000003C0
00000FC0
00003FC0
00007FC0
0001FFC0
0007FFC0
001FFFC0
003FFFC0
00FFFFC0
03FFFFC0
0FFFFFC0
1FFFFFC0
7FFFFFC0
FFFFFFC0
7FFFFFC0
1FFFFFC0
0FFFFFC0
03FFFFC0
00FFFFC0
003FFFC0
001FFFC0
0007FFC0
0001FFC0
0000FFC0
00003FC0
00000FC0
000003C0
000001C0
00000040
ENDCHAR
STARTCHAR 25C1
ENCODING 9665
SWIDTH 1020 0
DWIDTH 34 0
BBX 26 31 3 -3
BITMAP
00000040
000001C0
000003C0
00000EC0
000038C0
000070C0
0001C0C0
000700C0
001E00C0
003800C0
00E000C0
038000C0
0F0000C0
1C0000C0
700000C0
C00000C0
700000C0
1C0000C0
0F0000C0
038000C0
00E000C0
003800C0
001C00C0
000700C0
0001C0C0
0000F0C0
000038C0
00000EC0
000003C0
000001C0
00000040
ENDCHAR
STARTCHAR 25C6
ENCODING 9670
SWIDTH 1020 0
DWIDTH 34 0
BBX 32 31 1 -4
BITMAP
00018000
0003C000
0007E000
000FF000
001FF800
003FFC00
007FFE00
00FFFF00
01FFFF80
03FFFFC0
07FFFFE0
0FFFFFF0
1FFFFFF8
3FFFFFFC
7FFFFFFE
FFFFFFFF
7FFFFFFE
3FFFFFFC
1FFFFFF8
0FFFFFF0
07FFFFE0
03FFFFC0
01FFFF80
00FFFF00
007FFE00
003FFC00
001FF800
000FF000
0007E000
0003C000
00018000
ENDCHAR
STARTCHAR 25C7
ENCODING 9671
SWIDTH 1020 0
DWIDTH 34 0
BBX 32 31 1 -4
BITMAP
00018000
0003C000
00066000
000C3000
00181800
00300C00
00600600
00C00300
01800180
030000C0
06000060
0C000030
18000018
3000000C
60000006
C0000003
60000006
3000000C
18000018
0C000030
06000060
030000C0
01800180
00C00300
00600600
00300C00
00181800
000C3000
00066000
0003C000
00018000
ENDCHAR
STARTCHAR 25CB
ENCODING 9675
SWIDTH 1020 0
DWIDTH 34 0
BBX 27 27 4 -1
BITMAP
007F8000
01FFE000
07C07800
0E001C00
1C000E00
38000300
70000380
60000180
400000C0
C00000C0
C0000040
80000040
80000040
80000060
80000060
80000040
C0000040
C00000C0
400000C0
60000180
70000380
38000300
1C000E00
0E001C00
07807800
01FFE000
007F8000
ENDCHAR
STARTCHAR 25CC
ENCODING 9676
SWIDTH 1020 0
DWIDTH 34 0
BBX 26 25 4 0
BITMAP
001E0000
019E6000
07807800
02001800
00000000
38000700
30000300
70000380
20000100
00000000
00000000
C00000C0
C00000C0
C00000C0
C00000C0
00000000
20000100
70000380
30000300
38000700
00000000
02001800
07807800
019E6000
001E0000
ENDCHAR
STARTCHAR 25CE
ENCODING 9678
SWIDTH 990 0
DWIDTH 33 0
BBX 28 28 3 -1
BITMAP
003F8000
01FFF000
03C07800
07001E00
1E000700
18000380
381F0180
707FC0C0
60E0F0C0
E1C03060
C3801860
C3001C60
C6000C70
C6000C70
C6000C70
C6000C70
C6000C60
C3001C60
E3801860
618030C0
70E0F1C0
387FC180
181F8380
1C000700
0F001E00
03C07C00
01FFF000
003F8000
ENDCHAR
STARTCHAR 25CF
ENCODING 9679
SWIDTH 1020 0
DWIDTH 34 0
BBX 27 27 4 -1
BITMAP
003F0000
01FFE000
07FFF800
0FFFFC00
1FFFFE00
3FFFFF00
3FFFFF80
7FFFFF80
7FFFFFC0
FFFFFFC0
FFFFFFC0
FFFFFFC0
FFFFFFC0
FFFFFFE0
FFFFFFE0
FFFFFFC0
FFFFFFC0
FFFFFFC0
FFFFFFC0
7FFFFF80
7FFFFF80
3FFFFF00
1FFFFE00
0FFFFC00
07FFF800
01FFE000
007F8000
ENDCHAR
STARTCHAR 25D0
ENCODING 9680
SWIDTH 510 0
DWIDTH 17 0
BBX 15 15 1 5
BITMAP
0FC0
1EF0
3E18
7E0C
FE04
FE06
FE06
FE06
FE06
FE06
FE0C
7E0C
3E38
1FF0
07C0
ENDCHAR
STARTCHAR 25D1
ENCODING 9681
SWIDTH 510 0
DWIDTH 17 0
BBX 15 15 1 5
BITMAP
0FC0
1FF0
31F8
61FC
C1FC
C1FE
81FE
81FE
81FE
C1FE
C1FC
61FC
31F8
1FF0
07C0
ENDCHAR
STARTCHAR 25D2
ENCODING 9682
SWIDTH 510 0
DWIDTH 17 0
BBX 15 15 1 5
BITMAP
07C0
1FF0
3838
601C
E00C
C006
C006
8006
FFFE
FFFE
FFFC
7FFC
3FF8
1FF0
0FC0
ENDCHAR
STARTCHAR 25D3
ENCODING 9683
SWIDTH 510 0
DWIDTH 17 0
BBX 15 15 1 5
BITMAP
07C0
1FF0
3FF8
7FFC
FFFC
FFFE
FFFE
8006
C006
C006
E00C
601C
3838
1FF0
07C0
ENDCHAR
STARTCHAR 25E6
ENCODING 9702
SWIDTH 1020 0
DWIDTH 34 0
BBX 8 7 4 9
BITMAP
3C
46
C2
83
C3
42
3C
ENDCHAR
STARTCHAR 25EF
ENCODING 9711
SWIDTH 1020 0
DWIDTH 34 0
BBX 32 32 1 -3
BITMAP
000FF000
007FFE00
01F00F80
03C001C0
070000E0
0E000030
1C000018
3800001C
3000000C
60000006
60000006
40000003
C0000003
C0000003
C0000001
C0000001
80000001
80000001
C0000001
C0000003
C0000003
40000002
60000006
20000006
3000000C
10000008
18000018
0C000030
06000060
01800180
00E00700
001FFC00
ENDCHAR
STARTCHAR 2600
ENCODING 9728
SWIDTH 990 0
DWIDTH 33 0
BBX 31 31 1 -3
BITMAP
00010000
00010000
00010000
00010000
0C010020
06010040
03000080
0187C100
009FF200
003FF800
007FFC00
00FFFE00
00FFFE00
00FFFF00
01FFFF00
FDFFFF7E
01FFFF00
00FFFF00
00FFFE00
007FFE00
007FFC00
003FF800
008FF300
01038180
020000C0
04010060
00010020
00010000
00010000
00010000
00010000
ENDCHAR
STARTCHAR 2601
ENCODING 9729
SWIDTH 990 0
DWIDTH 33 0
BBX 29 23 2 -1
BITMAP
001C0000
007F8000
00FFC000
01FFE000
01FFF000
03FFF000
03FFF1E0
03FFFBF0
03FFFFF8
03FFFFF8
0FFFFFF8
3FFFFFF8
7FFFFFF8
7FFFFFF0
FFFFFFE0
FFFFFFF0
FFFFFFF8
FFFFFFF8
7FF9FFF8
3FF1FFF8
1FC0FFF0
00007FE0
00003FC0
ENDCHAR
STARTCHAR 2602
ENCODING 9730
SWIDTH 990 0
DWIDTH 33 0
BBX 31 30 1 -2
BITMAP
00010000
00010000
00010000
003FFC00
01FFFF00
03FFFFC0
0FFFFFE0
1FFFFFF0
1FFFFFF8
3FFFFFF8
7FFFFFFC
63E7CFCC
41C38306
40810302
80810202
00010000
00010000
00010000
00010000
00010000
00010000
00010000
00010000
00010000
00010000
00010000
00010000
00310000
00310000
001E0000
ENDCHAR
STARTCHAR 2603
ENCODING 9731
SWIDTH 990 0
DWIDTH 33 0
BBX 31 31 1 -3
BITMAP
C003000C
C005180A
C183240C
01804200
01804180
00008040
30010040
28020040
303D8098
00C0E094
01003F18
02000080
020C6080
320C7080
520C6080
32000080
010C2106
00C3C20A
01800306
C2000080
C4000040
C8018020
10038010
10018010
10000010
10018010
10038010
08018020
0C000060
060000C0
01FFFF00
ENDCHAR
STARTCHAR 2605
ENCODING 9733
SWIDTH 1020 0
DWIDTH 34 0
BBX 30 28 2 -1
BITMAP
00030000
00030000
00030000
00038000
00078000
00078000
0007C000
000FC000
000FC000
000FE000
7FFFFFFC
FFFFFFFC
3FFFFFF0
1FFFFFE0
07FFFFC0
03FFFF00
01FFFE00
007FF800
007FF800
00FFFC00
00FFFC00
00FFFC00
01FCFE00
01F87E00
01F03E00
03C00F00
03800700
03000300
ENDCHAR
STARTCHAR 2606
ENCODING 9734
SWIDTH 1020 0
DWIDTH 34 0
BBX 30 28 2 -1
BITMAP
00030000
00030000
00030000
00038000
00078000
00048000
0004C000
000CC000
00084000
00086000
7FF87FFC
FFF83FFC
30000030
1C0000E0
060001C0
03800300
01C00E00
00600800
00400800
00C00C00
00C00400
00878400
018CC600
01987200
01703A00
03C00F00
03800700
03000300
ENDCHAR
STARTCHAR 260E
ENCODING 9742
SWIDTH 1020 0
DWIDTH 34 0
BBX 30 25 2 0
BITMAP
0FFFFFC0
3FFFFFF0
7FFFFFF8
7FF03FFC
FC7038FC
F870387C
F870387C
F87FF87C
00FFFC00
01FFFE00
03F87F00
03E01F00
03C00F00
07C00780
07800780
0F8007C0
1F8007E0
1F8007F0
3FC007F0
7FC00FF8
7FE01FF8
7FF87FF8
7FFFFFF8
7FFFFFFC
FFFFFFFC
ENDCHAR
STARTCHAR 2610
ENCODING 9744
SWIDTH 990 0
DWIDTH 33 0
BBX 25 25 5 0
BITMAP
FFFFFF80
80000180
80000180
80000180
80000180
80000180
80000180
80000180
80000180
80000180
80000180
80000180
80000180
80000180
80000180
80000180
80000180
80000180
80000180
80000180
80000180
80000180
80000180
FFFFFF80
FFFFFF80
ENDCHAR
STARTCHAR 2611
ENCODING 9745
SWIDTH 990 0
DWIDTH 33 0
BBX 25 25 5 0
BITMAP
FFFFFF80
80000180
80000180
80000980
80000980
80001180
80002180
80006180
8000C180
80008180
80010180
80030180
80060180
800C0180
98180180
98300180
9C700180
8CE00180
8FC00180
87800180
87000180
82000180
80000180
FFFFFF80
FFFFFF80
ENDCHAR
STARTCHAR 2612
ENCODING 9746
SWIDTH 1020 0
DWIDTH 34 0
BBX 25 25 5 0
BITMAP
FFFFFF80
80000180
80000180
80000180
88001180
8C003980
86007180
8300E180
8181C180
80C38180
80670180
803E0180
801C0180
803C0180
80760180
80E30180
81C18180
8380C180
87006180
8E003180
8C001180
80000180
80000180
FFFFFF80
FFFFFF80
ENDCHAR
STARTCHAR 2613
ENCODING 9747
SWIDTH 990 0
DWIDTH 33 0
BBX 17 17 9 4
BITMAP
800100
C00380
600700
300E00
181C00
0C3800
067000
03E000
01C000
03C000
076000
0E3000
1C1800
380C00
700600
E00300
C00100
ENDCHAR
STARTCHAR 261D
ENCODING 9757
SWIDTH 990 0
DWIDTH 33 0
BBX 14 29 10 -2
BITMAP
6000
5000
9000
9000
9000
9300
94C0
9920
9920
9A38
AE28
5744
8ECC
8AB4
8B98
88E8
8808
8808
8410
8410
4420
2420
6450
FC98
9FF8
8008
8008
C008
3FF0
ENDCHAR
STARTCHAR 261E
ENCODING 9758
SWIDTH 990 0
DWIDTH 33 0
BBX 29 13 2 6
BITMAP
7C3FFFF0
42C04008
47003008
84027FF0
841FD400
87F06200
8401F100
84014E00
8406C200
86052200
85831C00
46618800
7C1FF000
ENDCHAR
STARTCHAR 2640
ENCODING 9792
SWIDTH 1020 0
DWIDTH 34 0
BBX 17 30 2 -2
BITMAP
03E000
0FF800
1C1C00
300600
600300
600300
C00100
C00180
C00180
C00180
C00100
400300
600300
300600
181C00
0FF800
03E000
008000
008000
008000
008000
FFFF80
FFFF80
008000
008000
008000
008000
008000
008000
008000
ENDCHAR
STARTCHAR 2642
ENCODING 9794
SWIDTH 1020 0
DWIDTH 34 0
BBX 25 26 2 -1
BITMAP
000FFF80
000FFF80
00000380
00000780
00000D80
00001980
00003180
00006180
0000C180
07E18180
1FFB0180
383E0180
700C0180
60060000
C0020000
C0030000
80030000
80030000
80030000
C0030000
C0030000
60060000
700E0000
381C0000
1FF80000
07E00000
ENDCHAR
STARTCHAR 2660
ENCODING 9824
SWIDTH 1020 0
DWIDTH 34 0
BBX 24 26 5 0
BITMAP
001800
003C00
007E00
00FF00
01FF80
03FFC0
07FFE0
0FFFF0
1FFFF8
3FFFFC
3FFFFE
7FFFFE
7FFFFF
FFFFFF
FFFFFF
FFFFFF
FFFFFF
7FFFFF
7FFFFE
3FDBFC
1F9DF8
003C00
003C00
007E00
03FFE0
03FFE0
ENDCHAR
STARTCHAR 2661
ENCODING 9825
SWIDTH 1020 0
DWIDTH 34 0
BBX 23 25 6 0
BITMAP
1F03E0
3F87F0
70CE18
C0780C
C0780C
803004
803006
803006
800004
800004
C0000C
40000C
600018
200010
300030
180060
080040
0C00C0
060180
030300
018600
008400
004C00
007800
003000
ENDCHAR
STARTCHAR 2662
ENCODING 9826
SWIDTH 1020 0
DWIDTH 34 0
BBX 24 27 5 -1
BITMAP
001800
003C00
003E00
006600
00C300
018180
0300C0
060060
0C0030
180018
38000C
700006
600007
C00003
E00007
700006
30000C
180018
0C0030
060060
0300C0
018180
00C300
006700
007E00
003C00
001800
ENDCHAR
STARTCHAR 2663
ENCODING 9827
SWIDTH 1020 0
DWIDTH 34 0
BBX 25 26 5 0
BITMAP
003C0000
00FF0000
01FF8000
01FF8000
03FFC000
03FFC000
03FFC000
03FFC000
01FF8000
0FFFF800
3FFFFC00
7FFFFE00
FFFFFF00
FFFFFF00
FFFFFF00
FFFFFF80
FFFFFF00
FFFFFF00
7FFFFF00
7FD9FE00
1F1CF800
003C0000
003C0000
007E0000
03FFE000
03FFE000
ENDCHAR
STARTCHAR 2664
ENCODING 9828
SWIDTH 1020 0
DWIDTH 34 0
BBX 24 25 5 1
BITMAP
001800
002600
00C300
018180
0300C0
060060
0C0030
180018
100008
300004
600006
400002
C00003
C00003
C00003
C00003
C02603
606603
70E70E
3FE7FC
1F66F8
006600
00C300
07FFE0
07FFE0
ENDCHAR
STARTCHAR 2665
ENCODING 9829
SWIDTH 1020 0
DWIDTH 34 0
BBX 23 25 6 0
BITMAP
3F03F0
7F87F8
7FCFFC
FFCFFC
FFCFFC
FFFFFC
FFFFFE
FFFFFC
FFFFFC
FFFFFC
FFFFFC
7FFFF8
7FFFF8
3FFFF0
3FFFF0
1FFFE0
0FFFC0
07FF80
07FF80
03FF00
01FE00
00FC00
007800
003000
001000
ENDCHAR
STARTCHAR 2666
ENCODING 9830
SWIDTH 1020 0
DWIDTH 34 0
BBX 24 27 5 -1
BITMAP
001800
003C00
003E00
007E00
00FF00
01FF80
03FFC0
07FFE0
0FFFF0
1FFFF8
3FFFFC
7FFFFE
7FFFFF
FFFFFF
FFFFFF
7FFFFE
3FFFFC
1FFFF8
0FFFF0
07FFE0
03FFC0
01FF80
00FF00
007F00
007E00
003C00
001800
ENDCHAR
STARTCHAR 2667
ENCODING 9831
SWIDTH 1020 0
DWIDTH 34 0
BBX 25 26 5 0
BITMAP
003C0000
00FF0000
01C38000
0381C000
0300C000
02004000
02004000
02004000
03004000
1F00F800
3F00FC00
70000E00
C0000300
C0000300
80000100
80000180
80000100
C0260300
C0660300
70E70E00
3FE7FC00
0F66F800
00660000
00C30000
07FFE000
07FFE000
ENDCHAR
STARTCHAR 2668
ENCODING 9832
SWIDTH 990 0
DWIDTH 33 0
BBX 29 26 2 0
BITMAP
00060000
000C0000
010C1800
030C1800
030C3000
070C3000
070C3800
070E3800
030E1800
03861C00
03871C00
01830E00
01C38E00
00C38600
10C38600
38C38660
60C38630
C1838E18
C1830C18
C1070818
E0060038
70000078
7C0001F0
1F800FE0
07FFFF80
00FFF800
ENDCHAR
STARTCHAR 2669
ENCODING 9833
SWIDTH 1020 0
DWIDTH 34 0
BBX 9 26 2 0
BITMAP
0080
0080
0080
0080
0080
0080
0080
0080
0080
0080
0080
0080
0080
0080
0080
0080
0080
0080
0080
0C80
7F80
7F80
FF80
FF80
7F00
7E00
ENDCHAR
STARTCHAR 266A
ENCODING 9834
SWIDTH 1020 0
DWIDTH 34 0
BBX 17 26 2 0
BITMAP
008000
01C000
01E000
01F000
01F800
01FC00
019E00
018F00
018700
018380
018180
018080
018080
018180
018180
018300
018600
018C00
018000
0D8000
7F8000
FF8000
FF8000
FF0000
FF0000
7E0000
ENDCHAR
STARTCHAR 266B
ENCODING 9835
SWIDTH 510 0
DWIDTH 17 0
BBX 14 19 1 3
BITMAP
001C
01FC
0FFC
0FC4
0C04
0804
0804
0804
0804
0804
0804
0804
0804
087C
087C
787C
F878
F800
F000
ENDCHAR
STARTCHAR 266C
ENCODING 9836
SWIDTH 1020 0
DWIDTH 34 0
BBX 24 28 2 -1
BITMAP
000003
00007F
000FFF
01FFFF
01FFFD
01FF81
01F001
01003F
0107FF
01FFFF
01FFFF
01FFE1
01FC01
018001
010001
010001
010001
010001
01007F
0100FF
0101FF
3D01FF
FF01FE
FF00FC
FF0030
FF0000
FE0000
7C0000
ENDCHAR
STARTCHAR 266D
ENCODING 9837
SWIDTH 1020 0
DWIDTH 34 0
BBX 14 25 5 -1
BITMAP
8000
8000
8000
8000
8000
8000
8000
8000
87E0
9FF8
B878
E03C
C03C
801C
803C
803C
8038
8038
8070
80E0
81C0
8380
8F00
FC00
F000
ENDCHAR
STARTCHAR 266E
ENCODING 9838
SWIDTH 510 0
DWIDTH 17 0
BBX 7 19 5 3
BITMAP
80
80
80
82
9E
FE
E6
86
86
86
86
8E
FE
F6
86
06
06
06
06
ENDCHAR
STARTCHAR 266F
ENCODING 9839
SWIDTH 1020 0
DWIDTH 34 0
BBX 18 27 3 -1
BITMAP
000800
000C00
0C0C00
0C0C00
0C0C00
0C0DC0
0C1FC0
0DFFC0
1FFE00
FFEC00
FE0C00
EC0C00
0C0C00
0C0C00
0C0C40
0C0FC0
0C7FC0
0FFF80
7FFC00
FF8C00
FC0C00
8C0C00
0C0C00
0C0C00
0C0C00
0C0000
040000
ENDCHAR
STARTCHAR 2713
ENCODING 10003
SWIDTH 990 0
DWIDTH 33 0
BBX 21 22 8 2
BITMAP
000008
000018
000030
000020
000040
0000C0
000180
000300
000200
000600
000C00
001800
403000
C07000
E0E000
E1C000
E38000
770000
7E0000
3E0000
3C0000
180000
ENDCHAR
STARTCHAR 271A
ENCODING 10010
SWIDTH 1020 0
DWIDTH 34 0
BBX 25 25 5 0
BITMAP
00FF0000
00FF0000
00FF0000
00FF0000
00FF0000
00FF0000
00FF0000
00FF0000
FFFFFF80
FFFFFF80
FFFFFF80
FFFFFF80
FFFFFF80
FFFFFF80
FFFFFF80
FFFFFF80
FFFFFF80
00FF0000
00FF0000
00FF0000
00FF0000
00FF0000
00FF0000
00FF0000
00FF0000
ENDCHAR
STARTCHAR 2756
ENCODING 10070
SWIDTH 1020 0
DWIDTH 34 0
BBX 30 30 2 -2
BITMAP
00030000
00078000
000FC000
001FE000
003FF000
007FF800
00FFFC00
007FF800
023FF100
071FE380
0F8FC7C0
1FC78FE0
3FE31FF0
7FF03FF8
FFF87FFC
FFF87FFC
7FF03FF8
3FE31FF0
1FC78FE0
0F8FC7C0
071FE380
023FF100
007FF800
00FFFC00
007FF800
003FF000
001FE000
000FC000
00078000
00030000
ENDCHAR
STARTCHAR 2776
ENCODING 10102
SWIDTH 1020 0
DWIDTH 34 0
BBX 31 31 2 -3
BITMAP
000FC000
007FF800
01FFFE00
03FFFF80
0FFFFFC0
1FFFFFE0
1FFC7FE0
3FF87FF0
7FE07FF8
7FC07FF8
7F847FFC
FF8C7FFC
FFBC7FFC
FFFC7FFC
FFFC7FFC
FFFC7FFE
FFFC7FFE
FFFC7FFC
FFFC7FFC
FFFC7FFC
FFFC7FFC
7FFC7FF8
7FFC7FF8
3FFC7FF0
3FFC7FF0
1FFFFFE0
0FFFFFC0
07FFFF80
03FFFF00
00FFFC00
001FE000
ENDCHAR
STARTCHAR 2777
ENCODING 10103
SWIDTH 1020 0
DWIDTH 34 0
BBX 31 31 2 -3
BITMAP
000FC000
007FF800
01FFFE00
03FFFF80
0FFFFFC0
1FFFFFE0
1FE03FE0
3F800FF0
7F820FF8
7FBF87F8
7FFFC7FC
FFFFC7FC
FFFFC7FC
FFFFC7FC
FFFF8FFC
FFFF8FFE
FFFF1FFE
FFFE3FFC
FFFC3FFC
FFF87FFC
FFF1FFFC
7FE3FFF8
7F87FFF8
3F8007F0
3F8007F0
1FFFFFE0
0FFFFFC0
07FFFF80
03FFFF00
00FFFC00
001FE000
ENDCHAR
STARTCHAR 2778
ENCODING 10104
SWIDTH 1020 0
DWIDTH 34 0
BBX 31 31 2 -3
BITMAP
000FC000
007FF800
01FFFE00
03FFFF80
0FFFFFC0
1FFFFFE0
1F8007E0
3F8007F0
7F8007F8
7FFF0FF8
7FFE1FFC
FFFC3FFC
FFF87FFC
FFF0FFFC
FFF03FFC
FFF00FFE
FFFF0FFE
FFFFC7FC
FFFFC7FC
FFFFC7FC
FFFFC7FC
7FFFC7F8
7F9F8FF8
3F800FF0
3F803FF0
1FFFFFE0
0FFFFFC0
07FFFF80
03FFFF00
00FFFC00
001FE000
ENDCHAR
STARTCHAR 2779
ENCODING 10105
SWIDTH 1020 0
DWIDTH 34 0
BBX 31 31 2 -3
BITMAP
000FC000
007FF800
01FFFE00
03FFFF80
0FFFFFC0
1FFFFFE0
1FFE3FE0
3FFE3FF0
7FFC3FF8
7FF83FF8
7FF93FFC
FFF33FFC
FFE33FFC
FFC73FFC
FFCF3FFC
FF8F3FFE
FF1F3FFE
FF3F3FFC
FE7E3FFC
FE0007FC
FE0007FC
7FFF3FF8
7FFF3FF8
3FFF3FF0
3FFF3FF0
1FFFFFE0
0FFFFFC0
07FFFF80
03FFFF00
00FFFC00
001FE000
ENDCHAR
STARTCHAR 277A
ENCODING 10106
SWIDTH 1020 0
DWIDTH 34 0
BBX 31 31 2 -3
BITMAP
000FC000
007FF800
01FFFE00
03FFFF80
0FFFFFC0
1FFFFFE0
1FC00FE0
3FC00FF0
7FC00FF8
7FCFFFF8
7FCFFFFC
FFCFFFFC
FFCFFFFC
FFC83FFC
FF800FFC
FF830FFE
FFFFC7FE
FFFFC7FC
FFFFC7FC
FFFFC7FC
FFFFC7FC
7FFFC7F8
7F9F8FF8
3F800FF0
3F803FF0
1FFFFFE0
0FFFFFC0
07FFFF80
03FFFF00
00FFFC00
001FE000
ENDCHAR
STARTCHAR 277B
ENCODING 10107
SWIDTH 1020 0
DWIDTH 34 0
BBX 31 31 2 -3
BITMAP
000FC000
007FF800
01FFFE00
03FFFF80
0FFFFFC0
1FFFFFE0
1FF80FE0
3FF00FF0
7FE1EFF8
7FC7FFF8
7F8FFFFC
FF8FFFFC
FF9FFFFC
FF100FFC
FF0007FC
FF07C7FE
FF0FE3FE
FF1FE3FC
FF1FE3FC
FF1FE3FC
FF9FE3FC
7F8FE3F8
7F87C7F8
3FC00FF0
3FE01FF0
1FFFFFE0
0FFFFFC0
07FFFF80
03FFFF00
00FFFC00
001FE000
ENDCHAR
STARTCHAR 277C
ENCODING 10108
SWIDTH 1020 0
DWIDTH 34 0
BBX 31 31 2 -3
BITMAP
000FC000
007FF800
01FFFE00
03FFFF80
0FFFFFC0
1FFFFFE0
1F8007E0
3F8007F0
7F8007F8
7FFFC7F8
7FFFCFFC
FFFF8FFC
FFFF1FFC
FFFF1FFC
FFFE3FFC
FFFE3FFE
FFFC7FFE
FFFC7FFC
FFFCFFFC
FFF8FFFC
FFF8FFFC
7FF1FFF8
7FF1FFF8
3FF1FFF0
3FE3FFF0
1FFFFFE0
0FFFFFC0
07FFFF80
03FFFF00
00FFFC00
001FE000
ENDCHAR
STARTCHAR 277D
ENCODING 10109
SWIDTH 1020 0
DWIDTH 34 0
BBX 31 31 2 -3
BITMAP
000FC000
007FF800
01FFFE00
03FFFF80
0FFFFFC0
1FFFFFE0
1FF03FE0
3FC00FF0
7F8787F8
7F8FC7F8
7F9FE7FC
FF9FE7FC
FF8FC7FC
FFC78FFC
FFE01FFC
FFF01FFE
FFC307FE
FF8FC7FC
FF1FE3FC
FF1FE3FC
FF1FE3FC
7F1FE3F8
7F8FC3F8
3F8007F0
3FE01FF0
1FFFFFE0
0FFFFFC0
07FFFF80
03FFFF00
00FFFC00
001FE000
ENDCHAR
STARTCHAR 277E
ENCODING 10110
SWIDTH 1020 0
DWIDTH 34 0
BBX 31 31 2 -3
BITMAP
000FC000
007FF800
01FFFE00
03FFFF80
0FFFFFC0
1FFFFFE0
1FF03FE0
3FC00FF0
7F878FF8
7F8FC7F8
7F1FE7FC
FF1FE3FC
FF1FE3FC
FF1FE3FC
FF1FE3FC
FF8FC3FE
FF8783FE
FFC003FC
FFF063FC
FFFFE7FC
FFFFC7FC
7FFFC7F8
7FFF8FF8
3FC01FF0
3FC03FF0
1FFFFFE0
0FFFFFC0
07FFFF80
03FFFF00
00FFFC00
001FE000
ENDCHAR
STARTCHAR 277F
ENCODING 10111
SWIDTH 990 0
DWIDTH 33 0
BBX 31 31 1 -3
BITMAP
003FF800
00FFFE00
01FFFF80
07FFFFC0
0FFFFFE0
1F3F81F0
1E3F00F8
383E1878
783E3C7C
7A3E7E7C
7E3C7E3E
FE3C7E3E
FE3C7E3E
FE3C7E3E
FE3C7F3E
FE3C7F3E
FE3C7F3E
FE3C7E3E
FE3C7E3E
FE3C7E3E
7E3C7E3E
7E3E7E7C
3E3E3C7C
3E3F18F8
1E3F00F0
0E3FC3F0
07FFFFE0
03FFFFC0
01FFFF00
007FFC00
001FF000
ENDCHAR
STARTCHAR 3001
ENCODING 12289
SWIDTH 1020 0
DWIDTH 34 0
BBX 9 9 2 -2
BITMAP
6000
F000
7800
3C00
1C00
0E00
0700
0780
0200
ENDCHAR
STARTCHAR 3002
ENCODING 12290
SWIDTH 1020 0
DWIDTH 34 0
BBX 11 11 2 -3
BITMAP
1E00
3F80
71C0
E0C0
C0C0
C0E0
C0C0
E0C0
71C0
3F80
1F00
ENDCHAR
STARTCHAR 3003
ENCODING 12291
SWIDTH 1020 0
DWIDTH 34 0
BBX 21 23 6 1
BITMAP
010020
01C038
01C038
018038
038030
038070
038070
030070
070070
0700E0
0E00E0
0E00E0
0E01C0
1C01C0
1C03C0
380380
380380
700700
F00700
E00E00
C00E00
001C00
001C00
ENDCHAR
STARTCHAR 3004
ENCODING 12292
SWIDTH 1020 0
DWIDTH 34 0
BBX 32 32 1 -4
BITMAP
000F0000
00700100
018001C0
02000160
04000130
08000118
10000108
20000104
20000104
40018102
4001C302
4001E202
8001BC01
80018001
80018001
80018001
80018001
801F8001
80338001
C0618001
40418003
40600002
60200002
20300004
3018000C
18080008
0C0C0010
060C0030
03180040
00F00180
00000E00
0000F000
ENDCHAR
STARTCHAR 3005
ENCODING 12293
SWIDTH 1020 0
DWIDTH 34 0
BBX 25 29 3 -2
BITMAP
00200000
00380000
00380000
00700000
00700000
00E00000
00FFFF80
01FFFF80
01C00380
03800300
03800700
07000700
0E000E00
1E000E00
1C001C00
38001C00
78403800
F0F07000
E078F000
403DE000
001FC000
000F8000
00078000
0001C000
0000E000
00007000
00003800
00001C00
00000800
ENDCHAR
STARTCHAR 3006
ENCODING 12294
SWIDTH 1020 0
DWIDTH 34 0
BBX 27 28 4 -1
BITMAP
000000C0
000001E0
000003C0
00000780
00000F00
00001E00
00003C00
00007800
03F0F000
0FFDE000
0E1FC000
18078000
380FC000
301EE000
703C7800
60783800
60F01C00
61E00E00
E3C00700
E3800700
E7800200
EF000000
DE000000
FC000000
F8000000
F0000000
F0000000
20000000
ENDCHAR
STARTCHAR 3007
ENCODING 12295
SWIDTH 1020 0
DWIDTH 34 0
BBX 30 30 2 -3
BITMAP
001FE000
007FFC00
01F01E00
03800780
070003C0
0E0000C0
1C0000E0
38000070
30000030
70000038
60000018
60000018
E000001C
E000001C
E000001C
E000001C
E000001C
E000001C
60000018
70000038
70000038
38000070
3C000070
1E0000E0
0F0003E0
078007C0
03E01F80
01FFFE00
00FFFC00
001FE000
ENDCHAR
STARTCHAR 3008
ENCODING 12296
SWIDTH 1020 0
DWIDTH 34 0
BBX 12 31 19 -3
BITMAP
0070
00E0
00C0
01C0
0380
0380
0700
0600
0E00
1C00
1C00
3800
3000
7000
E000
E000
E000
7000
7000
3800
1800
1C00
0E00
0E00
0700
0300
0380
01C0
01C0
00E0
0060
ENDCHAR
STARTCHAR 3009
ENCODING 12297
SWIDTH 1020 0
DWIDTH 34 0
BBX 11 31 4 -3
BITMAP
C000
E000
6000
7000
3800
3800
1C00
0C00
0E00
0700
0700
0380
01C0
01C0
00E0
00E0
00E0
00C0
01C0
0380
0380
0700
0600
0E00
1C00
1C00
3800
3000
7000
E000
E000
ENDCHAR
STARTCHAR 300A
ENCODING 12298
SWIDTH 1020 0
DWIDTH 34 0
BBX 17 31 14 -3
BITMAP
006380
00E700
01C600
01CE00
038C00
031C00
073800
0E3000
0E7000
1C6000
18E000
39C000
718000
738000
E30000
C70000
E70000
638000
718000
39C000
38C000
1CE000
0C7000
0E3000
073800
071800
039C00
018E00
01C600
00E700
00E300
ENDCHAR
STARTCHAR 300B
ENCODING 12299
SWIDTH 1020 0
DWIDTH 34 0
BBX 16 31 4 -3
BITMAP
C600
E700
6380
7180
39C0
38C0
1CE0
0C70
0E30
0738
0718
039C
018E
01C6
00E7
00E3
00E7
00C6
01CE
038C
031C
0738
0630
0E70
1C60
18E0
39C0
3180
7380
E300
C700
ENDCHAR
STARTCHAR 300C
ENCODING 12300
SWIDTH 1020 0
DWIDTH 34 0
BBX 13 26 19 2
BITMAP
FFF8
FFF8
C000
C000
C000
C000
C000
C000
C000
C000
C000
C000
C000
C000
C000
C000
C000
C000
C000
C000
C000
C000
C000
C000
C000
C000
ENDCHAR
STARTCHAR 300D
ENCODING 12301
SWIDTH 1020 0
DWIDTH 34 0
BBX 13 26 2 -3
BITMAP
0018
0018
0018
0018
0018
0018
0018
0018
0018
0018
0018
0018
0018
0018
0018
0018
0018
0018
0018
0018
0018
0018
0018
0018
FFF8
FFF8
ENDCHAR
STARTCHAR 300E
ENCODING 12302
SWIDTH 1020 0
DWIDTH 34 0
BBX 14 27 18 1
BITMAP
FFFC
800C
800C
800C
8FFC
8FFC
8800
8800
8800
8800
8800
8800
8800
8800
8800
8800
8800
8800
8800
8800
8800
8800
8800
8800
8800
F800
F800
ENDCHAR
STARTCHAR 300F
ENCODING 12303
SWIDTH 1020 0
DWIDTH 34 0
BBX 15 28 2 -4
BITMAP
007E
007E
0066
0066
0066
0066
0066
0066
0066
0066
0066
0066
0066
0066
0066
0066
0066
0066
0066
0066
0066
0066
FFE6
FFC6
C006
C006
FFFE
FFFE
ENDCHAR
STARTCHAR 3010
ENCODING 12304
SWIDTH 1020 0
DWIDTH 34 0
BBX 9 31 21 -3
BITMAP
FF80
FF80
FF00
FE00
FC00
FC00
F800
F800
F000
F000
F000
E000
E000
E000
E000
E000
E000
E000
E000
E000
F000
F000
F000
F000
F800
F800
FC00
FE00
FE00
FF00
FF80
ENDCHAR
STARTCHAR 3011
ENCODING 12305
SWIDTH 1020 0
DWIDTH 34 0
BBX 9 31 4 -3
BITMAP
FF80
7F80
7F80
3F80
1F80
1F80
0F80
0F80
0780
0780
0780
0380
0380
0380
0380
0380
0380
0380
0380
0380
0380
0780
0780
0780
0F80
0F80
1F80
3F80
3F80
7F80
FF80
ENDCHAR
STARTCHAR 3012
ENCODING 12306
SWIDTH 1020 0
DWIDTH 34 0
BBX 26 25 4 0
BITMAP
FFFFFFC0
FFFFFFC0
00000000
00000000
00000000
00000000
00000000
00000000
FFFFFFC0
FFFFFFC0
000C0000
000C0000
000C0000
000C0000
000C0000
000C0000
000C0000
000C0000
000C0000
000C0000
000C0000
000C0000
000C0000
000C0000
000C0000
ENDCHAR
STARTCHAR 3013
ENCODING 12307
SWIDTH 1020 0
DWIDTH 34 0
BBX 26 27 4 -1
BITMAP
FFFFFFC0
FFFFFFC0
FFFFFFC0
FFFFFFC0
FFFFFFC0
FFFFFFC0
FFFFFFC0
FFFFFFC0
FFFFFFC0
FFFFFFC0
00000000
00000000
00000000
00000000
00000000
00000000
00000000
FFFFFFC0
FFFFFFC0
FFFFFFC0
FFFFFFC0
FFFFFFC0
FFFFFFC0
FFFFFFC0
FFFFFFC0
FFFFFFC0
FFFFFFC0
ENDCHAR
STARTCHAR 3014
ENCODING 12308
SWIDTH 1020 0
DWIDTH 34 0
BBX 12 31 18 -3
BITMAP
0030
01F0
07E0
3F00
F800
E000
E000
E000
E000
E000
E000
E000
E000
E000
E000
E000
E000
E000
E000
E000
E000
E000
E000
E000
E000
E000
F000
FE00
1FC0
03F0
0070
ENDCHAR
STARTCHAR 3015
ENCODING 12309
SWIDTH 1020 0
DWIDTH 34 0
BBX 12 31 4 -3
BITMAP
C000
F800
7F00
0FE0
01F0
0030
0030
0030
0030
0030
0030
0030
0030
0030
0030
0030
0030
0030
0030
0030
0030
0030
0030
0030
0030
0030
00F0
07F0
3F80
FC00
E000
ENDCHAR
STARTCHAR 3016
ENCODING 12310
SWIDTH 990 0
DWIDTH 33 0
BBX 11 30 20 -2
BITMAP
FFE0
FFC0
C180
C180
C300
C300
C600
C600
C400
CC00
CC00
CC00
CC00
CC00
CC00
CC00
CC00
CC00
CC00
CC00
CC00
C400
C600
C600
C300
C300
C180
C180
FFC0
FFE0
ENDCHAR
STARTCHAR 3017
ENCODING 12311
SWIDTH 990 0
DWIDTH 33 0
BBX 10 30 3 -2
BITMAP
FFC0
FFC0
60C0
30C0
30C0
18C0
18C0
18C0
0CC0
0CC0
0CC0
0CC0
04C0
06C0
06C0
06C0
06C0
04C0
0CC0
0CC0
0CC0
0CC0
08C0
18C0
18C0
30C0
30C0
60C0
FFC0
FFC0
ENDCHAR
STARTCHAR 3018
ENCODING 12312
SWIDTH 990 0
DWIDTH 33 0
BBX 12 31 20 -3
BITMAP
0030
00F0
07F0
1E30
F830
C030
C0F0
C7C0
C600
C600
C600
C600
C600
C600
C600
C600
C600
C600
C600
C600
C600
C600
C700
C3E0
C070
E030
7830
1F30
03F0
0070
0010
ENDCHAR
STARTCHAR 3019
ENCODING 12313
SWIDTH 990 0
DWIDTH 33 0
BBX 11 30 2 -3
BITMAP
8000
F000
FC00
CF80
C1E0
C060
E060
7C60
0E60
0660
0660
0660
0660
0660
0660
0660
0660
0660
0660
0660
0660
0660
1E60
F860
E060
C0E0
C3C0
DF00
F800
E000
ENDCHAR
STARTCHAR 301C
ENCODING 12316
SWIDTH 1020 0
DWIDTH 34 0
BBX 30 8 2 8
BITMAP
03F00000
0FFC0000
3FFF001C
7C1F803C
F007E0F8
E003FFF0
4000FFE0
00003F00
ENDCHAR
STARTCHAR 301D
ENCODING 12317
SWIDTH 1020 0
DWIDTH 34 0
BBX 11 7 20 21
BITMAP
E380
E380
61C0
70C0
30C0
1860
1860
ENDCHAR
STARTCHAR 301F
ENCODING 12319
SWIDTH 1020 0
DWIDTH 34 0
BBX 11 7 3 -4
BITMAP
C300
6180
6180
71C0
30C0
38E0
1860
ENDCHAR
STARTCHAR 3020
ENCODING 12320
SWIDTH 990 0
DWIDTH 33 0
BBX 31 22 1 1
BITMAP
0FFFFFF0
0FFFFFF0
0FFFFFF0
00000000
00000000
0FFFFFF0
0FFFFFF0
0FFFFFF0
00038000
72C3869C
45E38B42
82438482
82438482
41C38304
2003800C
10438410
08400410
08200820
04183040
0307C180
00E00F00
001FF800
ENDCHAR
STARTCHAR 3030
ENCODING 12336
SWIDTH 1020 0
DWIDTH 34 0
BBX 34 8 0 8
BITMAP
E003F001C0
F007F803C0
780E1C0780
380C0C0700
1C1C0E0E00
0E38071C00
07F003F800
03E000F000
ENDCHAR
STARTCHAR 3033
ENCODING 12339
SWIDTH 1020 0
DWIDTH 34 0
BBX 19 30 6 -5
BITMAP
000040
0000E0
0001E0
0001C0
000380
000380
000700
000700
000E00
001E00
001C00
003800
003800
007000
00E000
00E000
01C000
01C000
038000
070000
070000
0E0000
1C0000
1C0000
380000
700000
700000
E00000
E00000
E00000
ENDCHAR
STARTCHAR 3034
ENCODING 12340
SWIDTH 1020 0
DWIDTH 34 0
BBX 25 30 6 -5
BITMAP
00004000
0000E000
0001E000
0001C000
00038000
00038000
00070000
00070000
000E0000
001E0000
001C0000
00380000
00380C00
00708E00
00E38E00
00E1C700
01C0E300
01C0E380
03807100
07006000
07000000
0E000000
1C000000
1C000000
38000000
70000000
70000000
E0000000
E0000000
E0000000
ENDCHAR
STARTCHAR 3035
ENCODING 12341
SWIDTH 1020 0
DWIDTH 34 0
BBX 19 29 6 -1
BITMAP
E00000
E00000
700000
700000
380000
3C0000
1C0000
0E0000
0E0000
070000
038000
038000
01C000
01E000
00E000
007000
007000
003800
001C00
001C00
000E00
000E00
000700
000780
000380
0001C0
0001C0
0000E0
0000E0
ENDCHAR
STARTCHAR 3041
ENCODING 12353
SWIDTH 870 0
DWIDTH 29 0
BBX 23 25 5 -2
BITMAP
018000
018000
018000
018000
7FFFF8
7FFFF8
018000
018000
018180
018380
01FFE0
03FFF8
0FE63C
1F861C
3D8E0E
79CC0E
71D806
60F806
E0F00E
60E00C
61E01C
77E038
3E70F0
0030E0
000080
ENDCHAR
STARTCHAR 3042
ENCODING 12354
SWIDTH 1020 0
DWIDTH 34 0
BBX 27 29 4 -2
BITMAP
01C00000
01C00000
01C00000
01C00000
7FFFFF00
7FFFFF00
01C00000
01C00000
01C06000
01C06000
01C1E000
01FFFC00
01FFFF00
07F1C780
0FC18380
1EC181C0
3CC300C0
70C700E0
70E600E0
E0EE00E0
E06C00E0
C07800C0
C07801C0
C07001C0
E1F00380
7FB80F00
1E383E00
00181C00
00101000
ENDCHAR
STARTCHAR 3043
ENCODING 12355
SWIDTH 1020 0
DWIDTH 34 0
BBX 23 20 6 -1
BITMAP
E00000
E00018
E00038
E00018
E0001C
E0001C
E0001C
E0000C
E0000C
E0000E
E0000E
60000E
60600E
70E00E
70E006
30C000
39C000
1FC000
1F8000
070000
ENDCHAR
STARTCHAR 3044
ENCODING 12356
SWIDTH 1020 0
DWIDTH 34 0
BBX 28 24 4 -1
BITMAP
C0000000
C0000180
C0000380
C00001C0
C00001C0
C00001C0
C00000C0
C00000E0
C00000E0
C00000E0
E00000E0
E0000060
E0000070
E0000070
60380070
70380070
70380070
70380000
38300000
38700000
1C700000
1FE00000
0FC00000
03800000
ENDCHAR
STARTCHAR 3045
ENCODING 12357
SWIDTH 1020 0
DWIDTH 34 0
BBX 18 26 8 -2
BITMAP
040000
078000
07E000
01FC00
003E00
000C00
000000
03F800
1FFE00
7F1F00
F00380
4001C0
0001C0
0000C0
0000C0
0001C0
0001C0
0001C0
000380
000780
000700
001E00
003C00
00F800
01E000
018000
ENDCHAR
STARTCHAR 3046
ENCODING 12358
SWIDTH 1020 0
DWIDTH 34 0
BBX 23 30 5 -2
BITMAP
030000
03F000
03FE00
007FC0
0007C0
000080
000000
000000
007E00
0FFFC0
7FFFF0
FE00F8
E0003C
00001C
00000C
00000E
00000E
00000E
00000E
00001C
00001C
000038
000078
0000F0
0001E0
0007C0
001F80
007E00
00F800
006000
ENDCHAR
STARTCHAR 3047
ENCODING 12359
SWIDTH 1020 0
DWIDTH 34 0
BBX 23 25 6 -1
BITMAP
040000
078000
07E000
01FC00
003C00
000C00
000000
000000
000000
7FFF80
7FFFC0
000380
000F00
001E00
003C00
007800
00E000
01F800
03FC00
070E00
0E0600
1C0700
780384
F003FC
6001FE
ENDCHAR
STARTCHAR 3048
ENCODING 12360
SWIDTH 1020 0
DWIDTH 34 0
BBX 27 30 4 -2
BITMAP
02000000
03E00000
03FE0000
007F8000
00078000
00008000
00000000
00000000
00000000
00000000
7FFFF000
7FFFF800
0000F000
0001E000
0003C000
00078000
000F0000
001E0000
00380000
007C0000
01FF0000
03E78000
07838000
0F01C000
1E01C000
3C00E000
7800F040
E0007FE0
C0003FE0
00000F00
ENDCHAR
STARTCHAR 3049
ENCODING 12361
SWIDTH 1020 0
DWIDTH 34 0
BBX 22 23 7 -1
BITMAP
030000
030000
030000
030000
FFFE00
FFFE60
030070
030070
030038
03001C
030008
03FF00
07FFC0
1F83E0
3F00F0
730070
630030
E30030
C30030
C70070
C701E0
FE1FC0
7C1F00
ENDCHAR
STARTCHAR 304A
ENCODING 12362
SWIDTH 1020 0
DWIDTH 34 0
BBX 27 28 4 -1
BITMAP
00C00000
00C00000
00C00000
00C00000
00C00000
FFFFE000
FFFFE200
00C00700
00C00780
00C003C0
00C001E0
00C000E0
00C00060
00C7C000
00FFF800
03FFFE00
07C01F00
1FC00780
3EC00380
38C00180
70C00180
70C00180
E0C00180
E1C00380
E1C00700
61801E00
7F83FC00
3F03E000
ENDCHAR
STARTCHAR 304B
ENCODING 12363
SWIDTH 1020 0
DWIDTH 34 0
BBX 30 29 3 -2
BITMAP
00180000
00380000
00380000
00380C00
00301E00
00700E00
00700700
00600300
00E00380
FFFE01C0
FFFFC1C0
01C3E0E0
0180E060
03807070
03807030
03007038
0700301C
07003010
0E007000
0E007000
0C007000
1C00E000
1C00E000
3800E000
3801C000
3001C000
00038000
00038000
00010000
ENDCHAR
STARTCHAR 304C
ENCODING 12364
SWIDTH 1020 0
DWIDTH 34 0
BBX 31 30 3 -2
BITMAP
00000010
00180030
00380118
0038039C
003801CE
003000E6
00701860
00701C70
00600E00
00E00E00
FFFE0700
FFFF8380
01C3C380
0180E1C0
0380E0E0
038070E0
03007070
07007030
07007020
0E007000
0E006000
0C00E000
1C00E000
1C00C000
3801C000
3801C000
30038000
00038000
00030000
00010000
ENDCHAR
STARTCHAR 304D
ENCODING 12365
SWIDTH 1020 0
DWIDTH 34 0
BBX 24 30 5 -2
BITMAP
000200
000E00
000600
000600
000700
000700
FFFFFE
FFFFFE
000380
000380
000380
000180
0001C0
0001C0
FFFFFF
FFFFFF
0000E0
0000E0
0000E0
000060
300070
380070
380000
380000
380000
380000
1F0000
0FFF00
07FF00
00FF00
ENDCHAR
STARTCHAR 304E
ENCODING 12366
SWIDTH 1020 0
DWIDTH 34 0
BBX 29 30 5 -2
BITMAP
00020040
000E00C0
00060460
00060E70
00070738
00070398
FFFFFD80
FFFFFDC0
00038000
00038000
00038000
00018000
0001C000
0001C000
FFFFFF00
FFFFFF00
0000E000
0000E000
0000E000
00006000
30007000
38007000
38000000
38000000
38000000
38000000
1F000000
0FFF0000
07FF0000
00FF0000
ENDCHAR
STARTCHAR 304F
ENCODING 12367
SWIDTH 1020 0
DWIDTH 34 0
BBX 19 29 7 -2
BITMAP
000180
000780
000F00
001E00
003C00
00F800
01E000
03C000
0F8000
1E0000
3C0000
780000
700000
E00000
E00000
E00000
E00000
780000
3C0000
1E0000
0F8000
03C000
01F000
00F800
003E00
001F00
000780
0003E0
0000C0
ENDCHAR
STARTCHAR 3050
ENCODING 12368
SWIDTH 1020 0
DWIDTH 34 0
BBX 22 29 7 -2
BITMAP
000180
000780
000F80
001E00
003C00
00F800
01E020
03C070
0F8138
1E039C
3C01CC
7800CC
7000E0
E00060
E00000
E00000
E00000
780000
3C0000
1E0000
0F8000
03C000
01F000
00F800
003E00
001F00
000780
0003E0
0000C0
ENDCHAR
STARTCHAR 3051
ENCODING 12369
SWIDTH 1020 0
DWIDTH 34 0
BBX 28 28 4 -2
BITMAP
E0001C00
E0001C00
E0001C00
E0001C00
E0001C00
E0001C00
E0001C00
E1FFFFF0
E1FFFFF0
E0001C00
E0001C00
E0001C00
E0001C00
E0001C00
E0001C00
E0001C00
E0001800
E0003800
E0003800
E0003800
E0003800
E0007000
E0007000
E0006000
E000E000
E000E000
0001C000
00008000
ENDCHAR
STARTCHAR 3052
ENCODING 12370
SWIDTH 1020 0
DWIDTH 34 0
BBX 30 30 4 -2
BITMAP
00000030
00000330
E0001998
E0001998
E00019DC
E0001CCC
E0001CC0
E0001C00
E0001C00
E1FFFFF0
E1FFFFF0
E0001C00
E0001C00
E0001800
E0001800
E0001800
E0001800
E0001800
E0003800
E0003800
E0003800
E0003800
E0007000
E0007000
E0007000
E000E000
E000E000
E001C000
6001C000
00018000
ENDCHAR
STARTCHAR 3053
ENCODING 12371
SWIDTH 1020 0
DWIDTH 34 0
BBX 24 25 4 -1
BITMAP
3FFFF0
3FFFFC
3FFFFE
00000E
000007
000007
000006
00000E
00000E
000004
000000
000000
000000
000000
000000
000000
000000
E00000
E00000
E00000
600000
700000
3E0006
1FFFFF
07FFFF
ENDCHAR
STARTCHAR 3054
ENCODING 12372
SWIDTH 1020 0
DWIDTH 34 0
BBX 30 29 4 -2
BITMAP
00000020
00000060
00000230
00000738
0000039C
3FFFF1CC
3FFFFCC0
00001EE0
00000E00
00000E00
00000E00
00000E00
00001C00
00000400
00000000
00000000
00000000
00000000
00000000
00000000
00000000
E0000000
E0000000
E0000000
E0000000
70000000
3E000600
1FFFFE00
07FFFE00
ENDCHAR
STARTCHAR 3055
ENCODING 12373
SWIDTH 1020 0
DWIDTH 34 0
BBX 26 29 5 -2
BITMAP
00038000
00038000
00038000
00018000
00018000
0001C000
0001C000
FFFFFFC0
FFFFFFC0
0000E000
0000E000
0000E000
0000E000
00006000
00007000
00007000
00007000
00003000
00003000
E0003800
E0002000
C0000000
C0000000
E0000000
F0000000
7C000000
3FFE0000
1FFE0000
03FE0000
ENDCHAR
STARTCHAR 3056
ENCODING 12374
SWIDTH 1020 0
DWIDTH 34 0
BBX 29 31 5 -2
BITMAP
000000C0
000000E0
00038660
00038730
00038338
00018390
000181C0
0001C080
0001C000
FFFFFFC0
FFFFFFC0
0000C000
0000E000
0000E000
0000E000
00006000
00007000
00007000
00007000
00003000
00003000
E0003800
C0002000
C0000000
C0000000
E0000000
F0000000
7C000000
3FFC0000
1FFC0000
03FC0000
ENDCHAR
STARTCHAR 3057
ENCODING 12375
SWIDTH 1020 0
DWIDTH 34 0
BBX 23 28 7 -2
BITMAP
E00000
E00000
E00000
E00000
E00000
E00000
E00000
E00000
E00000
E00000
E00000
E00000
E00000
E00000
E00000
E00000
E00000
E00004
E0000E
E0001E
E0001C
700038
700070
3801E0
3C07C0
1FFF80
07FE00
00F000
ENDCHAR
STARTCHAR 3058
ENCODING 12376
SWIDTH 1020 0
DWIDTH 34 0
BBX 23 28 7 -2
BITMAP
E00040
E000C0
E00460
E00E70
E00738
E00398
E00180
E000C0
E00000
E00000
E00000
E00000
E00000
E00000
E00000
E00000
E00000
E00004
E0000E
E0001E
E0001C
700038
700070
3801E0
3C07C0
1FFF80
07FE00
00F000
ENDCHAR
STARTCHAR 3059
ENCODING 12377
SWIDTH 1020 0
DWIDTH 34 0
BBX 30 29 2 -2
BITMAP
00003000
00003000
00003000
00003000
FFFFFFFC
FFFFFFFC
00003000
00003000
00003000
000F3000
003FF000
003FF000
00707000
00707000
00E03000
00E03000
00E03000
00603000
00707000
0038F000
003FF000
000F7000
00007000
0000E000
0000E000
0001C000
00038000
00070000
00020000
ENDCHAR
STARTCHAR 305A
ENCODING 12378
SWIDTH 1020 0
DWIDTH 34 0
BBX 31 32 3 -3
BITMAP
00000018
00000198
000060CC
000060CC
0000606E
00006066
00006060
00006000
FFFFFFF8
FFFFFFF8
00006000
00006000
003F6000
007FE000
00E0E000
00E0E000
00C06000
01C06000
01C06000
01C06000
00E0E000
00F1E000
007FE000
003F6000
0004E000
0000C000
0001C000
00038000
00078000
000F0000
000E0000
00040000
ENDCHAR
STARTCHAR 305B
ENCODING 12379
SWIDTH 1020 0
DWIDTH 34 0
BBX 30 30 2 -2
BITMAP
00000600
01C00600
01C00600
01C00600
01C00600
01C00600
01C00600
01C00600
FFFFFFFC
FFFFFFFC
01C00600
01C00600
01C00600
01C00600
01C00600
01C00600
01C00600
01C00000
01C00000
01C00000
01C00000
01C00000
01C00000
01C00000
00E00000
00E00000
00780000
003FDF80
000FFF80
0001F800
ENDCHAR
STARTCHAR 305C
ENCODING 12380
SWIDTH 1020 0
DWIDTH 34 0
BBX 32 30 2 -2
BITMAP
0000000C
01C006CC
01C00666
01C00666
01C00677
01C00633
01C00630
01C00600
01C00600
FFFFFFFC
FFFFFFFC
01C00600
01C00600
01C00600
01C00600
01C00600
01C00600
01C00000
01C00000
01C00000
01C00000
01C00000
01C00000
01C00000
00E00000
00F00000
00780000
003FFF80
000FFF80
0001F800
ENDCHAR
STARTCHAR 305D
ENCODING 12381
SWIDTH 1020 0
DWIDTH 34 0
BBX 26 30 4 -2
BITMAP
00000200
1C000700
1E000F00
0E001E00
07003C00
03807000
01C1E000
00E3C000
00778000
003E0000
003C0000
00780000
00E00FC0
FFFFFFC0
FFFFFFC0
F803E000
00078000
000E0000
000C0000
001C0000
00180000
00180000
00180000
00180000
001C0000
000E0000
000F0000
0007C000
0001FC00
00003C00
ENDCHAR
ENDFONT
